<?xml version="1.0" encoding="UTF-8" standalone="no" ?>
<!DOCTYPE svg PUBLIC "-//W3C//DTD SVG 1.1//EN" "http://www.w3.org/Graphics/SVG/1.1/DTD/svg11.dtd">
<svg xmlns="http://www.w3.org/2000/svg" xmlns:xlink="http://www.w3.org/1999/xlink" version="1.1" width="1080" height="1080" viewBox="0 0 1080 1080" xml:space="preserve">
<desc>Created with Fabric.js 5.2.4</desc>
<defs>
</defs>
<rect x="0" y="0" width="100%" height="100%" fill="transparent"></rect>
<g transform="matrix(0 0 0 0 0 0)" id="d1a7e40a-7e33-4efe-b735-9dd782affccd"  >
</g>
<g transform="matrix(1 0 0 1 540 540)" id="235074d2-db85-4b63-b150-40243432f7b4"  >
<rect style="stroke: none; stroke-width: 1; stroke-dasharray: none; stroke-linecap: butt; stroke-dashoffset: 0; stroke-linejoin: miter; stroke-miterlimit: 4; fill: rgb(255,255,255); fill-rule: nonzero; opacity: 1; visibility: hidden;" vector-effect="non-scaling-stroke"  x="-540" y="-540" rx="0" ry="0" width="1080" height="1080" />
</g>
<g transform="matrix(5.8 0 0 5.8 540 540)"  >
<path style="stroke: none; stroke-width: 1; stroke-dasharray: none; stroke-linecap: butt; stroke-dashoffset: 0; stroke-linejoin: miter; stroke-miterlimit: 4; fill: rgb(0,0,0); fill-rule: nonzero; opacity: 1;" vector-effect="non-scaling-stroke"  transform=" translate(-64, -64)" d="M 9.7530242 2.2451172 C 5.5830242000000005 2.2451172 2.1827042000000008 5.6454297 2.1827042000000008 9.8154297 L 2.1827042000000008 21.194336 L 2.1827042000000008 117.59472 C 2.1827042000000008 122.09472 5.842864200000001 125.75488 10.342864000000002 125.75488 L 99.022554 125.75488 C 103.52255 125.75488 107.1827 122.09472 107.1827 117.59472 L 107.1827 90.965821 L 119.20419 78.944336 L 119.22368999999999 78.924806 L 123.73344999999999 74.41504 C 126.51344999999999 71.62504 126.51369 67.07418100000001 123.72344999999999 64.284181 L 119.93242999999998 60.485353 C 117.14242999999998 57.695353000000004 112.59352999999999 57.695353000000004 109.80352999999998 60.485353 L 107.18242999999998 63.114259000000004 L 107.18242999999998 21.204102 L 107.18242999999998 21.194336 L 107.18242999999998 9.8154297 C 107.18242999999998 5.645429699999999 103.78211999999998 2.2451171999999993 99.61212399999998 2.2451171999999993 z M 9.7430242 5.7451172 L 99.602404 5.7451172 C 101.84240000000001 5.7451172 103.67271000000001 7.5754297 103.67271000000001 9.8154297 L 103.67271000000001 19.434571 L 5.6727142 19.434571 L 5.6727142 9.8154297 C 5.6727142 7.575429699999999 7.5030242 5.745117199999999 9.7430242 5.745117199999999 z M 13.493024 10.28418 C 12.880183825553747 10.284034041940243 12.292402038525175 10.527419006146634 11.859058301775377 10.96076218024632 C 11.42571456502558 11.394105354346008 11.182328837647635 11.98188682536475 11.182474 12.594726999999997 C 11.182328837647637 13.207567174635246 11.42571456502558 13.795348645653988 11.859058301775377 14.228691819753676 C 12.292402038525173 14.662034993853364 12.880183825553743 14.905419958059754 13.493023999999998 14.905273999999999 C 14.105864174446252 14.905419958059754 14.693645961474823 14.662034993853364 15.12698969822462 14.228691819753676 C 15.560333434974417 13.795348645653988 15.803719162352362 13.207567174635246 15.803573999999998 12.594726999999999 C 15.80371914141703 11.981926683748435 15.560364982371649 11.394180084881105 15.12707099820988 10.960843527511122 C 14.693777014048113 10.52750697014114 14.106054327554002 10.284095066190357 13.493253999999997 10.28418 z M 22.412944 10.28418 C 21.800105557987607 10.284036695333604 21.21232634061881 10.527422830917144 20.77898476707766 10.96076571730768 C 20.345643193536507 11.394108603698218 20.102258838684254 11.981888558424574 20.102404 12.594726999999999 C 20.102258838684254 13.207565441575424 20.345643193536507 13.795345396301782 20.77898476707766 14.228688282692318 C 21.21232634061881 14.662031169082852 21.800105557987607 14.905417304666393 22.412944 14.905273999999999 C 23.025784174446255 14.905419958059754 23.613565961474823 14.662034993853364 24.04690969822462 14.228691819753676 C 24.48025343497442 13.795348645653988 24.723639162352363 13.207567174635246 24.723494 12.594726999999999 C 24.723639162352363 11.98188682536475 24.48025343497442 11.39410535434601 24.04690969822462 10.960762180246322 C 23.613565961474823 10.527419006146634 23.02578417444625 10.284034041940243 22.412944 10.28418 z M 31.323104 10.28418 C 30.71026382555375 10.284034041940243 30.122482038525177 10.527419006146634 29.68913830177538 10.960762180246322 C 29.25579456502558 11.394105354346008 29.012408837647637 11.98188682536475 29.012554 12.594726999999997 C 29.012408837647637 13.207567174635246 29.25579456502558 13.795348645653988 29.68913830177538 14.228691819753676 C 30.122482038525177 14.662034993853364 30.710263825553746 14.905419958059754 31.323104 14.905273999999999 C 31.935942442012394 14.905417304666395 32.52372165938119 14.662031169082853 32.957063232922344 14.228688282692318 C 33.3904048064635 13.795345396301782 33.633789161315754 13.207565441575424 33.633644000000004 12.594726999999999 C 33.633789161315754 11.981888558424574 33.3904048064635 11.394108603698216 32.957063232922344 10.96076571730768 C 32.523721659381195 10.527422830917144 31.935942442012397 10.284036695333604 31.323104000000004 10.28418 z M 5.6727142 22.944336 L 103.67271 22.944336 L 103.67271 66.62402399999999 L 74.243254 96.055664 C 73.973254 96.32566399999999 73.79325399999999 96.675664 73.743254 97.055664 L 71.93270399999999 110.31542999999999 C 71.862704 110.85543 72.04270399999999 111.40418 72.43270399999999 111.78417999999999 C 72.76270399999999 112.11417999999999 73.212944 112.29393999999999 73.67294399999999 112.29393999999999 C 73.75294399999999 112.29393999999999 73.83317399999999 112.28393999999999 73.91317399999998 112.27444 L 87.17294399999999 110.46585 C 87.55294399999998 110.41585 87.90294399999999 110.23585 88.17294399999999 109.96585 L 103.67294 94.454132 L 103.67294 117.59475 C 103.67294 120.16475 101.58278 122.25491000000001 99.012784 122.25491000000001 L 10.333094000000003 122.25491000000001 C 7.763094200000003 122.25491000000001 5.6729442000000025 120.16475000000001 5.6729442000000025 117.59475 z M 19.512554 33.655274 C 18.542554000000003 33.655274 17.762554 34.435274 17.762554 35.405274 L 17.762554 62.215821 C 17.762554 63.18582 18.542554000000003 63.965821 19.512554 63.965821 L 46.323104 63.965821 C 47.293104 63.965821 48.073104 63.18582 48.073104 62.215821 L 48.073104 35.405274 C 48.073104 34.435274 47.293104 33.655274 46.323104 33.655274 z M 59.903184 33.655274 C 58.933184000000004 33.655274 58.153184 34.435274 58.153184 35.405274 C 58.153184 36.375274 58.943184 37.155274 59.903184 37.155274 L 92.823104 37.155274 C 93.793104 37.155274 94.573104 36.375274 94.573104 35.405274 C 94.573104 34.435274 93.793104 33.655274 92.823104 33.655274 z M 21.262554 37.155274 L 44.573104 37.155274 L 44.573104 60.465821 L 21.262554 60.465821 z M 59.903184 52.434571 C 58.933184000000004 52.434571 58.153184 53.214571 58.153184 54.184571 C 58.153184 55.15457 58.943184 55.934571 59.903184 55.934571 L 92.823104 55.934571 C 93.793104 55.934571 94.573104 55.15457 94.573104 54.184571 C 94.573104 53.214571 93.793104 52.434571 92.823104 52.434571 z M 114.8524 61.903321 C 115.7899 61.903321 116.72724000000001 62.260585999999996 117.44224 62.975586 L 121.23325 66.764649 C 122.67325 68.19464900000001 122.67302 70.514336 121.24325 71.944336 L 117.97372 75.215821 L 112.66317 69.91503900000001 L 108.99324999999999 66.24511700000001 L 112.26277999999999 62.97558600000001 C 112.97778 62.260586 113.91512999999999 61.90332000000001 114.85262999999999 61.903321000000005 z M 106.52232000000001 68.72558599999999 L 110.71372000000001 72.90527399999999 L 115.49302000000002 77.68457099999999 L 104.20396000000002 88.97558599999999 C 104.18396000000003 88.985586 104.17316000000002 89.00441599999999 104.15316000000003 89.02441599999999 L 86.10263400000002 107.08496 L 75.71395400000003 108.50488 L 77.13387400000003 98.114258 z M 19.51255400000001 71.22558599999999 C 18.54255400000001 71.22558599999999 17.76255400000001 72.005586 17.76255400000001 72.97558599999999 C 17.76255400000001 73.94558599999999 18.54255400000001 74.72558599999999 19.51255400000001 74.72558599999999 L 76.362164 74.72558599999999 C 77.332164 74.72558599999999 78.112164 73.94558599999999 78.112164 72.97558599999999 C 78.112164 72.005586 77.332164 71.22558599999999 76.362164 71.22558599999999 z M 19.51255400000001 90.00488299999999 C 18.54255400000001 90.00488299999999 17.76255400000001 90.784883 17.76255400000001 91.75488299999999 C 17.76255400000001 92.72488299999999 18.54255400000001 93.50488299999999 19.51255400000001 93.50488299999999 L 66.612164 93.50488299999999 C 67.582164 93.50488299999999 68.362164 92.72488299999999 68.362164 91.75488299999999 C 68.362164 90.784883 67.572164 90.00488299999999 66.612164 90.00488299999999 z M 19.51255400000001 108.79393999999999 C 18.54255400000001 108.79393999999999 17.76255400000001 109.57394 17.76255400000001 110.54393999999999 C 17.76255400000001 111.51393999999999 18.54255400000001 112.29393999999999 19.51255400000001 112.29393999999999 L 66.612164 112.29393999999999 C 67.582164 112.29393999999999 68.362164 111.51393999999999 68.362164 110.54393999999999 C 68.362164 109.57394 67.572164 108.79393999999999 66.612164 108.79393999999999 z" stroke-linecap="round" />
</g>
</svg>