<?xml version="1.0" encoding="UTF-8" standalone="no" ?>
<!DOCTYPE svg PUBLIC "-//W3C//DTD SVG 1.1//EN" "http://www.w3.org/Graphics/SVG/1.1/DTD/svg11.dtd">
<svg xmlns="http://www.w3.org/2000/svg" xmlns:xlink="http://www.w3.org/1999/xlink" version="1.1" width="1080" height="1080" viewBox="0 0 1080 1080" xml:space="preserve">
<desc>Created with Fabric.js 5.2.4</desc>
<defs>
</defs>
<rect x="0" y="0" width="100%" height="100%" fill="transparent"></rect>
<g transform="matrix(1 0 0 1 540 540)" id="bb92d8b0-b1c2-4058-9188-40f44d6aa9d6"  >
</g>
<g transform="matrix(1 0 0 1 540 540)" id="9a8e5f42-59d6-493e-b9e4-567b092875ce"  >
<rect style="stroke: none; stroke-width: 1; stroke-dasharray: none; stroke-linecap: butt; stroke-dashoffset: 0; stroke-linejoin: miter; stroke-miterlimit: 4; fill: rgb(255,255,255); fill-rule: nonzero; opacity: 1; visibility: hidden;" vector-effect="non-scaling-stroke"  x="-540" y="-540" rx="0" ry="0" width="1080" height="1080" />
</g>
<g transform="matrix(6.95 0 0 6.95 242.27 429.22)"  >
<path style="stroke: none; stroke-width: 1; stroke-dasharray: none; stroke-linecap: butt; stroke-dashoffset: 0; stroke-linejoin: miter; stroke-miterlimit: 4; fill: rgb(0,0,0); fill-rule: nonzero; opacity: 1;" vector-effect="non-scaling-stroke"  transform=" translate(-12.69, -30.11)" d="M 22.629 37.129 C 22.08603 37.129 21.5587 36.8165 21.328200000000002 36.28525 L 19.1837 31.500049999999998 C 17.668100000000003 28.128949999999996 14.312600000000002 25.941449999999996 10.613400000000002 25.941449999999996 L 2.742300000000002 25.941449999999996 C 1.957140000000002 25.941449999999996 1.312600000000002 25.296919999999997 1.312600000000002 24.511749999999996 C 1.312600000000002 23.726589999999995 1.957130000000002 23.082049999999995 2.742300000000002 23.082049999999995 L 10.613400000000002 23.082049999999995 C 15.441500000000001 23.082049999999995 19.828200000000002 25.925849999999997 21.785400000000003 30.324249999999996 L 23.929900000000004 35.109449999999995 C 24.258020000000002 35.82429 23.929900000000004 36.67975 23.215060000000005 36.99614999999999 C 23.027560000000005 37.082086999999994 22.828340000000004 37.12505999999999 22.629120000000004 37.12505999999999 z" stroke-linecap="round" />
</g>
<g transform="matrix(6.95 0 0 6.95 570.59 593.64)"  >
<path style="stroke: none; stroke-width: 1; stroke-dasharray: none; stroke-linecap: butt; stroke-dashoffset: 0; stroke-linejoin: miter; stroke-miterlimit: 4; fill: rgb(0,0,0); fill-rule: nonzero; opacity: 1;" vector-effect="non-scaling-stroke"  transform=" translate(-59.93, -53.77)" d="M 86.93 73.242 L 43.43000000000001 73.242 C 40.05890000000001 73.242 36.988600000000005 71.25760000000001 35.60190000000001 68.1717 L 21.316900000000008 36.2847 C 21.117680000000007 35.84329 21.160650000000008 35.32767 21.418460000000007 34.9292 C 21.676270000000006 34.53076 22.133300000000006 34.27295 22.617660000000008 34.27295 L 33.23066000000001 34.27295 C 34.015820000000005 34.27295 34.660360000000004 34.917480000000005 34.660360000000004 35.70265 C 34.660360000000004 36.48781999999999 34.01583 37.132349999999995 33.23066000000001 37.132349999999995 L 24.81656000000001 37.132349999999995 L 38.20356000000001 67.01935 C 39.11762000000001 69.07795 41.17626000000001 70.40605000000001 43.41836000000001 70.40605000000001 L 86.91836 70.40605000000001 C 88.35976000000001 70.40605000000001 89.61756000000001 69.39045 89.91836 67.97635000000001 L 95.74646000000001 40.87435000000001 C 95.94568000000001 39.96029000000001 95.71911600000001 39.01885000000001 95.13318000000001 38.288450000000005 C 94.54724000000002 37.55798000000001 93.67618000000002 37.143950000000004 92.73478000000001 37.143950000000004 L 86.63318000000001 37.143950000000004 C 85.84802 37.143950000000004 85.20348000000001 36.49942 85.20348000000001 35.71425000000001 C 85.20348000000001 34.92908000000001 85.84801000000002 34.28455000000001 86.63318000000001 34.28455000000001 L 92.73478000000001 34.28455000000001 C 94.53558000000001 34.28455000000001 96.21918000000001 35.08533000000001 97.34808000000001 36.48375000000001 C 98.47698000000001 37.88217 98.91838000000001 39.698550000000004 98.53558000000001 41.46815000000001 L 92.70748 68.57015000000001 C 92.12154000000001 71.28495000000001 89.69188 73.25765000000001 86.90668000000001 73.25765000000001 z" stroke-linecap="round" />
</g>
<g transform="matrix(6.95 0 0 6.95 500.68 816.33)"  >
<path style="stroke: none; stroke-width: 1; stroke-dasharray: none; stroke-linecap: butt; stroke-dashoffset: 0; stroke-linejoin: miter; stroke-miterlimit: 4; fill: rgb(0,0,0); fill-rule: nonzero; opacity: 1;" vector-effect="non-scaling-stroke"  transform=" translate(-49.88, -85.82)" d="M 49.871 92.543 C 46.171800000000005 92.543 43.1562 89.5274 43.1562 85.8125 C 43.1562 82.0976 46.1718 79.0977 49.870999999999995 79.0977 C 53.57019999999999 79.0977 56.601499999999994 82.11330000000001 56.601499999999994 85.8125 C 56.601499999999994 89.51169999999999 53.585899999999995 92.543 49.870999999999995 92.543 z M 49.871 81.95700000000001 C 47.7421 81.95700000000001 46.0155 83.68750000000001 46.0155 85.81250000000001 C 46.0155 87.94140000000002 47.746 89.68360000000001 49.871 89.68360000000001 C 51.999900000000004 89.68360000000001 53.7421 87.9531 53.7421 85.81250000000001 C 53.7421 83.66800000000002 52.0116 81.95700000000001 49.871 81.95700000000001 z" stroke-linecap="round" />
</g>
<g transform="matrix(6.95 0 0 6.95 697.2 816.33)"  >
<path style="stroke: none; stroke-width: 1; stroke-dasharray: none; stroke-linecap: butt; stroke-dashoffset: 0; stroke-linejoin: miter; stroke-miterlimit: 4; fill: rgb(0,0,0); fill-rule: nonzero; opacity: 1;" vector-effect="non-scaling-stroke"  transform=" translate(-78.16, -85.82)" d="M 78.156 92.543 C 74.4568 92.543 71.44120000000001 89.5274 71.44120000000001 85.8125 C 71.44120000000001 82.0976 74.45680000000002 79.0977 78.156 79.0977 C 81.8552 79.0977 84.88650000000001 82.11330000000001 84.88650000000001 85.8125 C 84.88650000000001 89.51169999999999 81.8709 92.543 78.156 92.543 z M 78.156 81.95700000000001 C 76.0271 81.95700000000001 74.3005 83.68750000000001 74.3005 85.81250000000001 C 74.3005 87.94140000000002 76.031 89.68360000000001 78.156 89.68360000000001 C 80.28490000000001 89.68360000000001 82.0271 87.9531 82.0271 85.81250000000001 C 82.0271 83.66800000000002 80.2966 81.95700000000001 78.156 81.95700000000001 z" stroke-linecap="round" />
</g>
<g transform="matrix(6.95 0 0 6.95 570.63 431.31)"  >
<path style="stroke: none; stroke-width: 1; stroke-dasharray: none; stroke-linecap: butt; stroke-dashoffset: 0; stroke-linejoin: miter; stroke-miterlimit: 4; fill: rgb(0,0,0); fill-rule: nonzero; opacity: 1;" vector-effect="non-scaling-stroke"  transform=" translate(-59.94, -30.4)" d="M 59.941 53.344 C 47.285000000000004 53.344 37 43.059 37 30.403000000000002 C 37 17.747000000000007 47.301 7.462000000000003 59.941 7.462000000000003 C 72.586 7.462000000000003 82.882 17.763000000000005 82.882 30.403000000000002 C 82.882 43.048 72.59700000000001 53.344 59.941 53.344 z M 59.941 10.317 C 48.871 10.317 39.855000000000004 19.3326 39.855000000000004 30.403 C 39.855000000000004 41.473 48.8706 50.489 59.941 50.489 C 71.011 50.489 80.027 41.4734 80.027 30.403 C 80.027 19.333 71.01140000000001 10.317 59.941 10.317 z" stroke-linecap="round" />
</g>
<g transform="matrix(6.95 0 0 6.95 570.6 431.31)"  >
<path style="stroke: none; stroke-width: 1; stroke-dasharray: none; stroke-linecap: butt; stroke-dashoffset: 0; stroke-linejoin: miter; stroke-miterlimit: 4; fill: rgb(0,0,0); fill-rule: nonzero; opacity: 1;" vector-effect="non-scaling-stroke"  transform=" translate(-59.94, -30.4)" d="M 59.941 53.344 C 52.9254 53.344 47.441 43.274 47.441 30.403000000000002 C 47.441 17.532000000000004 52.9254 7.462000000000003 59.941 7.462000000000003 C 66.95660000000001 7.462000000000003 72.441 17.532000000000004 72.441 30.403000000000002 C 72.441 43.274 66.95660000000001 53.344 59.941 53.344 z M 59.941 10.317 C 54.7105 10.317 50.2965 19.516199999999998 50.2965 30.403 C 50.2965 41.29 54.7106 50.489 59.941 50.489 C 65.17150000000001 50.489 69.5855 41.2898 69.5855 30.403 C 69.5855 19.516 65.17139999999999 10.317 59.940999999999995 10.317 z" stroke-linecap="round" />
</g>
<g transform="matrix(6.95 0 0 6.95 570.57 384.29)"  >
<path style="stroke: none; stroke-width: 1; stroke-dasharray: none; stroke-linecap: butt; stroke-dashoffset: 0; stroke-linejoin: miter; stroke-miterlimit: 4; fill: rgb(0,0,0); fill-rule: nonzero; opacity: 1;" vector-effect="non-scaling-stroke"  transform=" translate(-59.93, -23.64)" d="M 79.898 25.07 L 39.967999999999996 25.07 C 39.18284 25.07 38.5383 24.42547 38.5383 23.6403 C 38.5383 22.85513 39.18283 22.2106 39.967999999999996 22.2106 L 79.898 22.2106 C 80.68316 22.2106 81.3277 22.85513 81.3277 23.6403 C 81.3277 24.42547 80.68316999999999 25.07 79.898 25.07 z" stroke-linecap="round" />
</g>
<g transform="matrix(6.95 0 0 6.95 570.57 478.08)"  >
<path style="stroke: none; stroke-width: 1; stroke-dasharray: none; stroke-linecap: butt; stroke-dashoffset: 0; stroke-linejoin: miter; stroke-miterlimit: 4; fill: rgb(0,0,0); fill-rule: nonzero; opacity: 1;" vector-effect="non-scaling-stroke"  transform=" translate(-59.93, -37.14)" d="M 79.898 38.57 L 39.967999999999996 38.57 C 39.18284 38.57 38.5383 37.92547 38.5383 37.1403 C 38.5383 36.35513000000001 39.18283 35.71060000000001 39.967999999999996 35.71060000000001 L 79.898 35.71060000000001 C 80.68316 35.71060000000001 81.3277 36.35513000000001 81.3277 37.1403 C 81.3277 37.92547 80.68316999999999 38.57 79.898 38.57 z" stroke-linecap="round" />
</g>
<g transform="matrix(6.95 0 0 6.95 570.6 431.3)"  >
<path style="stroke: none; stroke-width: 1; stroke-dasharray: none; stroke-linecap: butt; stroke-dashoffset: 0; stroke-linejoin: miter; stroke-miterlimit: 4; fill: rgb(0,0,0); fill-rule: nonzero; opacity: 1;" vector-effect="non-scaling-stroke"  transform=" translate(-59.94, -30.4)" d="M 59.941 53.344 C 59.155840000000005 53.344 58.511300000000006 52.69947 58.511300000000006 51.914300000000004 L 58.515206000000006 8.887300000000003 C 58.515206000000006 8.102140000000004 59.15973600000001 7.457600000000003 59.944906 7.457600000000003 C 60.730066 7.457600000000003 61.374606 8.102130000000002 61.374606 8.887300000000003 L 61.374606 51.914300000000004 C 61.374606 52.69946 60.730076 53.344 59.944906 53.344 z" stroke-linecap="round" />
</g>
</svg>