<?xml version="1.0" encoding="UTF-8" standalone="no" ?>
<!DOCTYPE svg PUBLIC "-//W3C//DTD SVG 1.1//EN" "http://www.w3.org/Graphics/SVG/1.1/DTD/svg11.dtd">
<svg xmlns="http://www.w3.org/2000/svg" xmlns:xlink="http://www.w3.org/1999/xlink" version="1.1" width="1080" height="1080" viewBox="0 0 1080 1080" xml:space="preserve">
<desc>Created with Fabric.js 5.2.4</desc>
<defs>
</defs>
<rect x="0" y="0" width="100%" height="100%" fill="transparent"></rect>
<g transform="matrix(1 0 0 1 540 540)" id="d97cca76-b141-4a22-9bdc-83bdd1892e17"  >
<rect style="stroke: none; stroke-width: 1; stroke-dasharray: none; stroke-linecap: butt; stroke-dashoffset: 0; stroke-linejoin: miter; stroke-miterlimit: 4; fill: rgb(255,255,255); fill-rule: nonzero; opacity: 1; visibility: hidden;" vector-effect="non-scaling-stroke"  x="-540" y="-540" rx="0" ry="0" width="1080" height="1080" />
</g>
<g transform="matrix(1 0 0 1 540 540)" id="44605b43-9886-449d-a699-0a458bd5df97"  >
</g>
<g transform="matrix(7.5 0 0 7.5 540 540)"  >
<path style="stroke: none; stroke-width: 1; stroke-dasharray: none; stroke-linecap: butt; stroke-dashoffset: 0; stroke-linejoin: miter; stroke-miterlimit: 4; fill: rgb(0,0,0); fill-rule: nonzero; opacity: 1;" vector-effect="non-scaling-stroke"  transform=" translate(-50, -50)" d="M 92.059 7.4414 C 85.1879 0.5702999999999996 74.008 0.5702999999999996 67.137 7.4414 L 62.6995 11.8789 L 52.554500000000004 22.026899999999998 C 52.550593000000006 22.030806 52.542781000000005 22.034712 52.53887400000001 22.042524999999998 C 52.534968000000006 22.046431 52.531062000000006 22.054243999999997 52.523250000000004 22.058149999999998 L 15.628250000000001 58.95615 C 15.620438000000002 58.963963 15.612625000000001 58.975681 15.604813000000002 58.983494 C 15.569656000000002 59.01865 15.538406000000002 59.053807 15.507156000000002 59.092874 C 15.487625000000001 59.116312 15.468094000000002 59.139749 15.444656000000002 59.167093 C 15.417313000000002 59.202249 15.393875000000001 59.237405 15.366532000000001 59.272563 C 15.343094 59.303813 15.323563000000002 59.335063 15.304032000000001 59.366313 C 15.284500000000001 59.397563 15.268875000000001 59.428813 15.249344 59.460063 C 15.225906 59.499125 15.206375000000001 59.538187 15.186844 59.577253 C 15.175125000000001 59.604597 15.163406 59.63194 15.147782000000001 59.659284 C 15.128250000000001 59.706159 15.108719 59.753034 15.089188000000002 59.799904 C 15.085282000000001 59.811623 15.077469000000002 59.819435 15.073563000000002 59.831154 L 2.9285630000000022 93.558154 C 2.619973000000002 94.417534 2.8348130000000022 95.378454 3.4793430000000023 96.026954 C 3.9285630000000022 96.476174 4.534043000000002 96.71836400000001 5.147343000000002 96.71836400000001 C 5.416873000000002 96.71836400000001 5.686403000000002 96.67148900000001 5.9481230000000025 96.57774400000001 L 29.553123000000003 88.069944 C 29.670313000000004 88.23010400000001 29.799213 88.38635400000001 29.947653000000003 88.534784 L 32.764053000000004 91.343384 C 34.221053000000005 92.808184 36.451553000000004 92.941084 38.443753 91.679324 L 41.076553000000004 90.023124 C 41.767963 90.355154 42.478853 90.652034 43.197653 90.905934 L 43.885153 93.929334 C 44.404683000000006 96.23013399999999 46.068753 97.714534 48.131253 97.714534 L 52.119553 97.714534 C 54.170353000000006 97.714534 55.834353 96.234034 56.365653 93.933334 L 57.053153 90.906034 C 57.775813 90.652124 58.486753 90.355254 59.178153 90.023224 L 61.799253 91.675524 C 63.791453 92.937224 66.021953 92.808324 67.482853 91.351304 L 70.30705300000001 88.527104 C 71.76015300000002 87.066204 71.88515300000002 84.83570399999999 70.62736300000002 82.855204 L 68.97116300000002 80.226304 C 69.30319300000002 79.534894 69.60007300000002 78.824004 69.85397300000002 78.105204 L 72.88917300000003 77.413794 C 75.18217300000003 76.886454 76.66257300000002 75.21849399999999 76.66257300000002 73.171594 L 76.66257300000002 69.183294 C 76.66257300000002 67.120794 75.17817300000003 65.456694 72.88137300000002 64.937194 L 69.85407300000003 64.245784 C 69.60016300000002 63.523124 69.30329300000002 62.812184 68.97126300000002 62.120784 L 70.62356300000002 59.491884 C 71.84236300000002 57.569984 71.76026300000002 55.429384 70.44387300000002 53.972384 L 92.05287300000003 32.363383999999996 C 98.92397300000003 25.492283999999998 98.92397300000003 14.312383999999998 92.05287300000003 7.441383999999996 z M 75.789 41.9574 L 57.543000000000006 23.7114 L 64.37110000000001 16.883300000000002 L 82.61710000000001 35.1293 z M 54.203 27.0474 L 72.449 45.2934 L 67.0896 50.6528 C 65.6443 49.5317 63.62480000000001 49.519999999999996 61.80050000000001 50.660612 L 59.1677 52.316812 C 58.4802 51.988692 57.7732 51.695721999999996 57.046600000000005 51.437902 L 56.359100000000005 48.398802 C 55.83176 46.105802000000004 54.1638 44.625402 52.1169 44.625402 L 48.1286 44.625402 C 46.07 44.625402 44.402 46.109802 43.8825 48.406602 L 43.19109 51.437802 C 42.46453 51.691711999999995 41.757490000000004 51.984682 41.069990000000004 52.316711999999995 L 38.43329000000001 50.660512 C 36.44109000000001 49.410512 34.214490000000005 49.539412 32.761390000000006 50.988631999999996 L 29.937190000000005 53.81283199999999 C 28.487990000000003 55.26203199999999 28.359090000000005 57.488631999999996 29.609070000000006 59.484731999999994 L 31.265270000000005 62.117532 C 30.933240000000005 62.808941999999995 30.636360000000003 63.519831999999994 30.386360000000003 64.242532 L 27.359060000000003 64.930032 C 26.710620000000002 65.074562 26.132460000000002 65.316752 25.628560000000004 65.625342 L 20.624660000000006 60.621442 z M 18.258000000000003 64.9224 L 23.582200000000004 70.2466 L 23.582200000000004 73.1685 C 23.582200000000004 75.21929999999999 25.062700000000003 76.88329999999999 27.363400000000006 77.4146 L 30.390700000000006 78.10601 C 30.644610000000007 78.82867 30.941480000000006 79.53571 31.273510000000005 80.22711 L 29.617310000000007 82.85991 C 29.570434000000006 82.934129 29.531372000000008 83.00835 29.488400000000006 83.08257 L 9.070400000000006 90.44197 L 18.257900000000006 64.92597 z M 71.844 69.53569999999999 C 71.883062 69.54351299999999 71.918219 69.55523199999999 71.94946999999999 69.56304399999999 L 71.94946999999999 72.78184399999999 C 71.91821999999999 72.79356299999999 71.87915699999999 72.801375 71.84008999999999 72.80918799999999 L 67.49238999999999 73.80137799999999 C 66.64472999999998 73.99278799999999 65.97288999999999 74.63731799999998 65.74238999999999 75.47327799999998 C 65.39082999999998 76.75057799999998 64.87519999999999 77.99277799999997 64.20718999999998 79.16857799999998 C 63.77749999999998 79.92638799999999 63.80093999999998 80.85607799999998 64.26187799999998 81.59047799999998 L 66.64467799999998 85.37167799999997 C 66.66420899999999 85.40292799999997 66.68374099999998 85.43417799999997 66.69936599999998 85.46542799999997 L 64.42206599999999 87.74272799999997 C 64.39081599999999 87.72710199999997 64.35956599999999 87.70757099999997 64.32440999999999 87.68413399999997 L 60.54710999999999 85.30523399999997 C 59.81272999999999 84.84039399999997 58.87910999999999 84.82085399999997 58.12130999999999 85.25054599999997 C 56.95720999999999 85.91460599999998 55.71510999999999 86.43024599999997 54.426009999999984 86.78174599999997 C 53.58616999999998 87.01221599999997 52.94160999999998 87.68799599999997 52.75020999999998 88.53564599999997 L 51.76582999999998 92.87544599999997 C 51.75411099999998 92.91841499999997 51.74629899999998 92.95747699999997 51.73457999999998 92.99263599999996 L 48.51577999999998 92.99263599999996 C 48.50406099999998 92.96138599999996 48.49624899999998 92.92232299999996 48.48843599999998 92.88325599999996 L 47.49624599999998 88.53555599999996 C 47.30483599999998 87.68789599999995 46.66030599999998 87.01605599999996 45.82434599999998 86.78555599999996 C 44.539145999999974 86.43008599999996 43.29704599999998 85.91446599999996 42.132945999999976 85.25435599999996 C 41.375135999999976 84.82466599999997 40.445445999999976 84.84419599999995 39.711045999999975 85.30904399999996 L 35.92584599999997 87.69184399999996 C 35.89459599999997 87.71137599999996 35.86334599999997 87.73090699999996 35.83600299999997 87.74653199999996 L 33.55870299999997 85.47313199999996 C 33.57432799999997 85.44188199999996 33.59385899999997 85.41063199999996 33.61729699999997 85.37547599999996 L 35.996196999999974 81.59817599999997 C 36.461036999999976 80.86379599999997 36.480576999999975 79.93017599999996 36.050883999999975 79.17237599999997 C 35.39072399999998 78.00827599999997 34.87118399999998 76.76617599999997 34.51968399999998 75.48097599999997 C 34.28921399999998 74.64503599999998 33.617343999999974 74.00047599999996 32.76968399999998 73.80907599999998 L 28.425883999999975 72.82079599999997 C 28.382914999999976 72.80907799999997 28.343852999999974 72.80126499999997 28.308693999999974 72.78954599999997 L 28.308693999999974 69.57074599999997 C 28.339943999999974 69.55902799999997 28.375099999999975 69.55121499999997 28.418073999999976 69.54340299999997 L 32.773573999999975 68.55121299999998 C 33.625133999999974 68.35980299999997 34.29697399999998 67.71137299999998 34.52747399999998 66.87151299999998 C 34.875133999999974 65.59421299999998 35.38685399999998 64.35591299999997 36.05477399999997 63.18791299999998 C 36.484463999999974 62.43010299999998 36.46493399999997 61.50041299999998 36.000085999999975 60.76601299999998 L 33.62118599999997 56.98871299999998 C 33.597747999999974 56.95355699999998 33.582122999999974 56.92230699999998 33.562591999999974 56.89105699999998 L 35.83989199999997 54.613756999999985 C 35.87114199999997 54.629381999999985 35.90239199999997 54.648913999999984 35.93754799999997 54.668444999999984 L 39.71874799999997 57.047344999999986 C 40.45312799999997 57.51218499999999 41.38674799999997 57.53172499999999 42.14064799999997 57.10203199999999 C 43.29294799999997 56.44578199999999 44.53514799999997 55.93403199999999 45.83204799999997 55.57473199999999 C 46.66798799999997 55.34426199999999 47.31254799999997 54.67239199999999 47.50394799999997 53.82473199999999 L 48.49613799999997 49.46533199999999 C 48.503949999999975 49.42626899999999 48.515668999999974 49.39111299999999 48.52348199999997 49.35986199999999 L 51.742281999999975 49.35986199999999 C 51.75399999999998 49.39111199999999 51.761812999999975 49.42626799999999 51.76962499999998 49.46533199999999 L 52.75400499999998 53.82083199999999 C 52.945414999999976 54.668491999999986 53.58994499999998 55.34423199999999 54.42590499999998 55.57473199999999 C 55.72670499999998 55.93411199999999 56.96500499999998 56.44582199999999 58.11730499999998 57.10203199999999 C 58.87511499999998 57.53172199999999 59.80480499999998 57.512191999999985 60.53920499999998 57.047344999999986 L 64.31650499999998 54.672344999999986 C 64.35166099999998 54.648907999999984 64.38681799999998 54.629375999999986 64.41806499999998 54.613750999999986 L 65.42196499999999 55.61765099999999 C 65.43368399999999 55.62936899999999 65.44149599999999 55.63718199999999 65.44930899999999 55.64890099999999 C 65.46102799999998 55.66061899999999 65.46883999999999 55.66843199999999 65.48055899999999 55.67624399999999 L 66.69535899999998 56.89104399999999 C 66.67973499999998 56.92229399999999 66.66020299999998 56.95354399999999 66.63676599999998 56.98869999999999 L 64.25786599999998 60.769899999999986 C 63.793025999999976 61.50427999999999 63.77349599999998 62.437899999999985 64.20317899999998 63.191799999999986 C 64.86333899999998 64.35589999999999 65.38287899999997 65.59799999999998 65.73437899999998 66.88319999999999 C 65.96484899999997 67.71913999999998 66.63671899999997 68.3637 67.48437899999998 68.55509999999998 L 71.83987899999998 69.54728999999998 z M 85.957 31.793699999999994 L 67.711 13.547699999999995 L 70.4766 10.782099999999996 C 75.5078 5.750899999999996 83.6956 5.750899999999996 88.7226 10.782099999999996 C 93.7538 15.813299999999996 93.7538 24.001099999999994 88.7226 29.028099999999995 z M 40.75399999999999 61.8017 C 35.58599999999999 66.9697 35.58599999999999 75.3757 40.75399999999999 80.5397 C 43.25789999999999 83.0475 46.58599999999999 84.4264 50.12509999999999 84.4264 C 53.66419999999999 84.4264 56.992299999999986 83.0475 59.49619999999999 80.5397 C 62.00009999999999 78.0358 63.37899999999999 74.71159999999999 63.37899999999999 71.1686 C 63.37899999999999 67.6295 62.00009999999999 64.3014 59.49619999999999 61.7975 C 54.32819999999999 56.6295 45.92219999999999 56.6334 40.75419999999998 61.7975 z M 56.15599999999999 77.2077 C 54.54659999999999 78.821 52.40209999999999 79.7077 50.12479999999999 79.7077 C 47.843599999999995 79.7077 45.70289999999999 78.82098 44.08959999999999 77.2038 C 40.76149999999999 73.8757 40.76149999999999 68.4655 44.08959999999999 65.1378 C 45.75369999999999 63.4737 47.93729999999999 62.6417 50.12479999999999 62.6417 C 52.31229999999999 62.6417 54.49589999999999 63.47373 56.16 65.1378 C 57.7694 66.74719999999999 58.66 68.8917 58.66 71.173 C 58.66 73.4543 57.77328 75.5949 56.16 77.2082 z" stroke-linecap="round" />
</g>
</svg>