<?xml version="1.0" encoding="UTF-8" standalone="no" ?>
<!DOCTYPE svg PUBLIC "-//W3C//DTD SVG 1.1//EN" "http://www.w3.org/Graphics/SVG/1.1/DTD/svg11.dtd">
<svg xmlns="http://www.w3.org/2000/svg" xmlns:xlink="http://www.w3.org/1999/xlink" version="1.1" width="1080" height="1080" viewBox="0 0 1080 1080" xml:space="preserve">
<desc>Created with Fabric.js 5.2.4</desc>
<defs>
</defs>
<g transform="matrix(1 0 0 1 540 540)" id="d97cca76-b141-4a22-9bdc-83bdd1892e17"  >
<rect style="stroke: none; stroke-width: 1; stroke-dasharray: none; stroke-linecap: butt; stroke-dashoffset: 0; stroke-linejoin: miter; stroke-miterlimit: 4; fill: rgb(255,255,255); fill-rule: nonzero; opacity: 1; visibility: hidden;" vector-effect="non-scaling-stroke"  x="-540" y="-540" rx="0" ry="0" width="1080" height="1080" />
</g>
<g transform="matrix(1 0 0 1 540 540)" id="44605b43-9886-449d-a699-0a458bd5df97"  >
</g>
<g transform="matrix(8.37 0 0 8.37 540 585.14)"  >
<path style="stroke: none; stroke-width: 1; stroke-dasharray: none; stroke-linecap: butt; stroke-dashoffset: 0; stroke-linejoin: miter; stroke-miterlimit: 4; fill: rgb(0,0,0); fill-rule: nonzero; opacity: 1;" vector-effect="non-scaling-stroke"  transform=" translate(-50, -49.96)" d="M 38.738 24.711 C 38.37862 24.734437 38.02316 24.605529999999998 37.76144 24.35944 C 37.49582 24.11335 37.34738 23.7696 37.34738 23.40632 C 37.34738 23.04694 37.49582 22.703200000000002 37.76144 22.4571 C 38.02316 22.21101 38.37863 22.0821 38.738 22.10554 L 42.2458 22.10554 C 42.59736 22.093821000000002 42.94111 22.22663 43.19111 22.472730000000002 C 43.44502 22.71882 43.58955 23.058670000000003 43.58955 23.410230000000002 C 43.58955 23.76179 43.44502 24.101640000000003 43.19111 24.347730000000002 C 42.94111 24.589920000000003 42.59736 24.726640000000003 42.2458 24.714920000000003 z M 45.7575 24.711 L 49.2614 24.711 C 49.9489 24.668031 50.484100000000005 24.09772 50.484100000000005 23.406299999999998 C 50.484100000000005 22.718799999999998 49.94894000000001 22.1485 49.2614 22.1055 L 45.749700000000004 22.1055 C 45.398140000000005 22.093781 45.05829000000001 22.226589999999998 44.804390000000005 22.47269 C 44.55048000000001 22.71878 44.40986 23.05863 44.40986 23.41019 C 44.40986 23.76175 44.55048 24.1016 44.804390000000005 24.34769 C 45.0583 24.58988 45.398140000000005 24.7266 45.749700000000004 24.71488 z M 36.527 23.406299999999998 C 36.527 24.125049999999998 35.94106 24.711 35.222300000000004 24.711 L 17.507300000000004 24.711 C 16.862770000000005 26.7305 14.843200000000005 27.9805 12.749500000000005 27.656299999999998 C 10.651800000000005 27.32818 9.108900000000006 25.5274 9.108900000000006 23.406299999999998 C 9.108900000000006 21.285199999999996 10.651900000000005 19.4805 12.749500000000005 19.156299999999998 C 14.843300000000005 18.832079999999998 16.862800000000004 20.082079999999998 17.507300000000004 22.101599999999998 L 35.222300000000004 22.101599999999998 C 35.566050000000004 22.101599999999998 35.89808000000001 22.238319999999998 36.144180000000006 22.484409999999997 C 36.39027000000001 22.726599999999998 36.526990000000005 23.058629999999997 36.526990000000005 23.40629 z M 15.101000000000003 23.406299999999998 L 15.097094000000002 23.406299999999998 C 15.085376000000002 22.738329999999998 14.675214000000002 22.144599999999997 14.057994000000003 21.8985 C 13.436904000000002 21.65241 12.729894000000002 21.800842999999997 12.264994000000003 22.2735 C 11.796244000000003 22.750059999999998 11.659524000000003 23.457099999999997 11.917334000000004 24.074299999999997 C 12.175144000000003 24.687579999999997 12.776714000000004 25.089899999999997 13.440734000000004 25.089899999999997 C 14.362614000000004 25.078180999999997 15.104834000000004 24.328179999999996 15.096934000000005 23.406299999999998 z M 54.316 22.1602 L 59.616800000000005 22.1602 C 59.968360000000004 22.168013 60.312110000000004 22.0352 60.562110000000004 21.78911 C 60.81602 21.543020000000002 60.960550000000005 21.20708 60.960550000000005 20.855520000000002 C 60.960550000000005 20.50005 60.81602 20.16411 60.562110000000004 19.918020000000002 C 60.312110000000004 19.671930000000003 59.968360000000004 19.53911 59.616800000000005 19.55083 L 54.316 19.55083 C 53.60897 19.570361000000002 53.0465 20.148490000000002 53.0465 20.85553 C 53.0465 21.56257 53.609 22.14073 54.316 22.160230000000002 z M 54.316 27.2579 L 59.616800000000005 27.2579 C 59.968360000000004 27.265712999999998 60.312110000000004 27.1329 60.562110000000004 26.88681 C 60.81602 26.64072 60.960550000000005 26.30478 60.960550000000005 25.95322 C 60.960550000000005 25.59775 60.81602 25.26181 60.562110000000004 25.01572 C 60.312110000000004 24.769630000000003 59.968360000000004 24.63681 59.616800000000005 24.64853 L 54.316 24.64853 C 53.60897 24.668061 53.0465 25.246190000000002 53.0465 25.95323 C 53.0465 26.66027 53.609 27.23843 54.316 27.25793 z M 97.367 56.7309 C 97.394343 63.1293 92.2303 68.34389999999999 85.83200000000001 68.3789 L 84.7382 68.3789 L 84.7382 71.2422 C 84.7382 71.70703999999999 84.49211000000001 72.13673 84.08976000000001 72.3711 L 81.40226000000001 73.9375 L 81.40226000000001 75.5391 C 81.38272800000001 76.24223 80.80460000000001 76.80470000000001 80.09756000000002 76.80470000000001 C 79.39053000000001 76.80470000000001 78.81236000000001 76.24220000000001 78.79286000000002 75.5391 L 78.79286000000002 73.1875 C 78.79286000000002 72.72266 79.03895000000001 72.29297 79.44130000000001 72.0586 L 82.12490000000001 70.4922 L 82.12490000000001 68.3789 L 74.65220000000001 68.3789 L 74.65220000000001 72.9297 C 74.62876200000001 73.63282 74.05064 74.1953 73.34750000000001 74.1953 C 72.64047000000001 74.1953 72.06230000000001 73.6328 72.04280000000001 72.9297 L 72.04280000000001 68.3789 L 64.46470000000001 68.3789 L 64.46470000000001 70.3789 L 68.9608 73.8359 L 68.95689300000001 73.839806 C 69.27720300000001 74.08589599999999 69.46470300000001 74.468716 69.46470300000001 74.875006 L 69.46470300000001 77.980506 L 69.46470300000001 77.97659900000001 C 71.37490300000002 78.61722900000001 72.53500300000002 80.54689900000001 72.21080300000001 82.531299 C 71.88658300000002 84.515699 70.17170300000001 85.97659900000001 68.16000300000002 85.97659900000001 C 66.14830300000001 85.97659900000001 64.43340300000001 84.51569900000001 64.10920300000002 82.531299 C 63.78500300000003 80.546899 64.94904300000002 78.617199 66.85530300000002 77.97659900000001 L 66.85530300000002 75.51959900000001 L 62.35920300000002 72.06259900000002 C 62.03889300000002 71.81259900000002 61.85139300000002 71.42978900000001 61.85139300000002 71.02739900000002 L 61.85139300000002 68.37899900000002 L 50.24239300000002 68.37899900000002 L 50.24239300000002 74.54309900000003 C 50.25411100000002 74.89856900000002 50.11739300000002 75.23840900000003 49.87520300000002 75.49231900000002 C 49.62911300000002 75.74231900000002 49.28926300000002 75.88684900000003 48.93770300000002 75.88684900000003 C 48.58614300000002 75.88684900000003 48.24629300000002 75.74231900000002 48.00020300000002 75.49231900000002 C 47.75411300000002 75.23840900000002 47.62129300000002 74.89856900000002 47.63301300000002 74.54309900000003 L 47.63301300000002 68.37899900000002 L 43.50801300000002 68.37899900000002 L 43.50801300000002 70.15629900000002 C 43.50801300000002 70.55863900000001 43.32051300000002 70.94145900000002 43.00020300000002 71.19149900000002 L 38.508003000000016 74.64849900000002 L 38.508003000000016 77.11329900000001 C 40.414203000000015 77.75001900000001 41.57830300000002 79.67969900000001 41.254103000000015 81.66409900000001 C 40.92988300000002 83.652399 39.21500300000002 85.10939900000001 37.20330300000001 85.10939900000001 C 35.18770300000001 85.10939900000001 33.47280300000001 83.65239900000002 33.14860300000001 81.66409900000001 C 32.82438300000001 79.67969900000001 33.98844300000001 77.749999 35.89860300000001 77.11329900000001 L 35.89860300000001 74.007799 C 35.89860300000001 73.601549 36.08610300000001 73.218739 36.40641300000001 72.972599 L 40.902513000000006 69.51559900000001 L 40.898607000000005 68.378899 L 35.644707000000004 68.378899 C 31.918107000000003 68.339837 28.433807000000005 66.523399 26.273607000000005 63.488299000000005 C 24.109507000000004 60.44919900000001 23.527507000000007 56.566399000000004 24.707207000000004 53.031299000000004 L 7.223207000000002 53.031299000000004 C 4.676307000000002 53.015674000000004 2.621607000000002 50.94149900000001 2.633407000000002 48.398499 L 2.633407000000002 38.757899 C 2.6216890000000017 36.210999 4.676407000000002 34.136799 7.223207000000002 34.125099000000006 L 12.336507000000001 34.125099000000006 L 12.336507000000001 32.851699 L 7.223207000000001 32.851699 C 4.676307000000001 32.836075 2.621607000000001 30.765799000000005 2.633407000000001 28.218899000000004 L 2.633407000000001 18.582199000000003 C 2.621689000000001 16.039199000000004 4.676407000000001 13.964999000000002 7.223207000000001 13.953299000000003 L 62.883207 13.953299000000003 C 65.43010699999999 13.965018000000002 67.484807 16.039199000000004 67.473007 18.582199000000003 L 67.473007 26.754099000000004 C 67.527695 26.754099000000004 67.57847699999999 26.750193000000003 67.633167 26.750193000000003 C 70.047267 26.754099000000004 72.340167 27.793193000000002 73.926167 29.609593000000004 C 75.195667 31.058793000000005 75.93786700000001 32.89479300000001 76.03166700000001 34.816593000000005 C 78.80506700000001 34.851749000000005 81.47306700000001 35.86739300000001 83.56686700000002 37.683793 C 85.80516700000001 39.613493 87.25826700000002 42.297093000000004 87.65276700000001 45.226793 C 93.27386700000001 46.168203 97.387167 51.039293 97.36756700000001 56.738793 z M 38.69500000000001 81.0359 C 38.683282000000005 80.43433999999999 38.31219000000001 79.89529999999999 37.74969000000001 79.6726 C 37.191100000000006 79.44994 36.55049000000001 79.586663 36.12859000000001 80.01635 C 35.70671000000001 80.44994 35.58171000000001 81.09055000000001 35.81609000000001 81.64915 C 36.05047000000001 82.20384 36.59734000000001 82.56321000000001 37.19889000000001 82.56321000000001 C 38.034830000000014 82.55149100000001 38.702790000000014 81.87180000000001 38.69499000000001 81.03591000000002 z M 69.668 81.90308999999999 C 69.656281 81.30152999999999 69.28128000000001 80.76638999999999 68.72269 80.54369 C 68.16019 80.32494 67.52349 80.457752 67.10159 80.89135 C 66.67972 81.32104 66.55472 81.96165 66.78909 82.51635 C 67.02347 83.07104 67.56643 83.43432 68.16799 83.43432 C 68.57033 83.430414 68.95315000000001 83.26635 69.23439 82.9812 C 69.51564 82.69214 69.67189 82.30542 69.66798 81.9031 z M 7.223000000000006 30.247089999999993 L 41.24600000000001 30.247089999999993 C 43.89050000000001 28.625989999999994 46.93350000000001 27.766589999999994 50.03900000000001 27.766589999999994 C 53.140600000000006 27.766589999999994 56.18740000000001 28.625969999999995 58.83200000000001 30.247089999999993 L 60.843700000000005 30.247089999999993 C 61.84760000000001 28.856489999999994 63.249900000000004 27.801789999999993 64.86710000000001 27.227589999999992 L 64.86710000000001 18.58308999999999 C 64.87881800000001 17.48148999999999 63.99210000000001 16.575289999999992 62.88660000000001 16.567489999999992 L 7.222600000000007 16.567489999999992 C 6.117100000000007 16.57920899999999 5.230400000000007 17.48154999999999 5.242100000000007 18.58308999999999 L 5.242100000000007 28.22368999999999 C 5.234287000000007 28.75493999999999 5.441320000000007 29.26668999999999 5.812410000000007 29.64558999999999 C 6.183500000000007 30.024499999999993 6.691320000000007 30.243249999999993 7.222610000000007 30.24714999999999 z M 37.539 33.30958999999999 C 37.67963 33.15333999999999 37.82416 33.00489999999999 37.96869 32.856469999999995 L 25.656690000000005 32.856469999999995 L 25.656690000000005 34.12987 L 36.84469000000001 34.12987 C 37.067350000000005 33.852529999999994 37.293910000000004 33.579089999999994 37.536100000000005 33.30956 z M 14.949000000000002 34.12989999999999 L 23.0545 34.12989999999999 L 23.0545 32.85649999999999 L 14.949000000000002 32.85649999999999 z M 25.953000000000003 50.42289999999999 C 27.5741 47.87599999999999 30.124900000000004 46.06739999999999 33.062400000000004 45.37599999999999 L 33.062400000000004 44.88380999999999 L 17.507400000000004 44.88771699999999 C 16.862870000000004 46.90721699999999 14.843300000000005 48.15721699999999 12.745700000000003 47.83301699999999 C 10.651900000000003 47.50489699999999 9.105100000000004 45.70021699999999 9.105100000000004 43.58301699999999 C 9.105100000000004 41.46191699999999 10.652000000000005 39.65721699999999 12.745700000000003 39.33301699999999 C 14.843400000000003 39.00489699999999 16.862900000000003 40.25489699999999 17.507400000000004 42.278316999999994 L 33.2614 42.278316999999994 C 33.562180000000005 40.340816999999994 34.19109 38.465816999999994 35.1169 36.739217 L 7.2219000000000015 36.739217 C 6.116400000000001 36.747029999999995 5.229700000000001 37.653276999999996 5.241400000000001 38.754816999999996 L 5.241400000000001 48.395416999999995 C 5.233587000000002 48.926666999999995 5.4367100000000015 49.438416999999994 5.807810000000002 49.821217 C 6.182810000000002 50.200126999999995 6.690620000000002 50.414967 7.221910000000001 50.422776999999996 z M 13.441000000000003 41.887699999999995 C 12.757410000000002 41.879887 12.136300000000002 42.28223 11.866800000000003 42.907199999999996 C 11.597270000000004 43.536109999999994 11.733990000000004 44.262699999999995 12.210550000000003 44.751 C 12.691020000000004 45.23928 13.413650000000004 45.391619999999996 14.046450000000004 45.13381 C 14.679260000000003 44.876 15.097250000000004 44.262719999999995 15.097250000000004 43.57911 C 15.101156000000005 43.1377 14.929280000000004 42.70802 14.620690000000005 42.39161 C 14.308190000000005 42.0752 13.886310000000005 41.89552 13.440990000000005 41.8877 z M 94.757 56.7397 C 94.780438 51.9858 91.10860000000001 48.0366 86.3703 47.7124 C 85.69842 47.673337000000004 85.1711 47.13427 85.1437 46.4624 C 85.03823 43.841300000000004 83.85069999999999 41.3843 81.8664 39.6694 C 79.925 37.985800000000005 77.3664 37.1967 74.8156 37.4936 C 74.41326000000001 37.536568 74.01482 37.395943 73.73360000000001 37.106880000000004 C 73.45235000000001 36.817820000000005 73.31954 36.415470000000006 73.37422000000001 36.01708000000001 C 73.60078000000001 34.325680000000006 73.08516 32.61478000000001 71.96402 31.329580000000007 C 70.55382 29.71628000000001 68.36242 29.017080000000007 66.28042 29.517080000000007 C 64.19452000000001 30.017080000000007 62.561620000000005 31.634280000000008 62.03822000000001 33.71238000000001 C 61.92103000000001 34.15769000000001 61.57338000000001 34.50925000000001 61.13197000000001 34.63425000000001 C 60.68666000000001 34.75925000000001 60.21010000000001 34.64206300000001 59.87417000000001 34.32175000000001 C 57.09687000000001 31.66555000000001 53.35857000000001 30.24365000000001 49.515170000000005 30.380350000000007 C 45.67137 30.520970000000005 42.04637 32.208450000000006 39.46417 35.060050000000004 C 36.69077 38.126450000000006 35.33527 42.21625 35.72977 46.33005 C 35.796176 47.03317 35.29227 47.66595 34.58917 47.74805 C 29.886070000000004 48.36524 26.456370000000003 52.51365 26.733670000000004 57.24805 C 27.010970000000004 61.98245 30.897770000000005 65.70115 35.63987 65.76755 L 85.83087 65.76755 C 90.78397000000001 65.728487 94.77617000000001 61.69335 94.75667 56.74025 z" stroke-linecap="round" />
</g>
</svg>