<?xml version="1.0" encoding="UTF-8" standalone="no" ?>
<!DOCTYPE svg PUBLIC "-//W3C//DTD SVG 1.1//EN" "http://www.w3.org/Graphics/SVG/1.1/DTD/svg11.dtd">
<svg xmlns="http://www.w3.org/2000/svg" xmlns:xlink="http://www.w3.org/1999/xlink" version="1.1" width="1080" height="1080" viewBox="0 0 1080 1080" xml:space="preserve">
<desc>Created with Fabric.js 5.2.4</desc>
<defs>
</defs>
<rect x="0" y="0" width="100%" height="100%" fill="transparent"></rect>
<g transform="matrix(1 0 0 1 540 540)" id="9a8e5f42-59d6-493e-b9e4-567b092875ce"  >
<rect style="stroke: none; stroke-width: 1; stroke-dasharray: none; stroke-linecap: butt; stroke-dashoffset: 0; stroke-linejoin: miter; stroke-miterlimit: 4; fill: rgb(255,255,255); fill-rule: nonzero; opacity: 1; visibility: hidden;" vector-effect="non-scaling-stroke"  x="-540" y="-540" rx="0" ry="0" width="1080" height="1080" />
</g>
<g transform="matrix(1 0 0 1 540 540)" id="bb92d8b0-b1c2-4058-9188-40f44d6aa9d6"  >
</g>
<g transform="matrix(7.8 0 0 7.8 540 540)"  >
<path style="stroke: none; stroke-width: 1; stroke-dasharray: none; stroke-linecap: butt; stroke-dashoffset: 0; stroke-linejoin: miter; stroke-miterlimit: 4; fill: rgb(0,0,0); fill-rule: nonzero; opacity: 1;" vector-effect="non-scaling-stroke"  transform=" translate(-50, -50)" d="M 9.9805 79.172 L 90.0155 79.172 C 91.83970000000001 79.172 93.3241 77.6876 93.3241 75.8634 L 93.3241 24.1334 C 93.3241 22.3092 91.83970000000001 20.824800000000003 90.0155 20.824800000000003 L 9.980500000000006 20.824800000000003 C 8.156300000000007 20.824800000000003 6.671900000000006 22.309200000000004 6.671900000000006 24.1334 L 6.671900000000006 75.8634 C 6.671900000000006 77.6876 8.156300000000005 79.172 9.980500000000006 79.172 z M 8.234399999999999 24.132999999999996 C 8.234399999999999 23.172059999999995 9.015649999999999 22.386899999999997 9.9805 22.386899999999997 L 90.0155 22.386899999999997 C 90.97644 22.386899999999997 91.7616 23.168149999999997 91.7616 24.132999999999996 L 91.7616 75.863 C 91.7616 76.82394 90.98035 77.6091 90.0155 77.6091 L 9.980500000000006 77.6091 C 9.019560000000006 77.6091 8.234400000000006 76.82785 8.234400000000006 75.863 z" stroke-linecap="round" />
</g>
<g transform="matrix(7.8 0 0 7.8 393.94 505.65)"  >
<path style="stroke: none; stroke-width: 1; stroke-dasharray: none; stroke-linecap: butt; stroke-dashoffset: 0; stroke-linejoin: miter; stroke-miterlimit: 4; fill: rgb(0,0,0); fill-rule: nonzero; opacity: 1;" vector-effect="non-scaling-stroke"  transform=" translate(-31.27, -45.59)" d="M 20.238 56.969 C 20.34347 57.07056 20.45284 57.17212 20.56222 57.269780000000004 C 20.62472 57.328374000000004 20.69113 57.386970000000005 20.75363 57.44556000000001 C 20.89816 57.574470000000005 21.04269 57.699470000000005 21.19113 57.82056000000001 C 21.198943 57.828373000000006 21.210662000000003 57.836186000000005 21.218474 57.843998000000006 C 22.777074 59.125198000000005 24.558274 60.090098000000005 26.472374000000002 60.695598000000004 C 26.491906000000004 60.703411 26.515343 60.707317 26.534874000000002 60.71513 C 26.737994 60.77763 26.941124000000002 60.84013 27.148154 60.89482 C 27.499714 60.98857 27.855184 61.070600000000006 28.214554000000003 61.140910000000005 C 28.320024000000004 61.160441000000006 28.425494000000004 61.183879000000005 28.534864000000002 61.203410000000005 C 28.659864000000002 61.22684700000001 28.784864000000002 61.242473000000004 28.909864000000002 61.262004000000005 C 29.054394000000002 61.285441000000006 29.195024000000004 61.304973000000004 29.339554000000003 61.32059700000001 C 29.452834000000003 61.332316000000006 29.562214000000004 61.347941000000006 29.675494000000004 61.359660000000005 C 29.847374000000006 61.375285000000005 30.019244000000004 61.390910000000005 30.191114000000002 61.402629000000005 C 30.280958000000002 61.410441000000006 30.374704 61.41434700000001 30.464554000000003 61.422160000000005 C 30.730174 61.433879000000005 30.995804000000003 61.44559700000001 31.265334000000003 61.44559700000001 C 31.534864000000002 61.44559700000001 31.800494000000004 61.437785000000005 32.066114000000006 61.422160000000005 C 32.155958000000005 61.418254000000005 32.24580400000001 61.410441000000006 32.33955400000001 61.402629000000005 C 32.51143400000001 61.390910000000005 32.68330400000001 61.379191000000006 32.855174000000005 61.359660000000005 C 32.96455400000001 61.347941000000006 33.077834 61.336223000000004 33.18720400000001 61.324504000000005 C 33.33564400000001 61.304973000000004 33.480174000000005 61.285441000000006 33.62470400000001 61.262004000000005 C 33.74579400000001 61.242473000000004 33.87079400000001 61.22684700000001 33.99189400000001 61.203410000000005 C 34.10908400000001 61.183879000000005 34.222364000000006 61.160441000000006 34.33955400000001 61.137004000000005 C 34.67158400000001 61.07059700000001 34.999714000000004 60.996384000000006 35.32783400000001 60.910444000000005 C 35.34736500000001 60.906538000000005 35.37080300000001 60.898726 35.39033400000001 60.894819000000005 C 35.58564400000001 60.840132000000004 35.78095400000001 60.785439000000004 35.97627400000001 60.722939000000004 C 36.00752400000001 60.711221 36.04268100000001 60.703408 36.07393100000001 60.691689000000004 C 37.96063100000001 60.094029000000006 39.71843100000001 59.140889 41.26143100000001 57.883089000000005 C 41.30049300000001 57.851839000000005 41.33565000000001 57.820589000000005 41.37471100000001 57.793246 C 41.49971100000001 57.68777600000001 41.62862100000001 57.582306 41.74971100000001 57.472936000000004 C 41.84736700000001 57.386999 41.94112100000001 57.301056 42.03487100000001 57.215126000000005 C 42.11690300000001 57.140907000000006 42.19503100000001 57.066686000000004 42.27706100000001 56.99246600000001 C 44.54656100000001 54.80496600000001 46.17936100000001 51.93776600000001 46.82006100000001 48.672166000000004 C 47.01928100000001 47.672166000000004 47.12084100000001 46.636966 47.12084100000001 45.594066000000005 C 47.12084100000001 36.855766 40.01144100000001 29.742066000000005 31.268841000000013 29.742066000000005 C 22.526641000000012 29.742066000000005 15.413841000000012 36.851466 15.413841000000012 45.594066000000005 C 15.413841000000012 46.637066000000004 15.515401000000011 47.672166000000004 15.714621000000012 48.672166000000004 C 16.35524100000001 51.926066000000006 17.98022100000001 54.789366 20.241921000000012 56.976866 z M 41.385999999999996 55.664300000000004 C 41.358655999999996 55.691644000000004 41.331312 55.718988 41.307874999999996 55.746332 C 41.178965 55.871332 41.050065 55.996332 40.917255 56.117422000000005 C 40.581315 56.42601200000001 40.233664999999995 56.718982000000004 39.870354999999996 56.992422000000005 C 39.866448999999996 56.992422000000005 39.862542 57.000234000000006 39.858636 57.000234000000006 C 38.268836 58.199434000000004 36.425036 59.06663400000001 34.436735999999996 59.51973400000001 C 34.413298 59.523641000000005 34.389860999999996 59.531453000000006 34.366423999999995 59.53535900000001 C 34.229704 59.56660900000001 34.092983999999994 59.590047000000006 33.956264 59.617391000000005 C 33.862514 59.636922000000006 33.768764 59.652547000000006 33.675014 59.668172000000006 C 33.557824 59.687703000000006 33.440633999999996 59.70723400000001 33.323454 59.72285900000001 C 33.202363999999996 59.73848400000001 33.085173999999995 59.75801500000001 32.964074 59.76973400000001 C 32.862514 59.781453000000006 32.75704399999999 59.793172000000006 32.655483999999994 59.804891000000005 C 32.50704399999999 59.82051500000001 32.362514 59.828328000000006 32.214074 59.840047000000006 C 32.132042 59.843953000000006 32.050014 59.85176500000001 31.967983999999998 59.855672000000006 C 31.733603999999996 59.867391000000005 31.503144 59.875203000000006 31.268763999999997 59.875203000000006 C 31.034383999999996 59.875203000000006 30.800013999999997 59.867391000000005 30.569543999999997 59.855672000000006 C 30.487512999999996 59.85176500000001 30.405483999999998 59.843953000000006 30.323453999999998 59.840047000000006 C 30.175013999999997 59.83223400000001 30.030483999999998 59.82051500000001 29.885953999999998 59.804891000000005 C 29.780483999999998 59.793172000000006 29.678924 59.781453000000006 29.573453999999998 59.76973400000001 C 29.456263999999997 59.75410900000001 29.339073999999997 59.73848400000001 29.217983999999998 59.72285900000001 C 29.096894 59.70723400000001 28.975793999999997 59.687703000000006 28.858603999999996 59.668172000000006 C 28.768759999999997 59.652547000000006 28.678913999999995 59.636922000000006 28.592983999999998 59.617391000000005 C 28.448453999999998 59.590047000000006 28.307823999999997 59.562703000000006 28.167203999999998 59.531453000000006 C 28.159391 59.531453000000006 28.151578999999998 59.527547000000006 28.13986 59.523641000000005 C 25.63206 58.95723100000001 23.35466 57.726741000000004 21.51486 56.01194100000001 C 21.425016 55.92991000000001 21.335169999999998 55.84788100000001 21.24924 55.76194100000001 C 21.198459 55.71506600000001 21.151584 55.66428400000001 21.10471 55.61350100000001 C 20.96799 55.47288100000001 20.83127 55.33225100000001 20.69846 55.187721 C 20.690647000000002 55.179909 20.682835 55.172096 20.675022000000002 55.164283000000005 L 23.792222000000002 49.703383 C 25.905522 51.414283000000005 28.526622000000003 52.343983 31.268822000000004 52.343983 C 34.011022000000004 52.343983 36.62432200000001 51.414293 38.741522 49.703383 L 41.858722 55.164283000000005 C 41.706382 55.332253 41.550132 55.49631300000001 41.389972 55.656473000000005 z M 31.264999999999993 31.301300000000005 C 39.143899999999995 31.301300000000005 45.553999999999995 37.7115 45.553999999999995 45.590300000000006 C 45.553999999999995 46.531710000000004 45.464155999999996 47.465300000000006 45.280559999999994 48.36370000000001 C 44.88211999999999 50.39490000000001 44.05396 52.25820000000001 42.909459999999996 53.86370000000001 L 39.63216 48.125400000000006 C 39.49154 47.883210000000005 39.19857 47.73087 38.91732 47.73087 C 38.7181 47.73087 38.5267 47.808995 38.38216 47.945710000000005 C 36.44466 49.777710000000006 33.92126 50.78551 31.26496 50.78551 C 28.60866 50.78551 26.081359999999997 49.77771 24.15166 47.945710000000005 C 24.00713 47.80899000000001 23.81572 47.73087 23.6126 47.73087 L 23.573538 47.73087 C 23.292288 47.73087 23.034478 47.879310000000004 22.893848 48.125400000000006 L 19.616547999999998 53.85980000000001 C 18.468148 52.250400000000006 17.643848 50.391000000000005 17.245447999999996 48.355900000000005 C 17.065757999999995 47.457460000000005 16.972007999999995 46.523900000000005 16.972007999999995 45.5825 C 16.972007999999995 37.7036 23.382207999999995 31.2935 31.265007999999995 31.2935 z" stroke-linecap="round" />
</g>
<g transform="matrix(7.8 0 0 7.8 393.9 465.38)"  >
<path style="stroke: none; stroke-width: 1; stroke-dasharray: none; stroke-linecap: butt; stroke-dashoffset: 0; stroke-linejoin: miter; stroke-miterlimit: 4; fill: rgb(0,0,0); fill-rule: nonzero; opacity: 1;" vector-effect="non-scaling-stroke"  transform=" translate(-31.26, -40.43)" d="M 31.262 46.191 C 34.4378 46.191 37.0237 43.6051 37.0237 40.429300000000005 C 37.0237 37.2535 34.437799999999996 34.66760000000001 31.261999999999997 34.66760000000001 C 28.086199999999998 34.66760000000001 25.500299999999996 37.25350000000001 25.500299999999996 40.429300000000005 C 25.500299999999996 43.60510000000001 28.086199999999995 46.191 31.261999999999997 46.191 z M 31.262 36.2301 C 33.5784 36.2301 35.4612 38.1129 35.4612 40.4293 C 35.4612 42.7457 33.578399999999995 44.628499999999995 31.261999999999997 44.628499999999995 C 28.9456 44.628499999999995 27.062799999999996 42.74569999999999 27.062799999999996 40.4293 C 27.062799999999996 38.112899999999996 28.945599999999995 36.2301 31.261999999999997 36.2301 z" stroke-linecap="round" />
</g>
<g transform="matrix(7.8 0 0 7.8 685.63 417.71)"  >
<path style="stroke: none; stroke-width: 1; stroke-dasharray: none; stroke-linecap: butt; stroke-dashoffset: 0; stroke-linejoin: miter; stroke-miterlimit: 4; fill: rgb(0,0,0); fill-rule: nonzero; opacity: 1;" vector-effect="non-scaling-stroke"  transform=" translate(-68.67, -34.32)" d="M 53.539 38.898 L 83.809 38.898 C 84.23868999999999 38.898 84.59025 38.546440000000004 84.59025 38.11675 L 84.59025 30.515150000000002 C 84.59025 30.08546 84.23868999999999 29.733900000000002 83.809 29.733900000000002 L 53.539 29.733900000000002 C 53.10931 29.733900000000002 52.75775 30.08546 52.75775 30.515150000000002 L 52.75775 38.11675 C 52.75775 38.546440000000004 53.10931 38.898 53.539 38.898 z M 54.32025 31.300300000000004 L 83.02725000000001 31.300300000000004 L 83.02725000000001 37.339400000000005 L 54.32025000000001 37.339400000000005 z" stroke-linecap="round" />
</g>
<g transform="matrix(7.8 0 0 7.8 685.63 504.22)"  >
<path style="stroke: none; stroke-width: 1; stroke-dasharray: none; stroke-linecap: butt; stroke-dashoffset: 0; stroke-linejoin: miter; stroke-miterlimit: 4; fill: rgb(0,0,0); fill-rule: nonzero; opacity: 1;" vector-effect="non-scaling-stroke"  transform=" translate(-68.67, -45.41)" d="M 53.539 46.191 L 83.809 46.191 C 84.23868999999999 46.191 84.59025 45.83944 84.59025 45.40975 C 84.59025 44.98006 84.23868999999999 44.6285 83.809 44.6285 L 53.539 44.6285 C 53.10931 44.6285 52.75775 44.98006 52.75775 45.40975 C 52.75775 45.83944 53.10931 46.191 53.539 46.191 z" stroke-linecap="round" />
</g>
<g transform="matrix(7.8 0 0 7.8 685.63 561.06)"  >
<path style="stroke: none; stroke-width: 1; stroke-dasharray: none; stroke-linecap: butt; stroke-dashoffset: 0; stroke-linejoin: miter; stroke-miterlimit: 4; fill: rgb(0,0,0); fill-rule: nonzero; opacity: 1;" vector-effect="non-scaling-stroke"  transform=" translate(-68.67, -52.7)" d="M 53.539 53.48 L 83.809 53.48 C 84.23868999999999 53.48 84.59025 53.12844 84.59025 52.69875 C 84.59025 52.269059999999996 84.23868999999999 51.9175 83.809 51.9175 L 53.539 51.9175 C 53.10931 51.9175 52.75775 52.269059999999996 52.75775 52.69875 C 52.75775 53.12844 53.10931 53.48 53.539 53.48 z" stroke-linecap="round" />
</g>
<g transform="matrix(7.8 0 0 7.8 685.63 617.93)"  >
<path style="stroke: none; stroke-width: 1; stroke-dasharray: none; stroke-linecap: butt; stroke-dashoffset: 0; stroke-linejoin: miter; stroke-miterlimit: 4; fill: rgb(0,0,0); fill-rule: nonzero; opacity: 1;" vector-effect="non-scaling-stroke"  transform=" translate(-68.67, -59.99)" d="M 53.539 60.773 L 83.809 60.773 C 84.23868999999999 60.773 84.59025 60.421440000000004 84.59025 59.99175 C 84.59025 59.56206 84.23868999999999 59.2105 83.809 59.2105 L 53.539 59.2105 C 53.10931 59.2105 52.75775 59.56206 52.75775 59.99175 C 52.75775 60.421440000000004 53.10931 60.773 53.539 60.773 z" stroke-linecap="round" />
</g>
<g transform="matrix(7.8 0 0 7.8 393.89 691.92)"  >
<path style="stroke: none; stroke-width: 1; stroke-dasharray: none; stroke-linecap: butt; stroke-dashoffset: 0; stroke-linejoin: miter; stroke-miterlimit: 4; fill: rgb(0,0,0); fill-rule: nonzero; opacity: 1;" vector-effect="non-scaling-stroke"  transform=" translate(-31.26, -69.48)" d="M 44.805 68.699 L 17.719 68.699 C 17.28931 68.699 16.93775 69.05056 16.93775 69.48025 C 16.93775 69.90993999999999 17.28931 70.2615 17.719 70.2615 L 44.801 70.2615 C 45.23069 70.2615 45.58225 69.90993999999999 45.58225 69.48025 C 45.58225 69.05056 45.23069 68.699 44.801 68.699 z" stroke-linecap="round" />
</g>
<g transform="matrix(7.8 0 0 7.8 664.66 691.92)"  >
<path style="stroke: none; stroke-width: 1; stroke-dasharray: none; stroke-linecap: butt; stroke-dashoffset: 0; stroke-linejoin: miter; stroke-miterlimit: 4; fill: rgb(0,0,0); fill-rule: nonzero; opacity: 1;" vector-effect="non-scaling-stroke"  transform=" translate(-65.98, -69.48)" d="M 53.539 70.262 L 78.43 70.262 C 78.85969 70.262 79.21125 69.91044 79.21125 69.48075 C 79.21125 69.05106 78.85969 68.6995 78.43 68.6995 L 53.53900000000001 68.6995 C 53.10931000000001 68.6995 52.75775000000001 69.05106 52.75775000000001 69.48075 C 52.75775000000001 69.91044 53.10931000000001 70.262 53.53900000000001 70.262 z" stroke-linecap="round" />
</g>
</svg>