<svg xmlns="http://www.w3.org/2000/svg" xmlns:xlink="http://www.w3.org/1999/xlink" version="1.1" x="0px" y="0px" viewBox="0 0 100 125" style="enable-background:new 0 0 100 100;" xml:space="preserve"><path d="M84,29h-4V17c0-3.309-2.691-6-6-6H16c-3.309,0-6,2.691-6,6v52c0,3.309,2.691,6,6,6h4v8c0,3.309,2.691,6,6,6h58  c3.309,0,6-2.691,6-6V35C90,31.691,87.309,29,84,29z M16,71c-1.103,0-2-0.897-2-2V23h12c0.552,0,1-0.448,1-1s-0.448-1-1-1H14v-4  c0-1.103,0.897-2,2-2h58c1.103,0,2,0.897,2,2v4H34c-0.552,0-1,0.448-1,1s0.448,1,1,1h42v6H26c-3.309,0-6,2.691-6,6v36H16z M86,83  c0,1.103-0.897,2-2,2H26c-1.103,0-2-0.897-2-2V41h12c0.552,0,1-0.448,1-1s-0.448-1-1-1H24v-4c0-1.103,0.897-2,2-2h58  c1.103,0,2,0.897,2,2v4H44c-0.552,0-1,0.448-1,1s0.448,1,1,1h42V83z M82,36c0-0.552,0.448-1,1-1s1,0.448,1,1c0,0.552-0.448,1-1,1  S82,36.552,82,36z M78,36c0-0.552,0.448-1,1-1s1,0.448,1,1c0,0.552-0.448,1-1,1S78,36.552,78,36z M74,36c0-0.552,0.448-1,1-1  s1,0.448,1,1c0,0.552-0.448,1-1,1S74,36.552,74,36z M39,40c0-0.552,0.448-1,1-1s1,0.448,1,1c0,0.552-0.448,1-1,1S39,40.552,39,40z   M28,46v16c0,0.552,0.448,1,1,1h20c0.552,0,1-0.448,1-1V46c0-0.552-0.448-1-1-1H29C28.448,45,28,45.448,28,46z M30,47h18v14H30V47z   M55,81h26c0.552,0,1-0.448,1-1V68c0-0.552-0.448-1-1-1H55c-0.552,0-1,0.448-1,1v12C54,80.552,54.448,81,55,81z M56,69h24v10H56V69z   M82,50c0,0.552-0.448,1-1,1h-5c-0.552,0-1-0.448-1-1s0.448-1,1-1h5C81.552,49,82,49.448,82,50z M54,58c0-0.552,0.448-1,1-1h5  c0.552,0,1,0.448,1,1s-0.448,1-1,1h-5C54.448,59,54,58.552,54,58z M62,46c0-0.552,0.448-1,1-1h18c0.552,0,1,0.448,1,1s-0.448,1-1,1  H63C62.448,47,62,46.552,62,46z M54,50c0-0.552,0.448-1,1-1h13c0.552,0,1,0.448,1,1s-0.448,1-1,1H55C54.448,51,54,50.552,54,50z   M54,54c0-0.552,0.448-1,1-1h26c0.552,0,1,0.448,1,1s-0.448,1-1,1H55C54.448,55,54,54.552,54,54z M82,58c0,0.552-0.448,1-1,1H68  c-0.552,0-1-0.448-1-1s0.448-1,1-1h13C81.552,57,82,57.448,82,58z M54,62c0-0.552,0.448-1,1-1h18c0.552,0,1,0.448,1,1s-0.448,1-1,1  H55C54.448,63,54,62.552,54,62z M64,57c0.552,0,1,0.448,1,1c0,0.552-0.448,1-1,1s-1-0.448-1-1C63,57.448,63.448,57,64,57z M72,49  c0.552,0,1,0.448,1,1c0,0.552-0.448,1-1,1s-1-0.448-1-1C71,49.448,71.448,49,72,49z M50,72c0,0.552-0.448,1-1,1h-5  c-0.552,0-1-0.448-1-1s0.448-1,1-1h5C49.552,71,50,71.448,50,72z M50,68c0,0.552-0.448,1-1,1H37c-0.552,0-1-0.448-1-1s0.448-1,1-1  h12C49.552,67,50,67.448,50,68z M28,72c0-0.552,0.448-1,1-1h7c0.552,0,1,0.448,1,1s-0.448,1-1,1h-7C28.448,73,28,72.552,28,72z   M50,76c0,0.552-0.448,1-1,1H29c-0.552,0-1-0.448-1-1s0.448-1,1-1h20C49.552,75,50,75.448,50,76z M42,80c0,0.552-0.448,1-1,1H29  c-0.552,0-1-0.448-1-1s0.448-1,1-1h12C41.552,79,42,79.448,42,80z M40,73c-0.552,0-1-0.448-1-1c0-0.552,0.448-1,1-1s1,0.448,1,1  C41,72.552,40.552,73,40,73z M72,18c0-0.552,0.448-1,1-1s1,0.448,1,1c0,0.552-0.448,1-1,1S72,18.552,72,18z M68,18  c0-0.552,0.448-1,1-1s1,0.448,1,1c0,0.552-0.448,1-1,1S68,18.552,68,18z M64,18c0-0.552,0.448-1,1-1s1,0.448,1,1  c0,0.552-0.448,1-1,1S64,18.552,64,18z M29,22c0-0.552,0.448-1,1-1s1,0.448,1,1c0,0.552-0.448,1-1,1S29,22.552,29,22z"/><text x="0" y="115" fill="#000000" font-size="5px" font-weight="bold" font-family="'Helvetica Neue', Helvetica, Arial-Unicode, Arial, Sans-serif">Created by Setyo Ari Wibowo</text><text x="0" y="120" fill="#000000" font-size="5px" font-weight="bold" font-family="'Helvetica Neue', Helvetica, Arial-Unicode, Arial, Sans-serif">from the Noun Project</text></svg>