<svg xmlns="http://www.w3.org/2000/svg" xmlns:xlink="http://www.w3.org/1999/xlink" version="1.1" x="0px" y="0px" viewBox="0 0 100 125" style="enable-background:new 0 0 100 100;" xml:space="preserve"><path d="M85,27.5c0-1.4-1.1-2.5-2.5-2.5H75v-7.5c0-1.4-1.1-2.5-2.5-2.5H65V7.5C65,6.1,63.9,5,62.5,5h-45C16.1,5,15,6.1,15,7.5v60  c0,1.4,1.1,2.5,2.5,2.5H25v7.5c0,1.4,1.1,2.5,2.5,2.5H35v7.5c0,1.4,1.1,2.5,2.5,2.5h45c1.4,0,2.5-1.1,2.5-2.5V27.5z M20,65V10h40v55  H20z M30,75v-5h32.5c1.4,0,2.5-1.1,2.5-2.5V20h5v55H30z M80,85H40v-5h32.5c1.4,0,2.5-1.1,2.5-2.5V30h5V85z"/><text x="0" y="115" fill="#000000" font-size="5px" font-weight="bold" font-family="'Helvetica Neue', Helvetica, Arial-Unicode, Arial, Sans-serif">Created by Arthur Shlain</text><text x="0" y="120" fill="#000000" font-size="5px" font-weight="bold" font-family="'Helvetica Neue', Helvetica, Arial-Unicode, Arial, Sans-serif">from the Noun Project</text></svg>