<svg xmlns="http://www.w3.org/2000/svg" version="1.1" viewBox="-5.0 -10.0 110.0 135.0">
 <path d="m96.875 17.188h-93.75c-1.7266 0-3.125 1.3984-3.125 3.125v4.6875c0 0.41406 0.16406 0.8125 0.45703 1.1055s0.69141 0.45703 1.1055 0.45703c2.5898 0 4.6875 2.0977 4.6875 4.6875s-2.0977 4.6875-4.6875 4.6875c-0.86328 0-1.5625 0.69922-1.5625 1.5625v6.25c0 0.41406 0.16406 0.8125 0.45703 1.1055s0.69141 0.45703 1.1055 0.45703c2.5898 0 4.6875 2.0977 4.6875 4.6875s-2.0977 4.6875-4.6875 4.6875c-0.86328 0-1.5625 0.69922-1.5625 1.5625v6.25c0 0.41406 0.16406 0.8125 0.45703 1.1055s0.69141 0.45703 1.1055 0.45703c2.5898 0 4.6875 2.0977 4.6875 4.6875s-2.0977 4.6875-4.6875 4.6875c-0.86328 0-1.5625 0.69922-1.5625 1.5625v4.6875c0 0.82812 0.32812 1.625 0.91406 2.2109 0.58594 0.58594 1.3828 0.91406 2.2109 0.91406h93.75c0.82812 0 1.625-0.32812 2.2109-0.91406 0.58594-0.58594 0.91406-1.3828 0.91406-2.2109v-4.6875c0-0.41406-0.16406-0.8125-0.45703-1.1055s-0.69141-0.45703-1.1055-0.45703c-2.5898 0-4.6875-2.0977-4.6875-4.6875s2.0977-4.6875 4.6875-4.6875c0.41406 0 0.8125-0.16406 1.1055-0.45703s0.45703-0.69141 0.45703-1.1055v-6.25c0-0.41406-0.16406-0.8125-0.45703-1.1055s-0.69141-0.45703-1.1055-0.45703c-2.5898 0-4.6875-2.0977-4.6875-4.6875s2.0977-4.6875 4.6875-4.6875c0.41406 0 0.8125-0.16406 1.1055-0.45703s0.45703-0.69141 0.45703-1.1055v-6.25c0-0.41406-0.16406-0.8125-0.45703-1.1055s-0.69141-0.45703-1.1055-0.45703c-2.5898 0-4.6875-2.0977-4.6875-4.6875s2.0977-4.6875 4.6875-4.6875c0.41406 0 0.8125-0.16406 1.1055-0.45703s0.45703-0.69141 0.45703-1.1055v-4.6875c0-0.82812-0.32812-1.625-0.91406-2.2109-0.58594-0.58594-1.3828-0.91406-2.2109-0.91406zm0 6.4062c-3.6406 0.73828-6.2578 3.9414-6.2578 7.6562s2.6172 6.918 6.2578 7.6562v3.4375c-3.6406 0.73828-6.2578 3.9414-6.2578 7.6562s2.6172 6.918 6.2578 7.6562v3.4375c-3.6406 0.73828-6.2578 3.9414-6.2578 7.6562s2.6172 6.918 6.2578 7.6562v3.2812h-21.328c-0.28516-0.46094-0.78906-0.73828-1.3281-0.73828s-1.043 0.27734-1.3281 0.73828h-69.766v-3.2812c3.6406-0.73828 6.2578-3.9414 6.2578-7.6562s-2.6172-6.918-6.2578-7.6562v-3.4375c3.6406-0.73828 6.2578-3.9414 6.2578-7.6562s-2.6172-6.918-6.2578-7.6562v-3.4375c3.6406-0.73828 6.2578-3.9414 6.2578-7.6562s-2.6172-6.918-6.2578-7.6562v-3.2812h69.766c0.28516 0.46094 0.78906 0.73828 1.3281 0.73828s1.043-0.27734 1.3281-0.73828h21.328z"/>
 <path d="m74.219 32.031c-0.86328 0-1.5625 0.69922-1.5625 1.5625v1.5625c0 0.86328 0.69922 1.5625 1.5625 1.5625s1.5625-0.69922 1.5625-1.5625v-1.5625c0-0.41406-0.16406-0.8125-0.45703-1.1055s-0.69141-0.45703-1.1055-0.45703z"/>
 <path d="m74.219 71.094c-0.86328 0-1.5625 0.69922-1.5625 1.5625v1.5625c0 0.86328 0.69922 1.5625 1.5625 1.5625s1.5625-0.69922 1.5625-1.5625v-1.5625c0-0.41406-0.16406-0.8125-0.45703-1.1055s-0.69141-0.45703-1.1055-0.45703z"/>
 <path d="m74.219 39.844c-0.86328 0-1.5625 0.69922-1.5625 1.5625v1.5625c0 0.86328 0.69922 1.5625 1.5625 1.5625s1.5625-0.69922 1.5625-1.5625v-1.5625c0-0.41406-0.16406-0.8125-0.45703-1.1055s-0.69141-0.45703-1.1055-0.45703z"/>
 <path d="m74.219 47.656c-0.86328 0-1.5625 0.69922-1.5625 1.5625v1.5625c0 0.86328 0.69922 1.5625 1.5625 1.5625s1.5625-0.69922 1.5625-1.5625v-1.5625c0-0.41406-0.16406-0.8125-0.45703-1.1055s-0.69141-0.45703-1.1055-0.45703z"/>
 <path d="m74.219 24.219c-0.86328 0-1.5625 0.69922-1.5625 1.5625v1.5625c0 0.86328 0.69922 1.5625 1.5625 1.5625s1.5625-0.69922 1.5625-1.5625v-1.5625c0-0.41406-0.16406-0.8125-0.45703-1.1055s-0.69141-0.45703-1.1055-0.45703z"/>
 <path d="m74.219 55.469c-0.86328 0-1.5625 0.69922-1.5625 1.5625v1.5625c0 0.86328 0.69922 1.5625 1.5625 1.5625s1.5625-0.69922 1.5625-1.5625v-1.5625c0-0.41406-0.16406-0.8125-0.45703-1.1055s-0.69141-0.45703-1.1055-0.45703z"/>
 <path d="m74.219 63.281c-0.86328 0-1.5625 0.69922-1.5625 1.5625v1.5625c0 0.86328 0.69922 1.5625 1.5625 1.5625s1.5625-0.69922 1.5625-1.5625v-1.5625c0-0.41406-0.16406-0.8125-0.45703-1.1055s-0.69141-0.45703-1.1055-0.45703z"/>
 <path d="m39.844 46.094h3.125c0.86328 0 1.5625-0.69922 1.5625-1.5625s-0.69922-1.5625-1.5625-1.5625h-3.125c-0.86328 0-1.5625 0.69922-1.5625 1.5625s0.69922 1.5625 1.5625 1.5625z"/>
 <path d="m39.844 50.781h3.125c0.86328 0 1.5625-0.69922 1.5625-1.5625s-0.69922-1.5625-1.5625-1.5625h-3.125c-0.86328 0-1.5625 0.69922-1.5625 1.5625s0.69922 1.5625 1.5625 1.5625z"/>
 <path d="m36.719 46.875c0 2.082-3.125 2.082-3.125 0s3.125-2.082 3.125 0"/>
 <path d="m49.375 46.875c0 2.082-3.125 2.082-3.125 0s3.125-2.082 3.125 0"/>
 <path d="m52.656 54.766c0.80859-0.87109 1.2539-2.0156 1.25-3.2031v-17.188c0-2.5898-2.0977-4.6875-4.6875-4.6875h-15.625c-2.5898 0-4.6875 2.0977-4.6875 4.6875v17.188c-0.003906 1.1875 0.44141 2.332 1.25 3.2031l-7.2656 13.203c-0.40625 0.75391-0.125 1.6953 0.625 2.1094l0.78125 0.23438c0.57812 0.019531 1.1172-0.28125 1.4062-0.78125l0.46875-0.78125h30.625l0.46875 0.78125c0.27344 0.47656 0.77734 0.77344 1.3281 0.78125l0.78125-0.23438c0.75-0.41406 1.0312-1.3555 0.625-2.1094zm-1.875-13.359v10.156c0 0.41406-0.16406 0.8125-0.45703 1.1055s-0.69141 0.45703-1.1055 0.45703h-15.625c-0.86328 0-1.5625-0.69922-1.5625-1.5625v-10.156zm-17.188 14.844h16.25l1.7188 3.125h-20.312l1.7969-3.2031zm17.188-21.875v3.9062h-7.8125v-5.4688h6.25c0.41406 0 0.8125 0.16406 1.1055 0.45703s0.45703 0.69141 0.45703 1.1055zm-17.188-1.5625h6.25v5.4688h-7.8125v-3.9062c0-0.86328 0.69922-1.5625 1.5625-1.5625zm-5.8594 32.812 1.7188-3.125h23.906l1.7188 3.125z"/>
<text x="0.0" y="117.5" font-size="5.0" font-weight="bold" font-family="Arbeit Regular, Helvetica, Arial-Unicode, Arial, Sans-serif" fill="#000000">Created by Creative Mahira</text><text x="0.0" y="122.5" font-size="5.0" font-weight="bold" font-family="Arbeit Regular, Helvetica, Arial-Unicode, Arial, Sans-serif" fill="#000000">from Noun Project</text></svg>