<svg xmlns="http://www.w3.org/2000/svg" version="1.1" viewBox="-5.0 -10.0 110.0 135.0">
 <path d="m22.629 37.129c-0.54297 0-1.0703-0.3125-1.3008-0.84375l-2.1445-4.7852c-1.5156-3.3711-4.8711-5.5586-8.5703-5.5586h-7.8711c-0.78516 0-1.4297-0.64453-1.4297-1.4297 0-0.78516 0.64453-1.4297 1.4297-1.4297h7.8711c4.8281 0 9.2148 2.8438 11.172 7.2422l2.1445 4.7852c0.32812 0.71484 0 1.5703-0.71484 1.8867-0.1875 0.085937-0.38672 0.12891-0.58594 0.12891z"/>
 <path d="m86.93 73.242h-43.5c-3.3711 0-6.4414-1.9844-7.8281-5.0703l-14.285-31.887c-0.19922-0.44141-0.15625-0.95703 0.10156-1.3555 0.25781-0.39844 0.71484-0.65625 1.1992-0.65625h10.613c0.78516 0 1.4297 0.64453 1.4297 1.4297s-0.64453 1.4297-1.4297 1.4297h-8.4141l13.387 29.887c0.91406 2.0586 2.9727 3.3867 5.2148 3.3867h43.5c1.4414 0 2.6992-1.0156 3-2.4297l5.8281-27.102c0.19922-0.91406-0.027344-1.8555-0.61328-2.5859-0.58594-0.73047-1.457-1.1445-2.3984-1.1445h-6.1016c-0.78516 0-1.4297-0.64453-1.4297-1.4297s0.64453-1.4297 1.4297-1.4297h6.1016c1.8008 0 3.4844 0.80078 4.6133 2.1992s1.5703 3.2148 1.1875 4.9844l-5.8281 27.102c-0.58594 2.7148-3.0156 4.6875-5.8008 4.6875z"/>
 <path d="m49.871 92.543c-3.6992 0-6.7148-3.0156-6.7148-6.7305s3.0156-6.7148 6.7148-6.7148c3.6992 0 6.7305 3.0156 6.7305 6.7148s-3.0156 6.7305-6.7305 6.7305zm0-10.586c-2.1289 0-3.8555 1.7305-3.8555 3.8555 0 2.1289 1.7305 3.8711 3.8555 3.8711 2.1289 0 3.8711-1.7305 3.8711-3.8711 0-2.1445-1.7305-3.8555-3.8711-3.8555z"/>
 <path d="m78.156 92.543c-3.6992 0-6.7148-3.0156-6.7148-6.7305s3.0156-6.7148 6.7148-6.7148 6.7305 3.0156 6.7305 6.7148-3.0156 6.7305-6.7305 6.7305zm0-10.586c-2.1289 0-3.8555 1.7305-3.8555 3.8555 0 2.1289 1.7305 3.8711 3.8555 3.8711 2.1289 0 3.8711-1.7305 3.8711-3.8711 0-2.1445-1.7305-3.8555-3.8711-3.8555z"/>
 <path d="m59.941 53.344c-12.656 0-22.941-10.285-22.941-22.941s10.301-22.941 22.941-22.941c12.645 0 22.941 10.301 22.941 22.941 0 12.645-10.285 22.941-22.941 22.941zm0-43.027c-11.07 0-20.086 9.0156-20.086 20.086 0 11.07 9.0156 20.086 20.086 20.086 11.07 0 20.086-9.0156 20.086-20.086 0-11.07-9.0156-20.086-20.086-20.086z"/>
 <path d="m59.941 53.344c-7.0156 0-12.5-10.07-12.5-22.941s5.4844-22.941 12.5-22.941 12.5 10.07 12.5 22.941-5.4844 22.941-12.5 22.941zm0-43.027c-5.2305 0-9.6445 9.1992-9.6445 20.086 0 10.887 4.4141 20.086 9.6445 20.086 5.2305 0 9.6445-9.1992 9.6445-20.086 0-10.887-4.4141-20.086-9.6445-20.086z"/>
 <path d="m79.898 25.07h-39.93c-0.78516 0-1.4297-0.64453-1.4297-1.4297s0.64453-1.4297 1.4297-1.4297h39.93c0.78516 0 1.4297 0.64453 1.4297 1.4297s-0.64453 1.4297-1.4297 1.4297z"/>
 <path d="m79.898 38.57h-39.93c-0.78516 0-1.4297-0.64453-1.4297-1.4297s0.64453-1.4297 1.4297-1.4297h39.93c0.78516 0 1.4297 0.64453 1.4297 1.4297s-0.64453 1.4297-1.4297 1.4297z"/>
 <path d="m59.941 53.344c-0.78516 0-1.4297-0.64453-1.4297-1.4297l0.003906-43.027c0-0.78516 0.64453-1.4297 1.4297-1.4297 0.78516 0 1.4297 0.64453 1.4297 1.4297v43.027c0 0.78516-0.64453 1.4297-1.4297 1.4297z"/>
<text x="0.0" y="117.5" font-size="5.0" font-weight="bold" font-family="Arbeit Regular, Helvetica, Arial-Unicode, Arial, Sans-serif" fill="#000000">Created by trimenz</text><text x="0.0" y="122.5" font-size="5.0" font-weight="bold" font-family="Arbeit Regular, Helvetica, Arial-Unicode, Arial, Sans-serif" fill="#000000">from Noun Project</text></svg>