<svg xmlns="http://www.w3.org/2000/svg" version="1.1" viewBox="-5.0 -10.0 110.0 135.0">
 <path d="m72.797 69.227-4.5625-1.0391c-0.42578-0.097656-0.76562-0.42188-0.88281-0.84375-0.39844-1.4492-0.98047-2.8516-1.7305-4.1641-0.21875-0.38281-0.20703-0.85156 0.027344-1.2227l2.4922-3.9648c0.14062-0.22656 0.57422-0.99609 0.16406-1.4062l-2.9609-2.9609c-0.40625-0.40625-1.1797 0.023438-1.4062 0.16797l-3.9648 2.4922c-0.37109 0.23438-0.83984 0.24219-1.2227 0.027344-1.3008-0.73828-2.7031-1.3203-4.1641-1.7227-0.42188-0.11719-0.74609-0.45703-0.84375-0.88281l-1.0391-4.5664c-0.058594-0.26172-0.29688-1.1133-0.87891-1.1133h-4.1836c-0.57422 0-0.81641 0.85547-0.87891 1.1172l-1.0312 4.5625c-0.097657 0.42969-0.42188 0.76953-0.84375 0.88672-1.4648 0.40234-2.8633 0.98438-4.1641 1.7227-0.38281 0.21875-0.85156 0.20703-1.2227-0.027344l-3.9648-2.4922c-0.22656-0.14062-0.99609-0.57422-1.4062-0.16406l-2.9609 2.9609c-0.41016 0.41016 0.023437 1.1758 0.16406 1.4023l2.4961 3.9688c0.23438 0.37109 0.24219 0.84375 0.027344 1.2227-0.74609 1.3125-1.3281 2.7148-1.7305 4.1641-0.11719 0.42188-0.45703 0.74609-0.88281 0.84375l-4.5625 1.0391c-0.33594 0.074219-1.1133 0.3125-1.1133 0.87891v4.1836c0 0.56641 0.77734 0.80078 1.1094 0.87891l4.5625 1.0391c0.42578 0.097656 0.76562 0.42188 0.88281 0.84375 0.39844 1.4492 0.98047 2.8516 1.7305 4.1641 0.21875 0.38281 0.20703 0.85156-0.027343 1.2227l-2.4922 3.9609c-0.14453 0.22656-0.57812 0.99609-0.16406 1.4102l2.9609 2.9531c0.39844 0.40234 1.1133 0.019531 1.4023-0.16406l3.9688-2.4961c0.19141-0.12109 0.41406-0.18359 0.63281-0.18359 0.20313 0 0.40625 0.050781 0.58984 0.15625 1.3125 0.74609 2.7148 1.3281 4.1641 1.7305 0.42188 0.11719 0.74609 0.45703 0.84375 0.88672l1.0352 4.5664c0.058594 0.25781 0.30078 1.1094 0.87891 1.1094h4.1836c0.57812 0 0.82031-0.85156 0.87891-1.1133l1.0391-4.5664c0.097656-0.42969 0.42188-0.76562 0.84375-0.88281 1.4688-0.40625 2.8672-0.98828 4.1602-1.7266 0.38281-0.21875 0.85156-0.21094 1.2266 0.023437l3.9648 2.4922c0.29297 0.18359 1.0078 0.56641 1.4023 0.16797l2.9648-2.9609c0.41016-0.41016-0.023438-1.1836-0.16797-1.4102l-2.4922-3.957c-0.23438-0.37109-0.24609-0.84375-0.027344-1.2227 0.75-1.3164 1.3281-2.7188 1.7227-4.1602 0.11719-0.42578 0.45703-0.75 0.88672-0.84766l4.5664-1.0391c0.33594-0.074219 1.1133-0.3125 1.1133-0.87891v-4.1836c0-0.56641-0.77734-0.80078-1.1094-0.87891zm-14.141 11.887c-2.3828 2.3867-5.5508 3.6992-8.9219 3.6992s-6.5391-1.3125-8.9219-3.6992c-4.9141-4.9141-4.9141-12.918 0-17.84 2.3828-2.3828 5.5508-3.6953 8.9219-3.6953s6.5391 1.3125 8.9219 3.6953c4.9141 4.9219 4.9141 12.926 0 17.84zm-27.219 0.64844-2.1211 3.3672c-0.125 0.19531-0.23438 0.39453-0.32422 0.59375l-24.449 8.8086 11.254-31.23 7.3906 7.3906v3.5977c0 1.5625 1.1367 2.7891 2.9648 3.1992l3.8828 0.88281c0.36719 1.168 0.83984 2.3008 1.4062 3.3867zm25.535-16.805c3.9883 3.9922 3.9883 10.484 0 14.473-1.9336 1.9336-4.5039 3-7.2344 3-2.7344 0-5.3047-1.0664-7.2344-3-3.9883-3.9883-3.9883-10.48 0-14.473 1.9336-1.9336 4.5039-2.9961 7.2344-2.9961 2.7344 0 5.3047 1.0625 7.2344 2.9961zm34.152-36.055-3.8086 3.8086-20.953-20.953 3.8086-3.8086c2.7852-2.7852 6.5078-4.3203 10.477-4.3203 3.9727 0 7.6914 1.5352 10.477 4.3203 5.7773 5.7773 5.7773 15.176 0 20.953zm-37.109-4.7969 20.953 20.953-7.4102 7.4102-0.52734-0.52734c-1.0977-1.0977-2.7695-1.1641-4.3594-0.16406l-3.375 2.1211c-1.0781-0.56641-2.2148-1.0352-3.3906-1.4023l-0.88281-3.8867c-0.41406-1.8281-1.6406-2.9648-3.1992-2.9648h-4.1836c-1.5508 0-2.7773 1.1367-3.1992 2.9688l-0.87891 3.8867c-1.1758 0.36719-2.3086 0.83594-3.3867 1.4023l-3.375-2.1211c-1.5898-0.99609-3.2578-0.93359-4.3555 0.16797l-2.9609 2.9609c-1.1055 1.1055-1.168 2.7773-0.16406 4.3594l2.1211 3.375c-0.57031 1.0859-1.0391 2.2227-1.4062 3.3906l-3.8789 0.88281c-0.92969 0.21094-1.6797 0.62891-2.1914 1.1953l-6.9688-6.9688 37.023-37.039zm10.66-10.66 20.953 20.953-8.9766 8.9766-20.953-20.953z"/>
<text x="0.0" y="117.5" font-size="5.0" font-weight="bold" font-family="Arbeit Regular, Helvetica, Arial-Unicode, Arial, Sans-serif" fill="#000000">Created by Mas Art</text><text x="0.0" y="122.5" font-size="5.0" font-weight="bold" font-family="Arbeit Regular, Helvetica, Arial-Unicode, Arial, Sans-serif" fill="#000000">from Noun Project</text></svg>