<svg xmlns="http://www.w3.org/2000/svg" version="1.1" viewBox="-5.0 -10.0 110.0 135.0">
 <path d="m9.9805 79.172h80.035c1.8242 0 3.3086-1.4844 3.3086-3.3086v-51.73c0-1.8242-1.4844-3.3086-3.3086-3.3086h-80.035c-1.8242 0-3.3086 1.4844-3.3086 3.3086v51.73c0 1.8242 1.4844 3.3086 3.3086 3.3086zm-1.7461-55.039c0-0.96094 0.78125-1.7461 1.7461-1.7461h80.035c0.96094 0 1.7461 0.78125 1.7461 1.7461v51.73c0 0.96094-0.78125 1.7461-1.7461 1.7461h-80.035c-0.96094 0-1.7461-0.78125-1.7461-1.7461z"/>
 <path d="m20.238 56.969c0.10547 0.10156 0.21484 0.20312 0.32422 0.30078 0.0625 0.058594 0.12891 0.11719 0.19141 0.17578 0.14453 0.12891 0.28906 0.25391 0.4375 0.375 0.007813 0.007813 0.019532 0.015626 0.027344 0.023438 1.5586 1.2812 3.3398 2.2461 5.2539 2.8516 0.019532 0.007813 0.042969 0.011719 0.0625 0.019532 0.20312 0.0625 0.40625 0.125 0.61328 0.17969 0.35156 0.09375 0.70703 0.17578 1.0664 0.24609 0.10547 0.019531 0.21094 0.042969 0.32031 0.0625 0.125 0.023437 0.25 0.039063 0.375 0.058594 0.14453 0.023437 0.28516 0.042969 0.42969 0.058593 0.11328 0.011719 0.22266 0.027344 0.33594 0.039063 0.17188 0.015625 0.34375 0.03125 0.51562 0.042969 0.089844 0.007812 0.18359 0.011718 0.27344 0.019531 0.26562 0.011719 0.53125 0.023437 0.80078 0.023437s0.53516-0.007812 0.80078-0.023437c0.089844-0.003906 0.17969-0.011719 0.27344-0.019531 0.17188-0.011719 0.34375-0.023438 0.51562-0.042969 0.10938-0.011719 0.22266-0.023437 0.33203-0.035156 0.14844-0.019531 0.29297-0.039063 0.4375-0.0625 0.12109-0.019531 0.24609-0.035157 0.36719-0.058594 0.11719-0.019531 0.23047-0.042969 0.34766-0.066406 0.33203-0.066407 0.66016-0.14062 0.98828-0.22656 0.019531-0.003906 0.042969-0.011718 0.0625-0.015625 0.19531-0.054687 0.39062-0.10938 0.58594-0.17188 0.03125-0.011718 0.066407-0.019531 0.097657-0.03125 1.8867-0.59766 3.6445-1.5508 5.1875-2.8086 0.039062-0.03125 0.074219-0.0625 0.11328-0.089843 0.125-0.10547 0.25391-0.21094 0.375-0.32031 0.097656-0.085937 0.19141-0.17188 0.28516-0.25781 0.082032-0.074219 0.16016-0.14844 0.24219-0.22266 2.2695-2.1875 3.9023-5.0547 4.543-8.3203 0.19922-1 0.30078-2.0352 0.30078-3.0781 0-8.7383-7.1094-15.852-15.852-15.852-8.7422 0-15.855 7.1094-15.855 15.852 0 1.043 0.10156 2.0781 0.30078 3.0781 0.64062 3.2539 2.2656 6.1172 4.5273 8.3047zm21.148-1.3047c-0.027344 0.027344-0.054688 0.054688-0.078125 0.082032-0.12891 0.125-0.25781 0.25-0.39062 0.37109-0.33594 0.30859-0.68359 0.60156-1.0469 0.875-0.003906 0-0.007813 0.007812-0.011719 0.007812-1.5898 1.1992-3.4336 2.0664-5.4219 2.5195-0.023438 0.003907-0.046875 0.011719-0.070312 0.015625-0.13672 0.03125-0.27344 0.054688-0.41016 0.082032-0.09375 0.019531-0.1875 0.035156-0.28125 0.050781-0.11719 0.019531-0.23438 0.039062-0.35156 0.054687-0.12109 0.015625-0.23828 0.035156-0.35938 0.046875-0.10156 0.011719-0.20703 0.023438-0.30859 0.035157-0.14844 0.015624-0.29297 0.023437-0.44141 0.035156-0.082032 0.003906-0.16406 0.011718-0.24609 0.015625-0.23438 0.011719-0.46484 0.019531-0.69922 0.019531s-0.46875-0.007812-0.69922-0.019531c-0.082031-0.003907-0.16406-0.011719-0.24609-0.015625-0.14844-0.007813-0.29297-0.019532-0.4375-0.035156-0.10547-0.011719-0.20703-0.023438-0.3125-0.035157-0.11719-0.015625-0.23438-0.03125-0.35547-0.046875s-0.24219-0.035156-0.35938-0.054687c-0.089844-0.015625-0.17969-0.03125-0.26562-0.050781-0.14453-0.027344-0.28516-0.054688-0.42578-0.085938-0.007813 0-0.015625-0.003906-0.027344-0.007812-2.5078-0.56641-4.7852-1.7969-6.625-3.5117-0.089844-0.082031-0.17969-0.16406-0.26562-0.25-0.050781-0.046875-0.097656-0.097657-0.14453-0.14844-0.13672-0.14062-0.27344-0.28125-0.40625-0.42578-0.007813-0.007812-0.015625-0.015625-0.023438-0.023438l3.1172-5.4609c2.1133 1.7109 4.7344 2.6406 7.4766 2.6406 2.7422 0 5.3555-0.92969 7.4727-2.6406l3.1172 5.4609c-0.15234 0.16797-0.30859 0.33203-0.46875 0.49219zm-10.121-24.363c7.8789 0 14.289 6.4102 14.289 14.289 0 0.94141-0.089844 1.875-0.27344 2.7734-0.39844 2.0312-1.2266 3.8945-2.3711 5.5l-3.2773-5.7383c-0.14062-0.24219-0.43359-0.39453-0.71484-0.39453-0.19922 0-0.39062 0.078125-0.53516 0.21484-1.9375 1.832-4.4609 2.8398-7.1172 2.8398s-5.1836-1.0078-7.1133-2.8398c-0.14453-0.13672-0.33594-0.21484-0.53906-0.21484h-0.039062c-0.28125 0-0.53906 0.14844-0.67969 0.39453l-3.2773 5.7344c-1.1484-1.6094-1.9727-3.4688-2.3711-5.5039-0.17969-0.89844-0.27344-1.832-0.27344-2.7734 0-7.8789 6.4102-14.289 14.293-14.289z"/>
 <path d="m31.262 46.191c3.1758 0 5.7617-2.5859 5.7617-5.7617 0-3.1758-2.5859-5.7617-5.7617-5.7617s-5.7617 2.5859-5.7617 5.7617c0 3.1758 2.5859 5.7617 5.7617 5.7617zm0-9.9609c2.3164 0 4.1992 1.8828 4.1992 4.1992 0 2.3164-1.8828 4.1992-4.1992 4.1992-2.3164 0-4.1992-1.8828-4.1992-4.1992 0-2.3164 1.8828-4.1992 4.1992-4.1992z"/>
 <path d="m53.539 38.898h30.27c0.42969 0 0.78125-0.35156 0.78125-0.78125v-7.6016c0-0.42969-0.35156-0.78125-0.78125-0.78125h-30.27c-0.42969 0-0.78125 0.35156-0.78125 0.78125v7.6016c0 0.42969 0.35156 0.78125 0.78125 0.78125zm0.78125-7.5977h28.707v6.0391h-28.707z"/>
 <path d="m53.539 46.191h30.27c0.42969 0 0.78125-0.35156 0.78125-0.78125 0-0.42969-0.35156-0.78125-0.78125-0.78125h-30.27c-0.42969 0-0.78125 0.35156-0.78125 0.78125 0 0.42969 0.35156 0.78125 0.78125 0.78125z"/>
 <path d="m53.539 53.48h30.27c0.42969 0 0.78125-0.35156 0.78125-0.78125 0-0.42969-0.35156-0.78125-0.78125-0.78125h-30.27c-0.42969 0-0.78125 0.35156-0.78125 0.78125 0 0.42969 0.35156 0.78125 0.78125 0.78125z"/>
 <path d="m53.539 60.773h30.27c0.42969 0 0.78125-0.35156 0.78125-0.78125 0-0.42969-0.35156-0.78125-0.78125-0.78125h-30.27c-0.42969 0-0.78125 0.35156-0.78125 0.78125 0 0.42969 0.35156 0.78125 0.78125 0.78125z"/>
 <path d="m44.805 68.699h-27.086c-0.42969 0-0.78125 0.35156-0.78125 0.78125 0 0.42969 0.35156 0.78125 0.78125 0.78125h27.082c0.42969 0 0.78125-0.35156 0.78125-0.78125 0-0.42969-0.35156-0.78125-0.78125-0.78125z"/>
 <path d="m53.539 70.262h24.891c0.42969 0 0.78125-0.35156 0.78125-0.78125 0-0.42969-0.35156-0.78125-0.78125-0.78125h-24.891c-0.42969 0-0.78125 0.35156-0.78125 0.78125 0 0.42969 0.35156 0.78125 0.78125 0.78125z"/>
<text x="0.0" y="117.5" font-size="5.0" font-weight="bold" font-family="Arbeit Regular, Helvetica, Arial-Unicode, Arial, Sans-serif" fill="#000000">Created by Rudez Studio</text><text x="0.0" y="122.5" font-size="5.0" font-weight="bold" font-family="Arbeit Regular, Helvetica, Arial-Unicode, Arial, Sans-serif" fill="#000000">from Noun Project</text></svg>