<svg xmlns="http://www.w3.org/2000/svg" version="1.1" viewBox="-5.0 -10.0 110.0 135.0">
 <path d="m31.266 31.301c-7.8828 0-14.293 6.4102-14.293 14.289 0 0.94141 0.089844 1.8711 0.27344 2.7734 0.39844 2.0312 1.2266 3.8945 2.3711 5.5039l3.2773-5.7344c0.14062-0.24219 0.39844-0.39453 0.67969-0.39453h0.039062c0.19922 0 0.39062 0.078125 0.53906 0.21484 1.9297 1.832 4.457 2.8398 7.1133 2.8398s5.1797-1.0078 7.1172-2.8398c0.14453-0.13672 0.33594-0.21484 0.53516-0.21484 0.28125 0 0.57422 0.14844 0.71484 0.39453l3.2773 5.7383c1.1445-1.6055 1.9727-3.4688 2.3711-5.5 0.17969-0.90234 0.27344-1.832 0.27344-2.7734 0-7.8789-6.4102-14.289-14.289-14.289zm-0.003906 14.891c-3.1758 0-5.7617-2.5859-5.7617-5.7617 0-3.1758 2.5859-5.7617 5.7617-5.7617s5.7617 2.5859 5.7617 5.7617c0 3.1758-2.5859 5.7617-5.7617 5.7617z"/>
 <path d="m31.266 52.348c-2.7422 0-5.3633-0.93359-7.4766-2.6406l-3.1172 5.4609 0.023437 0.023437c0.13281 0.14453 0.26953 0.28906 0.40625 0.42578 0.046876 0.050781 0.097657 0.097656 0.14453 0.14844 0.085937 0.085937 0.17578 0.16797 0.26562 0.25 1.8359 1.7148 4.1172 2.9453 6.625 3.5117 0.007812 0 0.015625 0.003906 0.027343 0.007812 0.14063 0.03125 0.28516 0.058594 0.42578 0.085938 0.089844 0.015625 0.17578 0.035156 0.26562 0.050781 0.12109 0.019531 0.23828 0.039063 0.35938 0.054687 0.11719 0.015626 0.23438 0.03125 0.35547 0.046876 0.10547 0.011718 0.20703 0.023437 0.3125 0.035156 0.14453 0.015625 0.29297 0.023437 0.4375 0.035156 0.082032 0.003906 0.16406 0.011719 0.24609 0.015625 0.23438 0.011719 0.46484 0.019531 0.69922 0.019531s0.46875-0.007812 0.69922-0.019531c0.082031-0.003906 0.16406-0.011719 0.24609-0.015625 0.14844-0.007812 0.29687-0.019531 0.44141-0.035156 0.10156-0.011719 0.20703-0.023438 0.30859-0.035156 0.12109-0.015626 0.24219-0.03125 0.35937-0.046876 0.11719-0.015624 0.23438-0.035156 0.35156-0.054687 0.09375-0.015625 0.1875-0.035156 0.28125-0.050781 0.13672-0.027344 0.27734-0.050782 0.41016-0.082032 0.023438-0.003906 0.046875-0.011718 0.070313-0.015624 1.9844-0.45313 3.8281-1.3242 5.4219-2.5195 0.003906 0 0.007812-0.007812 0.011719-0.007812 0.36328-0.27344 0.71094-0.56641 1.0469-0.875 0.13281-0.12109 0.26172-0.24219 0.39063-0.37109 0.027343-0.027344 0.054687-0.054688 0.078124-0.082031 0.16016-0.16016 0.31641-0.32422 0.46875-0.49219l-3.1172-5.4609c-2.1172 1.707-4.7344 2.6406-7.4727 2.6406z"/>
 <path d="m31.262 36.23c-2.3164 0-4.1992 1.8828-4.1992 4.1992 0 2.3164 1.8828 4.1992 4.1992 4.1992 2.3164 0 4.1992-1.8828 4.1992-4.1992 0-2.3164-1.8828-4.1992-4.1992-4.1992z"/>
 <path d="m90.02 22.391h-80.039c-0.96094 0-1.7461 0.78125-1.7461 1.7461v51.73c0 0.96094 0.78125 1.7461 1.7461 1.7461h80.035c0.96094 0 1.7461-0.78125 1.7461-1.7461v-51.734c0-0.96094-0.78125-1.7461-1.7461-1.7461zm-45.215 47.871h-27.086c-0.42969 0-0.78125-0.35156-0.78125-0.78125 0-0.42969 0.35156-0.78125 0.78125-0.78125h27.082c0.42969 0 0.78125 0.35156 0.78125 0.78125 0 0.42969-0.35156 0.78125-0.78125 0.78125zm2.0078-21.594c-0.64062 3.2617-2.2734 6.1328-4.543 8.3203-0.078125 0.078125-0.16016 0.14844-0.24219 0.22266-0.09375 0.085937-0.1875 0.17187-0.28516 0.25781-0.125 0.10938-0.25 0.21484-0.375 0.32031-0.039063 0.03125-0.074219 0.0625-0.11328 0.089844-1.543 1.2578-3.3008 2.207-5.1875 2.8086-0.03125 0.011719-0.066406 0.019531-0.097656 0.03125-0.19531 0.058594-0.39062 0.11719-0.58594 0.17188-0.019531 0.003906-0.042968 0.011719-0.0625 0.015625-0.32422 0.085938-0.65625 0.16016-0.98828 0.22656-0.11719 0.023438-0.23047 0.046876-0.34766 0.066407-0.12109 0.019531-0.24609 0.039062-0.36719 0.058593-0.14453 0.023438-0.29297 0.042969-0.4375 0.0625-0.10938 0.011719-0.21875 0.027344-0.33203 0.035157-0.17188 0.015625-0.34375 0.03125-0.51562 0.042969-0.089843 0.007812-0.17969 0.011718-0.27344 0.019531-0.26562 0.011719-0.53125 0.023437-0.80078 0.023437-0.26953 0-0.53516-0.007812-0.80078-0.023437-0.089843-0.003907-0.18359-0.011719-0.27344-0.019531-0.17188-0.011719-0.34375-0.023438-0.51562-0.042969-0.11328-0.011719-0.22266-0.023438-0.33594-0.039063-0.14453-0.019531-0.28906-0.039062-0.42969-0.058594-0.125-0.019531-0.25-0.035156-0.375-0.058593-0.10547-0.019531-0.21094-0.039063-0.32031-0.0625-0.35938-0.070313-0.71484-0.14844-1.0664-0.24609-0.20703-0.054687-0.41016-0.11719-0.61328-0.17969-0.019532-0.007813-0.042969-0.011719-0.0625-0.019532-1.9141-0.60547-3.6953-1.5703-5.2539-2.8516-0.007813-0.007813-0.019532-0.015625-0.027344-0.023438-0.14844-0.12109-0.29297-0.24609-0.4375-0.375-0.066406-0.058594-0.12891-0.11719-0.19141-0.17578-0.10938-0.097656-0.21484-0.19922-0.32422-0.30078-2.2617-2.1875-3.8867-5.0469-4.5273-8.3047-0.19922-0.99609-0.30078-2.0312-0.30078-3.0781 0-8.7383 7.1133-15.852 15.855-15.852 8.7422 0 15.852 7.1094 15.852 15.852 0 1.043-0.10156 2.082-0.30078 3.0781zm31.617 21.594h-24.891c-0.42969 0-0.78125-0.35156-0.78125-0.78125 0-0.42969 0.35156-0.78125 0.78125-0.78125h24.891c0.42969 0 0.78125 0.35156 0.78125 0.78125 0 0.42969-0.35156 0.78125-0.78125 0.78125zm5.3789-9.4883h-30.27c-0.42969 0-0.78125-0.35156-0.78125-0.78125 0-0.42969 0.35156-0.78125 0.78125-0.78125h30.27c0.42969 0 0.78125 0.35156 0.78125 0.78125 0 0.42969-0.35156 0.78125-0.78125 0.78125zm0-7.293h-30.27c-0.42969 0-0.78125-0.35156-0.78125-0.78125 0-0.42969 0.35156-0.78125 0.78125-0.78125h30.27c0.42969 0 0.78125 0.35156 0.78125 0.78125 0 0.42969-0.35156 0.78125-0.78125 0.78125zm0-7.2891h-30.27c-0.42969 0-0.78125-0.35156-0.78125-0.78125 0-0.42969 0.35156-0.78125 0.78125-0.78125h30.27c0.42969 0 0.78125 0.35156 0.78125 0.78125 0 0.42969-0.35156 0.78125-0.78125 0.78125zm0.78125-8.0742c0 0.42969-0.35156 0.78125-0.78125 0.78125h-30.27c-0.42969 0-0.78125-0.35156-0.78125-0.78125v-7.6016c0-0.42969 0.35156-0.78125 0.78125-0.78125h30.27c0.42969 0 0.78125 0.35156 0.78125 0.78125z"/>
 <path d="m54.32 31.301h28.707v6.0391h-28.707z"/>
<text x="0.0" y="117.5" font-size="5.0" font-weight="bold" font-family="Arbeit Regular, Helvetica, Arial-Unicode, Arial, Sans-serif" fill="#000000">Created by Rudez Studio</text><text x="0.0" y="122.5" font-size="5.0" font-weight="bold" font-family="Arbeit Regular, Helvetica, Arial-Unicode, Arial, Sans-serif" fill="#000000">from Noun Project</text></svg>