<svg xmlns="http://www.w3.org/2000/svg" version="1.1" viewBox="-5.0 -10.0 110.0 135.0">
 <path d="m92.059 7.4414c-6.8711-6.8711-18.051-6.8711-24.922 0l-4.4375 4.4375-10.145 10.148c-0.003907 0.003906-0.011719 0.007812-0.015626 0.015625-0.003906 0.003906-0.007812 0.011719-0.015624 0.015625l-36.895 36.898c-0.007812 0.007813-0.015625 0.019531-0.023437 0.027344-0.035157 0.035156-0.066407 0.070313-0.097657 0.10938-0.019531 0.023438-0.039062 0.046875-0.0625 0.074219-0.027343 0.035156-0.050781 0.070312-0.078124 0.10547-0.023438 0.03125-0.042969 0.0625-0.0625 0.09375-0.019532 0.03125-0.035157 0.0625-0.054688 0.09375-0.023438 0.039062-0.042969 0.078124-0.0625 0.11719-0.011719 0.027344-0.023438 0.054687-0.039062 0.082031-0.019532 0.046875-0.039063 0.09375-0.058594 0.14062-0.003906 0.011719-0.011719 0.019531-0.015625 0.03125l-12.145 33.727c-0.30859 0.85938-0.09375 1.8203 0.55078 2.4688 0.44922 0.44922 1.0547 0.69141 1.668 0.69141 0.26953 0 0.53906-0.046875 0.80078-0.14062l23.605-8.5078c0.11719 0.16016 0.24609 0.31641 0.39453 0.46484l2.8164 2.8086c1.457 1.4648 3.6875 1.5977 5.6797 0.33594l2.6328-1.6562c0.69141 0.33203 1.4023 0.62891 2.1211 0.88281l0.6875 3.0234c0.51953 2.3008 2.1836 3.7852 4.2461 3.7852h3.9883c2.0508 0 3.7148-1.4805 4.2461-3.7812l0.6875-3.0273c0.72266-0.25391 1.4336-0.55078 2.125-0.88281l2.6211 1.6523c1.9922 1.2617 4.2227 1.1328 5.6836-0.32422l2.8242-2.8242c1.4531-1.4609 1.5781-3.6914 0.32031-5.6719l-1.6562-2.6289c0.33203-0.69141 0.62891-1.4023 0.88281-2.1211l3.0352-0.69141c2.293-0.52734 3.7734-2.1953 3.7734-4.2422v-3.9883c0-2.0625-1.4844-3.7266-3.7812-4.2461l-3.0273-0.69141c-0.25391-0.72266-0.55078-1.4336-0.88281-2.125l1.6523-2.6289c1.2188-1.9219 1.1367-4.0625-0.17969-5.5195l21.609-21.609c6.8711-6.8711 6.8711-18.051 0-24.922zm-16.27 34.516-18.246-18.246 6.8281-6.8281 18.246 18.246zm-21.586-14.91 18.246 18.246-5.3594 5.3594c-1.4453-1.1211-3.4648-1.1328-5.2891 0.007812l-2.6328 1.6562c-0.6875-0.32812-1.3945-0.62109-2.1211-0.87891l-0.6875-3.0391c-0.52734-2.293-2.1953-3.7734-4.2422-3.7734h-3.9883c-2.0586 0-3.7266 1.4844-4.2461 3.7812l-0.69141 3.0312c-0.72656 0.25391-1.4336 0.54688-2.1211 0.87891l-2.6367-1.6562c-1.9922-1.25-4.2188-1.1211-5.6719 0.32812l-2.8242 2.8242c-1.4492 1.4492-1.5781 3.6758-0.32812 5.6719l1.6562 2.6328c-0.33203 0.69141-0.62891 1.4023-0.87891 2.125l-3.0273 0.6875c-0.64844 0.14453-1.2266 0.38672-1.7305 0.69531l-5.0039-5.0039zm-35.945 37.875 5.3242 5.3242v2.9219c0 2.0508 1.4805 3.7148 3.7812 4.2461l3.0273 0.69141c0.25391 0.72266 0.55078 1.4297 0.88281 2.1211l-1.6562 2.6328c-0.046876 0.074219-0.085938 0.14844-0.12891 0.22266l-20.418 7.3594 9.1875-25.516zm53.586 4.6133c0.039062 0.007813 0.074219 0.019532 0.10547 0.027344v3.2188c-0.03125 0.011719-0.070313 0.019531-0.10938 0.027344l-4.3477 0.99219c-0.84766 0.19141-1.5195 0.83594-1.75 1.6719-0.35156 1.2773-0.86719 2.5195-1.5352 3.6953-0.42969 0.75781-0.40625 1.6875 0.054688 2.4219l2.3828 3.7812c0.019531 0.03125 0.039063 0.0625 0.054688 0.09375l-2.2773 2.2773c-0.03125-0.015626-0.0625-0.035157-0.097656-0.058594l-3.7773-2.3789c-0.73438-0.46484-1.668-0.48438-2.4258-0.054688-1.1641 0.66406-2.4062 1.1797-3.6953 1.5312-0.83984 0.23047-1.4844 0.90625-1.6758 1.7539l-0.98438 4.3398c-0.011719 0.042969-0.019531 0.082031-0.03125 0.11719h-3.2188c-0.011719-0.03125-0.019531-0.070313-0.027344-0.10938l-0.99219-4.3477c-0.19141-0.84766-0.83594-1.5195-1.6719-1.75-1.2852-0.35547-2.5273-0.87109-3.6914-1.5312-0.75781-0.42969-1.6875-0.41016-2.4219 0.054688l-3.7852 2.3828c-0.03125 0.019532-0.0625 0.039063-0.089843 0.054688l-2.2773-2.2734c0.015625-0.03125 0.035156-0.0625 0.058594-0.097656l2.3789-3.7773c0.46484-0.73438 0.48438-1.668 0.054687-2.4258-0.66016-1.1641-1.1797-2.4062-1.5312-3.6914-0.23047-0.83594-0.90234-1.4805-1.75-1.6719l-4.3438-0.98828c-0.042969-0.011718-0.082031-0.019531-0.11719-0.03125v-3.2188c0.03125-0.011718 0.066406-0.019531 0.10938-0.027343l4.3555-0.99219c0.85156-0.19141 1.5234-0.83984 1.7539-1.6797 0.34766-1.2773 0.85938-2.5156 1.5273-3.6836 0.42969-0.75781 0.41016-1.6875-0.054688-2.4219l-2.3789-3.7773c-0.023438-0.035156-0.039063-0.066406-0.058594-0.097656l2.2773-2.2773c0.03125 0.015625 0.0625 0.035157 0.097656 0.054688l3.7812 2.3789c0.73438 0.46484 1.668 0.48438 2.4219 0.054687 1.1523-0.65625 2.3945-1.168 3.6914-1.5273 0.83594-0.23047 1.4805-0.90234 1.6719-1.75l0.99219-4.3594c0.007812-0.039063 0.019531-0.074219 0.027344-0.10547h3.2188c0.011718 0.03125 0.019531 0.066406 0.027343 0.10547l0.98438 4.3555c0.19141 0.84766 0.83594 1.5234 1.6719 1.7539 1.3008 0.35938 2.5391 0.87109 3.6914 1.5273 0.75781 0.42969 1.6875 0.41016 2.4219-0.054687l3.7773-2.375c0.035156-0.023437 0.070313-0.042969 0.10156-0.058594l1.0039 1.0039c0.011719 0.011718 0.019531 0.019531 0.027344 0.03125 0.011719 0.011718 0.019531 0.019531 0.03125 0.027343l1.2148 1.2148c-0.015624 0.03125-0.035156 0.0625-0.058593 0.097656l-2.3789 3.7812c-0.46484 0.73438-0.48437 1.668-0.054687 2.4219 0.66016 1.1641 1.1797 2.4062 1.5312 3.6914 0.23047 0.83594 0.90234 1.4805 1.75 1.6719l4.3555 0.99219zm14.113-37.742-18.246-18.246 2.7656-2.7656c5.0312-5.0312 13.219-5.0312 18.246 0 5.0312 5.0312 5.0312 13.219 0 18.246zm-45.203 30.008c-5.168 5.168-5.168 13.574 0 18.738 2.5039 2.5078 5.832 3.8867 9.3711 3.8867s6.8672-1.3789 9.3711-3.8867c2.5039-2.5039 3.8828-5.8281 3.8828-9.3711 0-3.5391-1.3789-6.8672-3.8828-9.3711-5.168-5.168-13.574-5.1641-18.742 0zm15.402 15.406c-1.6094 1.6133-3.7539 2.5-6.0312 2.5-2.2812 0-4.4219-0.88672-6.0352-2.5039-3.3281-3.3281-3.3281-8.7383 0-12.066 1.6641-1.6641 3.8477-2.4961 6.0352-2.4961s4.3711 0.83203 6.0352 2.4961c1.6094 1.6094 2.5 3.7539 2.5 6.0352s-0.88672 4.4219-2.5 6.0352z"/>
<text x="0.0" y="117.5" font-size="5.0" font-weight="bold" font-family="Arbeit Regular, Helvetica, Arial-Unicode, Arial, Sans-serif" fill="#000000">Created by Mas Art</text><text x="0.0" y="122.5" font-size="5.0" font-weight="bold" font-family="Arbeit Regular, Helvetica, Arial-Unicode, Arial, Sans-serif" fill="#000000">from Noun Project</text></svg>