<?xml version="1.0" encoding="UTF-8" standalone="no" ?>
<!DOCTYPE svg PUBLIC "-//W3C//DTD SVG 1.1//EN" "http://www.w3.org/Graphics/SVG/1.1/DTD/svg11.dtd">
<svg xmlns="http://www.w3.org/2000/svg" xmlns:xlink="http://www.w3.org/1999/xlink" version="1.1" width="1080" height="1080" viewBox="0 0 1080 1080" xml:space="preserve">
<desc>Created with Fabric.js 5.2.4</desc>
<defs>
</defs>
<g transform="matrix(1 0 0 1 540 540)" id="9a8e5f42-59d6-493e-b9e4-567b092875ce"  >
<rect style="stroke: none; stroke-width: 1; stroke-dasharray: none; stroke-linecap: butt; stroke-dashoffset: 0; stroke-linejoin: miter; stroke-miterlimit: 4; fill: rgb(255,255,255); fill-rule: nonzero; opacity: 1; visibility: hidden;" vector-effect="non-scaling-stroke"  x="-540" y="-540" rx="0" ry="0" width="1080" height="1080" />
</g>
<g transform="matrix(1 0 0 1 540 540)" id="bb92d8b0-b1c2-4058-9188-40f44d6aa9d6"  >
</g>
<g transform="matrix(8.06 0 0 8.06 575.04 540)"  >
<path style="stroke: none; stroke-width: 1; stroke-dasharray: none; stroke-linecap: butt; stroke-dashoffset: 0; stroke-linejoin: miter; stroke-miterlimit: 4; fill: rgb(0,0,0); fill-rule: nonzero; opacity: 1;" vector-effect="non-scaling-stroke"  transform=" translate(-50, -50)" d="M 96.875 17.188 L 3.125 17.188 C 1.3984 17.188 0 18.586399999999998 0 20.313 L 0 25.0005 C 0 25.414559999999998 0.16406 25.813 0.45703 26.105999999999998 C 0.75 26.398999999999997 1.14844 26.563029999999998 1.56253 26.563029999999998 C 4.15233 26.563029999999998 6.25003 28.660729999999997 6.25003 31.250529999999998 C 6.25003 33.840329999999994 4.152329999999999 35.93803 1.5625299999999998 35.93803 C 0.6992499999999997 35.93803 0.000029999999999752447 36.637249999999995 0.000029999999999752447 37.50053 L 0.000029999999999752447 43.75053 C 0.000029999999999752447 44.16459 0.16408999999999976 44.56303 0.45705999999999974 44.85603 C 0.7500299999999998 45.149029999999996 1.1484699999999997 45.31306 1.5625599999999997 45.31306 C 4.15236 45.31306 6.2500599999999995 47.41076 6.2500599999999995 50.00056 C 6.2500599999999995 52.59036 4.15236 54.68806 1.5625599999999995 54.68806 C 0.6992799999999995 54.68806 0.000059999999999504894 55.38728 0.000059999999999504894 56.25056 L 0.000059999999999504894 62.50056 C 0.000059999999999504894 62.91462 0.16411999999999952 63.31306 0.4570899999999995 63.60606 C 0.7500599999999995 63.89906 1.1484999999999994 64.06309 1.5625899999999995 64.06309 C 4.15239 64.06309 6.250089999999999 66.16079 6.250089999999999 68.75059 C 6.250089999999999 71.34039 4.152389999999999 73.43809 1.5625899999999993 73.43809 C 0.6993099999999992 73.43809 0.00008999999999925734 74.13731 0.00008999999999925734 75.00059 L 0.00008999999999925734 79.68809 C 0.00008999999999925734 80.51621 0.3282099999999993 81.31309 0.9141499999999992 81.89899 C 1.5000899999999993 82.48492999999999 2.2969499999999994 82.81305 3.1250499999999994 82.81305 L 96.87505 82.81305 C 97.70317 82.81305 98.50005 82.48493 99.08595 81.89899 C 99.67188999999999 81.31305 100.00001 80.51619 100.00001 79.68809 L 100.00001 75.00059 C 100.00001 74.58653 99.83595 74.18809 99.54298 73.89509 C 99.25001 73.60208999999999 98.85157 73.43806 98.43748 73.43806 C 95.84768 73.43806 93.74998 71.34035999999999 93.74998 68.75056 C 93.74998 66.16076 95.84768 64.06306 98.43748 64.06306 C 98.85154 64.06306 99.24998 63.898999999999994 99.54298 63.60602999999999 C 99.83598 63.313059999999986 100.00001 62.91461999999999 100.00001 62.50052999999999 L 100.00001 56.25052999999999 C 100.00001 55.83646999999999 99.83595 55.43802999999999 99.54298 55.14502999999999 C 99.25001 54.85202999999999 98.85157 54.68799999999999 98.43748 54.68799999999999 C 95.84768 54.68799999999999 93.74998 52.590299999999985 93.74998 50.00049999999999 C 93.74998 47.41069999999999 95.84768 45.31299999999999 98.43748 45.31299999999999 C 98.85154 45.31299999999999 99.24998 45.14893999999999 99.54298 44.855969999999985 C 99.83598 44.56299999999998 100.00001 44.16455999999999 100.00001 43.750469999999986 L 100.00001 37.500469999999986 C 100.00001 37.08640999999999 99.83595 36.687969999999986 99.54298 36.39496999999999 C 99.25001 36.10196999999999 98.85157 35.93793999999998 98.43748 35.93793999999998 C 95.84768 35.93793999999998 93.74998 33.84023999999998 93.74998 31.250439999999983 C 93.74998 28.660639999999987 95.84768 26.562939999999983 98.43748 26.562939999999983 C 98.85154 26.562939999999983 99.24998 26.398879999999984 99.54298 26.105909999999984 C 99.83598 25.812939999999983 100.00001 25.414499999999983 100.00001 25.000409999999984 L 100.00001 20.312909999999984 C 100.00001 19.484789999999986 99.67189 18.687909999999984 99.08595 18.102009999999986 C 98.50001 17.516069999999985 97.70315 17.187949999999987 96.87505 17.187949999999987 z M 96.875 23.5942 C 93.2344 24.33248 90.6172 27.535600000000002 90.6172 31.2504 C 90.6172 34.965199999999996 93.2344 38.1684 96.875 38.9066 L 96.875 42.3441 C 93.2344 43.08238 90.6172 46.2855 90.6172 50.000299999999996 C 90.6172 53.71509999999999 93.2344 56.918299999999995 96.875 57.656499999999994 L 96.875 61.093999999999994 C 93.2344 61.83228 90.6172 65.0354 90.6172 68.75019999999999 C 90.6172 72.46499999999999 93.2344 75.6682 96.875 76.40639999999999 L 96.875 79.68759999999999 L 75.547 79.68759999999999 C 75.26183999999999 79.22666 74.75793999999999 78.94931999999999 74.21889999999999 78.94931999999999 C 73.67985999999999 78.94931999999999 73.17589999999998 79.22665999999998 72.89079999999998 79.68759999999999 L 3.124799999999979 79.68759999999999 L 3.124799999999979 76.40639999999999 C 6.765399999999979 75.66811999999999 9.382599999999979 72.46499999999999 9.382599999999979 68.75019999999999 C 9.382599999999979 65.0354 6.765399999999978 61.83219999999999 3.124799999999979 61.093999999999994 L 3.124799999999979 57.656499999999994 C 6.765399999999979 56.91821999999999 9.382599999999979 53.71509999999999 9.382599999999979 50.000299999999996 C 9.382599999999979 46.2855 6.765399999999978 43.0823 3.124799999999979 42.3441 L 3.124799999999979 38.9066 C 6.765399999999979 38.168319999999994 9.382599999999979 34.965199999999996 9.382599999999979 31.2504 C 9.382599999999979 27.535600000000002 6.765399999999978 24.3324 3.124799999999979 23.5942 L 3.124799999999979 20.313000000000002 L 72.89079999999998 20.313000000000002 C 73.17595999999999 20.773940000000003 73.67985999999999 21.051280000000002 74.21889999999999 21.051280000000002 C 74.75793999999999 21.051280000000002 75.2619 20.773940000000003 75.547 20.313000000000002 L 96.875 20.313000000000002 z" stroke-linecap="round" />
</g>
<g transform="matrix(8.06 0 0 8.06 770.36 413.98)"  >
<path style="stroke: none; stroke-width: 1; stroke-dasharray: none; stroke-linecap: butt; stroke-dashoffset: 0; stroke-linejoin: miter; stroke-miterlimit: 4; fill: rgb(0,0,0); fill-rule: nonzero; opacity: 1;" vector-effect="non-scaling-stroke"  transform=" translate(-74.22, -34.37)" d="M 74.219 32.031 C 73.35571999999999 32.031 72.6565 32.730219999999996 72.6565 33.5935 L 72.6565 35.156 C 72.6565 36.01928 73.35571999999999 36.7185 74.219 36.7185 C 75.08228 36.7185 75.7815 36.01928 75.7815 35.156 L 75.7815 33.5935 C 75.7815 33.17944 75.61743999999999 32.781 75.32446999999999 32.488 C 75.0315 32.195 74.63305999999999 32.030969999999996 74.21896999999998 32.030969999999996 z" stroke-linecap="round" />
</g>
<g transform="matrix(8.06 0 0 8.06 770.36 729.02)"  >
<path style="stroke: none; stroke-width: 1; stroke-dasharray: none; stroke-linecap: butt; stroke-dashoffset: 0; stroke-linejoin: miter; stroke-miterlimit: 4; fill: rgb(0,0,0); fill-rule: nonzero; opacity: 1;" vector-effect="non-scaling-stroke"  transform=" translate(-74.22, -73.44)" d="M 74.219 71.094 C 73.35571999999999 71.094 72.6565 71.79321999999999 72.6565 72.6565 L 72.6565 74.219 C 72.6565 75.08228 73.35571999999999 75.7815 74.219 75.7815 C 75.08228 75.7815 75.7815 75.08228 75.7815 74.219 L 75.7815 72.6565 C 75.7815 72.24243999999999 75.61743999999999 71.844 75.32446999999999 71.55099999999999 C 75.0315 71.25799999999998 74.63305999999999 71.09396999999998 74.21896999999998 71.09396999999998 z" stroke-linecap="round" />
</g>
<g transform="matrix(8.06 0 0 8.06 770.36 476.99)"  >
<path style="stroke: none; stroke-width: 1; stroke-dasharray: none; stroke-linecap: butt; stroke-dashoffset: 0; stroke-linejoin: miter; stroke-miterlimit: 4; fill: rgb(0,0,0); fill-rule: nonzero; opacity: 1;" vector-effect="non-scaling-stroke"  transform=" translate(-74.22, -42.19)" d="M 74.219 39.844 C 73.35571999999999 39.844 72.6565 40.54322 72.6565 41.4065 L 72.6565 42.969 C 72.6565 43.832280000000004 73.35571999999999 44.5315 74.219 44.5315 C 75.08228 44.5315 75.7815 43.832280000000004 75.7815 42.969 L 75.7815 41.4065 C 75.7815 40.99244 75.61743999999999 40.594 75.32446999999999 40.301 C 75.0315 40.008 74.63305999999999 39.84397 74.21896999999998 39.84397 z" stroke-linecap="round" />
</g>
<g transform="matrix(8.06 0 0 8.06 770.36 539.99)"  >
<path style="stroke: none; stroke-width: 1; stroke-dasharray: none; stroke-linecap: butt; stroke-dashoffset: 0; stroke-linejoin: miter; stroke-miterlimit: 4; fill: rgb(0,0,0); fill-rule: nonzero; opacity: 1;" vector-effect="non-scaling-stroke"  transform=" translate(-74.22, -50)" d="M 74.219 47.656 C 73.35571999999999 47.656 72.6565 48.355219999999996 72.6565 49.2185 L 72.6565 50.781 C 72.6565 51.64428 73.35571999999999 52.3435 74.219 52.3435 C 75.08228 52.3435 75.7815 51.64428 75.7815 50.781 L 75.7815 49.2185 C 75.7815 48.80444 75.61743999999999 48.406 75.32446999999999 48.113 C 75.0315 47.82 74.63305999999999 47.655969999999996 74.21896999999998 47.655969999999996 z" stroke-linecap="round" />
</g>
<g transform="matrix(8.06 0 0 8.06 770.36 350.98)"  >
<path style="stroke: none; stroke-width: 1; stroke-dasharray: none; stroke-linecap: butt; stroke-dashoffset: 0; stroke-linejoin: miter; stroke-miterlimit: 4; fill: rgb(0,0,0); fill-rule: nonzero; opacity: 1;" vector-effect="non-scaling-stroke"  transform=" translate(-74.22, -26.56)" d="M 74.219 24.219 C 73.35571999999999 24.219 72.6565 24.91822 72.6565 25.7815 L 72.6565 27.344 C 72.6565 28.20728 73.35571999999999 28.9065 74.219 28.9065 C 75.08228 28.9065 75.7815 28.20728 75.7815 27.344 L 75.7815 25.7815 C 75.7815 25.367440000000002 75.61743999999999 24.969 75.32446999999999 24.676000000000002 C 75.0315 24.383000000000003 74.63305999999999 24.218970000000002 74.21896999999998 24.218970000000002 z" stroke-linecap="round" />
</g>
<g transform="matrix(8.06 0 0 8.06 770.36 603)"  >
<path style="stroke: none; stroke-width: 1; stroke-dasharray: none; stroke-linecap: butt; stroke-dashoffset: 0; stroke-linejoin: miter; stroke-miterlimit: 4; fill: rgb(0,0,0); fill-rule: nonzero; opacity: 1;" vector-effect="non-scaling-stroke"  transform=" translate(-74.22, -57.81)" d="M 74.219 55.469 C 73.35571999999999 55.469 72.6565 56.16822 72.6565 57.0315 L 72.6565 58.594 C 72.6565 59.457280000000004 73.35571999999999 60.1565 74.219 60.1565 C 75.08228 60.1565 75.7815 59.457280000000004 75.7815 58.594 L 75.7815 57.0315 C 75.7815 56.61744 75.61743999999999 56.219 75.32446999999999 55.926 C 75.0315 55.633 74.63305999999999 55.46897 74.21896999999998 55.46897 z" stroke-linecap="round" />
</g>
<g transform="matrix(8.06 0 0 8.06 770.36 666.01)"  >
<path style="stroke: none; stroke-width: 1; stroke-dasharray: none; stroke-linecap: butt; stroke-dashoffset: 0; stroke-linejoin: miter; stroke-miterlimit: 4; fill: rgb(0,0,0); fill-rule: nonzero; opacity: 1;" vector-effect="non-scaling-stroke"  transform=" translate(-74.22, -65.62)" d="M 74.219 63.281 C 73.35571999999999 63.281 72.6565 63.980219999999996 72.6565 64.8435 L 72.6565 66.406 C 72.6565 67.26928000000001 73.35571999999999 67.9685 74.219 67.9685 C 75.08228 67.9685 75.7815 67.26928000000001 75.7815 66.406 L 75.7815 64.8435 C 75.7815 64.42944 75.61743999999999 64.031 75.32446999999999 63.73800000000001 C 75.0315 63.44500000000001 74.63305999999999 63.28097 74.21896999999998 63.28097 z" stroke-linecap="round" />
</g>
<g transform="matrix(8.06 0 0 8.06 505.73 495.89)"  >
<path style="stroke: none; stroke-width: 1; stroke-dasharray: none; stroke-linecap: butt; stroke-dashoffset: 0; stroke-linejoin: miter; stroke-miterlimit: 4; fill: rgb(0,0,0); fill-rule: nonzero; opacity: 1;" vector-effect="non-scaling-stroke"  transform=" translate(-41.41, -44.53)" d="M 39.844 46.094 L 42.969 46.094 C 43.832280000000004 46.094 44.5315 45.394780000000004 44.5315 44.5315 C 44.5315 43.66822 43.832280000000004 42.969 42.969 42.969 L 39.844 42.969 C 38.98072 42.969 38.2815 43.66822 38.2815 44.5315 C 38.2815 45.394780000000004 38.98072 46.094 39.844 46.094 z" stroke-linecap="round" />
</g>
<g transform="matrix(8.06 0 0 8.06 505.73 533.69)"  >
<path style="stroke: none; stroke-width: 1; stroke-dasharray: none; stroke-linecap: butt; stroke-dashoffset: 0; stroke-linejoin: miter; stroke-miterlimit: 4; fill: rgb(0,0,0); fill-rule: nonzero; opacity: 1;" vector-effect="non-scaling-stroke"  transform=" translate(-41.41, -49.22)" d="M 39.844 50.781 L 42.969 50.781 C 43.832280000000004 50.781 44.5315 50.08178 44.5315 49.2185 C 44.5315 48.355219999999996 43.832280000000004 47.656 42.969 47.656 L 39.844 47.656 C 38.98072 47.656 38.2815 48.355219999999996 38.2815 49.2185 C 38.2815 50.08178 38.98072 50.781 39.844 50.781 z" stroke-linecap="round" />
</g>
<g transform="matrix(8.06 0 0 8.06 455.33 514.79)"  >
<path style="stroke: none; stroke-width: 1; stroke-dasharray: none; stroke-linecap: butt; stroke-dashoffset: 0; stroke-linejoin: miter; stroke-miterlimit: 4; fill: rgb(0,0,0); fill-rule: nonzero; opacity: 1;" vector-effect="non-scaling-stroke"  transform=" translate(-35.16, -46.88)" d="M 36.719 46.875 C 36.719 48.957 33.594 48.957 33.594 46.875 C 33.594 44.793 36.719 44.793 36.719 46.875" stroke-linecap="round" />
</g>
<g transform="matrix(8.06 0 0 8.06 557.4 514.79)"  >
<path style="stroke: none; stroke-width: 1; stroke-dasharray: none; stroke-linecap: butt; stroke-dashoffset: 0; stroke-linejoin: miter; stroke-miterlimit: 4; fill: rgb(0,0,0); fill-rule: nonzero; opacity: 1;" vector-effect="non-scaling-stroke"  transform=" translate(-47.81, -46.88)" d="M 49.375 46.875 C 49.375 48.957 46.25 48.957 46.25 46.875 C 46.25 44.793 49.375 44.793 49.375 46.875" stroke-linecap="round" />
</g>
<g transform="matrix(8.06 0 0 8.06 506.05 540)"  >
<path style="stroke: none; stroke-width: 1; stroke-dasharray: none; stroke-linecap: butt; stroke-dashoffset: 0; stroke-linejoin: miter; stroke-miterlimit: 4; fill: rgb(0,0,0); fill-rule: nonzero; opacity: 1;" vector-effect="non-scaling-stroke"  transform=" translate(-41.45, -50)" d="M 52.656 54.766 C 53.46459 53.894909999999996 53.9099 52.7504 53.906 51.5629 L 53.906 34.3749 C 53.906 31.785099999999996 51.808299999999996 29.687399999999997 49.2185 29.687399999999997 L 33.5935 29.687399999999997 C 31.0037 29.687399999999997 28.906 31.785099999999996 28.906 34.3749 L 28.906 51.5629 C 28.902093999999998 52.7504 29.34741 53.8949 30.156 54.766 L 22.8904 67.969 C 22.48415 68.72291 22.7654 69.6643 23.5154 70.07839999999999 L 24.29665 70.31277999999999 C 24.874769999999998 70.33231099999999 25.41385 70.03152999999999 25.702849999999998 69.53152999999999 L 26.171599999999998 68.75027999999999 L 56.7966 68.75027999999999 L 57.26535 69.53152999999999 C 57.53879 70.00809 58.04269 70.30496999999998 58.59345 70.31277999999999 L 59.3747 70.07839999999999 C 60.1247 69.66433999999998 60.405899999999995 68.72289999999998 59.9997 67.969 z M 50.781 41.407 L 50.781 51.562999999999995 C 50.781 51.977059999999994 50.61694 52.375499999999995 50.323969999999996 52.668499999999995 C 50.03099999999999 52.961499999999994 49.63256 53.12553 49.218469999999996 53.12553 L 33.593469999999996 53.12553 C 32.73018999999999 53.12553 32.030969999999996 52.42631 32.030969999999996 51.56303 L 32.030969999999996 41.40703 z M 33.593 56.251 L 49.843 56.251 L 51.561800000000005 59.376 L 31.249800000000004 59.376 L 33.0467 56.1729 z M 50.781000000000006 34.376 L 50.781000000000006 38.282199999999996 L 42.968500000000006 38.282199999999996 L 42.968500000000006 32.813399999999994 L 49.218500000000006 32.813399999999994 C 49.632560000000005 32.813399999999994 50.031000000000006 32.977459999999994 50.324000000000005 33.27043 C 50.617000000000004 33.5634 50.78103000000001 33.961839999999995 50.78103000000001 34.37593 z M 33.593 32.8135 L 39.843 32.8135 L 39.843 38.2823 L 32.0305 38.2823 L 32.0305 34.3761 C 32.0305 33.51282 32.72972 32.8136 33.593 32.8136 z M 27.733600000000003 65.62549999999999 L 29.452400000000004 62.50049999999999 L 53.3584 62.50049999999999 L 55.077200000000005 65.62549999999999 z" stroke-linecap="round" />
</g>
</svg>