<svg id="visual" viewBox="0 0 1200 293" width="1200" height="293" xmlns="http://www.w3.org/2000/svg" xmlns:xlink="http://www.w3.org/1999/xlink" version="1.1"><rect x="0" y="0" width="1200" height="293" fill="#2c2b2b"></rect><path d="M798 0L826 0L826 9L923 9L923 19L319 19L319 28L863 28L863 38L283 38L283 47L114 47L114 57L1013 57L1013 66L1106 66L1106 76L937 76L937 85L409 85L409 95L546 95L546 104L205 104L205 113L451 113L451 123L894 123L894 132L145 132L145 142L510 142L510 151L912 151L912 161L415 161L415 170L203 170L203 180L772 180L772 189L331 189L331 198L896 198L896 208L482 208L482 217L676 217L676 227L398 227L398 236L575 236L575 246L294 246L294 255L565 255L565 265L443 265L443 274L255 274L255 284L990 284L990 293L0 293L0 284L0 284L0 274L0 274L0 265L0 265L0 255L0 255L0 246L0 246L0 236L0 236L0 227L0 227L0 217L0 217L0 208L0 208L0 198L0 198L0 189L0 189L0 180L0 180L0 170L0 170L0 161L0 161L0 151L0 151L0 142L0 142L0 132L0 132L0 123L0 123L0 113L0 113L0 104L0 104L0 95L0 95L0 85L0 85L0 76L0 76L0 66L0 66L0 57L0 57L0 47L0 47L0 38L0 38L0 28L0 28L0 19L0 19L0 9L0 9L0 0L0 0Z" fill="#4a4a4a" stroke-linecap="square" stroke-linejoin="miter"></path></svg>