<svg id="visual" viewBox="0 0 1400 293" width="1400" height="293" xmlns="http://www.w3.org/2000/svg" xmlns:xlink="http://www.w3.org/1999/xlink" version="1.1"><rect x="0" y="0" width="1400" height="293" fill="#1e1d1d"></rect><path d="M756 0L611 0L611 15L702 15L702 31L572 31L572 46L516 46L516 62L455 62L455 77L672 77L672 93L493 93L493 108L529 108L529 123L687 123L687 139L618 139L618 154L463 154L463 170L670 170L670 185L465 185L465 200L687 200L687 216L765 216L765 231L550 231L550 247L723 247L723 262L559 262L559 278L593 278L593 293L0 293L0 278L0 278L0 262L0 262L0 247L0 247L0 231L0 231L0 216L0 216L0 200L0 200L0 185L0 185L0 170L0 170L0 154L0 154L0 139L0 139L0 123L0 123L0 108L0 108L0 93L0 93L0 77L0 77L0 62L0 62L0 46L0 46L0 31L0 31L0 15L0 15L0 0L0 0Z" fill="#393939"></path><path d="M292 0L369 0L369 15L432 15L432 31L269 31L269 46L576 46L576 62L399 62L399 77L365 77L365 93L444 93L444 108L302 108L302 123L264 123L264 139L413 139L413 154L428 154L428 170L476 170L476 185L575 185L575 200L305 200L305 216L401 216L401 231L468 231L468 247L288 247L288 262L559 262L559 278L446 278L446 293L0 293L0 278L0 278L0 262L0 262L0 247L0 247L0 231L0 231L0 216L0 216L0 200L0 200L0 185L0 185L0 170L0 170L0 154L0 154L0 139L0 139L0 123L0 123L0 108L0 108L0 93L0 93L0 77L0 77L0 62L0 62L0 46L0 46L0 31L0 31L0 15L0 15L0 0L0 0Z" fill="#333333"></path><path d="M331 0L168 0L168 15L340 15L340 31L160 31L160 46L314 46L314 62L256 62L256 77L272 77L272 93L246 93L246 108L336 108L336 123L178 123L178 139L329 139L329 154L273 154L273 170L304 170L304 185L127 185L127 200L165 200L165 216L189 216L189 231L234 231L234 247L165 247L165 262L170 262L170 278L218 278L218 293L0 293L0 278L0 278L0 262L0 262L0 247L0 247L0 231L0 231L0 216L0 216L0 200L0 200L0 185L0 185L0 170L0 170L0 154L0 154L0 139L0 139L0 123L0 123L0 108L0 108L0 93L0 93L0 77L0 77L0 62L0 62L0 46L0 46L0 31L0 31L0 15L0 15L0 0L0 0Z" fill="#2d2d2d"></path></svg>