<svg id="visual" viewBox="0 0 1014 400" width="1014" height="400" xmlns="http://www.w3.org/2000/svg" xmlns:xlink="http://www.w3.org/1999/xlink" version="1.1"><rect x="0" y="0" width="1014" height="400" fill="#4a4a4a"></rect><path d="M676 0L849 0L849 13L442 13L442 26L288 26L288 39L485 39L485 52L78 52L78 65L539 65L539 77L240 77L240 90L854 90L854 103L604 103L604 116L866 116L866 129L928 129L928 142L59 142L59 155L705 155L705 168L678 168L678 181L142 181L142 194L902 194L902 206L464 206L464 219L398 219L398 232L106 232L106 245L592 245L592 258L149 258L149 271L256 271L256 284L556 284L556 297L58 297L58 310L846 310L846 323L92 323L92 335L113 335L113 348L947 348L947 361L221 361L221 374L405 374L405 387L218 387L218 400L0 400L0 387L0 387L0 374L0 374L0 361L0 361L0 348L0 348L0 335L0 335L0 323L0 323L0 310L0 310L0 297L0 297L0 284L0 284L0 271L0 271L0 258L0 258L0 245L0 245L0 232L0 232L0 219L0 219L0 206L0 206L0 194L0 194L0 181L0 181L0 168L0 168L0 155L0 155L0 142L0 142L0 129L0 129L0 116L0 116L0 103L0 103L0 90L0 90L0 77L0 77L0 65L0 65L0 52L0 52L0 39L0 39L0 26L0 26L0 13L0 13L0 0L0 0Z" fill="#2c2b2b" stroke-linecap="square" stroke-linejoin="miter"></path></svg>