<svg id="visual" viewBox="0 0 1400 293" width="1400" height="293" xmlns="http://www.w3.org/2000/svg" xmlns:xlink="http://www.w3.org/1999/xlink" version="1.1"><rect x="0" y="0" width="1400" height="293" fill="#2c2b2b"></rect><path d="M627 0L657 0L657 9L755 9L755 19L368 19L368 28L717 28L717 38L422 38L422 47L379 47L379 57L687 57L687 66L774 66L774 76L335 76L335 85L221 85L221 95L768 95L768 104L707 104L707 113L219 113L219 123L355 123L355 132L444 132L444 142L639 142L639 151L228 151L228 161L219 161L219 170L781 170L781 180L325 180L325 189L366 189L366 198L205 198L205 208L652 208L652 217L540 217L540 227L378 227L378 236L637 236L637 246L510 246L510 255L603 255L603 265L214 265L214 274L304 274L304 284L550 284L550 293L0 293L0 284L0 284L0 274L0 274L0 265L0 265L0 255L0 255L0 246L0 246L0 236L0 236L0 227L0 227L0 217L0 217L0 208L0 208L0 198L0 198L0 189L0 189L0 180L0 180L0 170L0 170L0 161L0 161L0 151L0 151L0 142L0 142L0 132L0 132L0 123L0 123L0 113L0 113L0 104L0 104L0 95L0 95L0 85L0 85L0 76L0 76L0 66L0 66L0 57L0 57L0 47L0 47L0 38L0 38L0 28L0 28L0 19L0 19L0 9L0 9L0 0L0 0Z" fill="#4a4a4a" stroke-linecap="square" stroke-linejoin="miter"></path></svg>