<svg id="visual" viewBox="0 0 1014 293" width="1014" height="293" xmlns="http://www.w3.org/2000/svg" xmlns:xlink="http://www.w3.org/1999/xlink" version="1.1"><rect x="0" y="0" width="1014" height="293" fill="#4a4a4a"></rect><path d="M675 0L699 0L699 9L780 9L780 19L270 19L270 28L729 28L729 38L239 38L239 47L96 47L96 57L857 57L857 66L935 66L935 76L792 76L792 85L346 85L346 95L462 95L462 104L173 104L173 113L381 113L381 123L755 123L755 132L122 132L122 142L431 142L431 151L771 151L771 161L351 161L351 170L171 170L171 180L653 180L653 189L280 189L280 198L758 198L758 208L408 208L408 217L571 217L571 227L337 227L337 236L486 236L486 246L249 246L249 255L478 255L478 265L374 265L374 274L216 274L216 284L836 284L836 293L0 293L0 284L0 284L0 274L0 274L0 265L0 265L0 255L0 255L0 246L0 246L0 236L0 236L0 227L0 227L0 217L0 217L0 208L0 208L0 198L0 198L0 189L0 189L0 180L0 180L0 170L0 170L0 161L0 161L0 151L0 151L0 142L0 142L0 132L0 132L0 123L0 123L0 113L0 113L0 104L0 104L0 95L0 95L0 85L0 85L0 76L0 76L0 66L0 66L0 57L0 57L0 47L0 47L0 38L0 38L0 28L0 28L0 19L0 19L0 9L0 9L0 0L0 0Z" fill="#2c2b2b" stroke-linecap="square" stroke-linejoin="miter"></path></svg>