<svg id="visual" viewBox="0 0 1400 56" width="1400" height="56" xmlns="http://www.w3.org/2000/svg" xmlns:xlink="http://www.w3.org/1999/xlink" version="1.1"><rect x="0" y="0" width="1400" height="56" fill="#760e12"></rect><defs><linearGradient id="grad1_0" x1="96%" y1="0%" x2="100%" y2="100%"><stop offset="-450%" stop-color="#1e1d1d" stop-opacity="1"></stop><stop offset="550%" stop-color="#1e1d1d" stop-opacity="1"></stop></linearGradient></defs><defs><linearGradient id="grad1_1" x1="96%" y1="0%" x2="100%" y2="100%"><stop offset="-450%" stop-color="#1e1d1d" stop-opacity="1"></stop><stop offset="550%" stop-color="#361d1d" stop-opacity="1"></stop></linearGradient></defs><defs><linearGradient id="grad1_2" x1="96%" y1="0%" x2="100%" y2="100%"><stop offset="-450%" stop-color="#4c1b1c" stop-opacity="1"></stop><stop offset="550%" stop-color="#361d1d" stop-opacity="1"></stop></linearGradient></defs><defs><linearGradient id="grad1_3" x1="96%" y1="0%" x2="100%" y2="100%"><stop offset="-450%" stop-color="#4c1b1c" stop-opacity="1"></stop><stop offset="550%" stop-color="#611718" stop-opacity="1"></stop></linearGradient></defs><defs><linearGradient id="grad1_4" x1="96%" y1="0%" x2="100%" y2="100%"><stop offset="-450%" stop-color="#760e12" stop-opacity="1"></stop><stop offset="550%" stop-color="#611718" stop-opacity="1"></stop></linearGradient></defs><defs><linearGradient id="grad2_0" x1="0%" y1="0%" x2="4%" y2="100%"><stop offset="-450%" stop-color="#1e1d1d" stop-opacity="1"></stop><stop offset="550%" stop-color="#1e1d1d" stop-opacity="1"></stop></linearGradient></defs><defs><linearGradient id="grad2_1" x1="0%" y1="0%" x2="4%" y2="100%"><stop offset="-450%" stop-color="#361d1d" stop-opacity="1"></stop><stop offset="550%" stop-color="#1e1d1d" stop-opacity="1"></stop></linearGradient></defs><defs><linearGradient id="grad2_2" x1="0%" y1="0%" x2="4%" y2="100%"><stop offset="-450%" stop-color="#361d1d" stop-opacity="1"></stop><stop offset="550%" stop-color="#4c1b1c" stop-opacity="1"></stop></linearGradient></defs><defs><linearGradient id="grad2_3" x1="0%" y1="0%" x2="4%" y2="100%"><stop offset="-450%" stop-color="#611718" stop-opacity="1"></stop><stop offset="550%" stop-color="#4c1b1c" stop-opacity="1"></stop></linearGradient></defs><defs><linearGradient id="grad2_4" x1="0%" y1="0%" x2="4%" y2="100%"><stop offset="-450%" stop-color="#611718" stop-opacity="1"></stop><stop offset="550%" stop-color="#760e12" stop-opacity="1"></stop></linearGradient></defs><g transform="translate(1400, 0)"><path d="M0 50.4C-3.1 48.8 -6.2 47.1 -9.2 46.1C-12.2 45.1 -15.1 44.7 -18.4 44.3C-21.6 44 -25.2 43.6 -28 41.9C-30.8 40.2 -32.8 37.1 -33.9 33.9C-35.1 30.8 -35.4 27.4 -37.4 25C-39.5 22.6 -43.3 21 -44.3 18.4C-45.4 15.7 -43.6 12 -44.1 8.8C-44.7 5.5 -47.5 2.8 -50.4 0L0 0Z" fill="#6c1315"></path><path d="M0 40.3C-2.5 39 -4.9 37.7 -7.3 36.9C-9.7 36.1 -12.1 35.8 -14.7 35.5C-17.3 35.2 -20.2 34.9 -22.4 33.5C-24.6 32.2 -26.2 29.7 -27.2 27.2C-28.1 24.6 -28.3 21.9 -29.9 20C-31.6 18.1 -34.7 16.8 -35.5 14.7C-36.3 12.6 -34.9 9.6 -35.3 7C-35.7 4.4 -38 2.2 -40.3 0L0 0Z" fill="#571a1a"></path><path d="M0 30.2C-1.8 29.3 -3.7 28.3 -5.5 27.7C-7.3 27.1 -9.1 26.8 -11 26.6C-13 26.4 -15.1 26.2 -16.8 25.1C-18.5 24.1 -19.7 22.3 -20.4 20.4C-21 18.5 -21.2 16.5 -22.4 15C-23.7 13.5 -26 12.6 -26.6 11C-27.2 9.4 -26.2 7.2 -26.5 5.3C-26.8 3.3 -28.5 1.7 -30.2 0L0 0Z" fill="#411d1d"></path><path d="M0 20.2C-1.2 19.5 -2.5 18.8 -3.7 18.4C-4.9 18 -6 17.9 -7.3 17.7C-8.7 17.6 -10.1 17.4 -11.2 16.8C-12.3 16.1 -13.1 14.9 -13.6 13.6C-14 12.3 -14.1 11 -15 10C-15.8 9 -17.3 8.4 -17.7 7.3C-18.2 6.3 -17.4 4.8 -17.7 3.5C-17.9 2.2 -19 1.1 -20.2 0L0 0Z" fill="#2a1d1d"></path><path d="M0 10.1C-0.6 9.8 -1.2 9.4 -1.8 9.2C-2.4 9 -3 8.9 -3.7 8.9C-4.3 8.8 -5 8.7 -5.6 8.4C-6.2 8 -6.6 7.4 -6.8 6.8C-7 6.2 -7.1 5.5 -7.5 5C-7.9 4.5 -8.7 4.2 -8.9 3.7C-9.1 3.1 -8.7 2.4 -8.8 1.8C-8.9 1.1 -9.5 0.6 -10.1 0L0 0Z" fill="#1e1d1d"></path></g><g transform="translate(0, 56)"><path d="M0 -50.4C2.9 -47.8 5.9 -45.3 8.8 -44.1C11.7 -43 14.5 -43.2 18 -43.4C21.4 -43.6 25.5 -43.8 28 -41.9C30.5 -40 31.5 -36.1 33.2 -33.2C34.9 -30.4 37.3 -28.5 39.1 -26.1C40.8 -23.7 41.9 -20.8 43.4 -18C44.9 -15.2 46.8 -12.5 48.1 -9.6C49.3 -6.6 49.8 -3.3 50.4 0L0 0Z" fill="#6c1315"></path><path d="M0 -40.3C2.4 -38.3 4.7 -36.2 7 -35.3C9.3 -34.4 11.6 -34.6 14.4 -34.7C17.1 -34.9 20.4 -35 22.4 -33.5C24.4 -32 25.2 -28.9 26.6 -26.6C27.9 -24.3 29.9 -22.8 31.3 -20.9C32.7 -19 33.5 -16.6 34.7 -14.4C35.9 -12.2 37.5 -10 38.4 -7.6C39.4 -5.3 39.9 -2.6 40.3 0L0 0Z" fill="#571a1a"></path><path d="M0 -30.2C1.8 -28.7 3.5 -27.2 5.3 -26.5C7 -25.8 8.7 -25.9 10.8 -26.1C12.9 -26.2 15.3 -26.3 16.8 -25.1C18.3 -24 18.9 -21.7 19.9 -19.9C21 -18.2 22.4 -17.1 23.4 -15.7C24.5 -14.2 25.2 -12.5 26.1 -10.8C27 -9.1 28.1 -7.5 28.8 -5.7C29.6 -4 29.9 -2 30.2 0L0 0Z" fill="#411d1d"></path><path d="M0 -20.2C1.2 -19.1 2.4 -18.1 3.5 -17.7C4.7 -17.2 5.8 -17.3 7.2 -17.4C8.6 -17.4 10.2 -17.5 11.2 -16.8C12.2 -16 12.6 -14.4 13.3 -13.3C14 -12.1 14.9 -11.4 15.6 -10.4C16.3 -9.5 16.8 -8.3 17.4 -7.2C18 -6.1 18.7 -5 19.2 -3.8C19.7 -2.6 19.9 -1.3 20.2 0L0 0Z" fill="#2a1d1d"></path><path d="M0 -10.1C0.6 -9.6 1.2 -9.1 1.8 -8.8C2.3 -8.6 2.9 -8.6 3.6 -8.7C4.3 -8.7 5.1 -8.8 5.6 -8.4C6.1 -8 6.3 -7.2 6.6 -6.6C7 -6.1 7.5 -5.7 7.8 -5.2C8.2 -4.7 8.4 -4.2 8.7 -3.6C9 -3 9.4 -2.5 9.6 -1.9C9.9 -1.3 10 -0.7 10.1 0L0 0Z" fill="#1e1d1d"></path></g></svg>