<svg id="visual" viewBox="0 0 1024 200" width="1024" height="200" xmlns="http://www.w3.org/2000/svg" xmlns:xlink="http://www.w3.org/1999/xlink" version="1.1"><path d="M951 200L951 200L951 188L951 188L951 176L951 176L951 165L951 165L951 153L951 153L951 141L931 141L931 129L931 129L931 118L941 118L941 106L931 106L931 94L941 94L941 82L951 82L951 71L931 71L931 59L931 59L931 47L941 47L941 35L941 35L941 24L951 24L951 12L941 12L941 0L1024 0L1024 12L1024 12L1024 24L1024 24L1024 35L1024 35L1024 47L1024 47L1024 59L1024 59L1024 71L1024 71L1024 82L1024 82L1024 94L1024 94L1024 106L1024 106L1024 118L1024 118L1024 129L1024 129L1024 141L1024 141L1024 153L1024 153L1024 165L1024 165L1024 176L1024 176L1024 188L1024 188L1024 200L1024 200Z" fill="#7b7b7b"></path><path d="M716 200L736 200L736 188L736 188L736 176L716 176L716 165L716 165L716 153L757 153L757 141L706 141L706 129L747 129L747 118L716 118L716 106L757 106L757 94L706 94L706 82L726 82L726 71L685 71L685 59L716 59L716 47L706 47L706 35L736 35L736 24L726 24L726 12L685 12L685 0L942 0L942 12L952 12L952 24L942 24L942 35L942 35L942 47L932 47L932 59L932 59L932 71L952 71L952 82L942 82L942 94L932 94L932 106L942 106L942 118L932 118L932 129L932 129L932 141L952 141L952 153L952 153L952 165L952 165L952 176L952 176L952 188L952 188L952 200L952 200Z" fill="#898989"></path><path d="M624 200L613 200L613 188L634 188L634 176L634 176L634 165L634 165L634 153L654 153L654 141L603 141L603 129L644 129L644 118L603 118L603 106L654 106L654 94L593 94L593 82L613 82L613 71L583 71L583 59L634 59L634 47L603 47L603 35L624 35L624 24L613 24L613 12L583 12L583 0L686 0L686 12L727 12L727 24L737 24L737 35L707 35L707 47L717 47L717 59L686 59L686 71L727 71L727 82L707 82L707 94L758 94L758 106L717 106L717 118L748 118L748 129L707 129L707 141L758 141L758 153L717 153L717 165L717 165L717 176L737 176L737 188L737 188L737 200L717 200Z" fill="#979797"></path><path d="M572 200L572 200L572 188L583 188L583 176L583 176L583 165L593 165L593 153L603 153L603 141L542 141L542 129L593 129L593 118L552 118L552 106L613 106L613 94L531 94L531 82L572 82L572 71L531 71L531 59L583 59L583 47L562 47L562 35L562 35L562 24L572 24L572 12L542 12L542 0L584 0L584 12L614 12L614 24L625 24L625 35L604 35L604 47L635 47L635 59L584 59L584 71L614 71L614 82L594 82L594 94L655 94L655 106L604 106L604 118L645 118L645 129L604 129L604 141L655 141L655 153L635 153L635 165L635 165L635 176L635 176L635 188L614 188L614 200L625 200Z" fill="#a5a5a5"></path><path d="M521 200L531 200L531 188L531 188L531 176L542 176L542 165L552 165L552 153L552 153L552 141L501 141L501 129L552 129L552 118L501 118L501 106L572 106L572 94L480 94L480 82L521 82L521 71L480 71L480 59L542 59L542 47L521 47L521 35L521 35L521 24L521 24L521 12L491 12L491 0L543 0L543 12L573 12L573 24L563 24L563 35L563 35L563 47L584 47L584 59L532 59L532 71L573 71L573 82L532 82L532 94L614 94L614 106L553 106L553 118L594 118L594 129L543 129L543 141L604 141L604 153L594 153L594 165L584 165L584 176L584 176L584 188L573 188L573 200L573 200Z" fill="#b4b4b4"></path><path d="M388 200L398 200L398 188L419 188L419 176L409 176L409 165L409 165L409 153L439 153L439 141L368 141L368 129L429 129L429 118L388 118L388 106L450 106L450 94L378 94L378 82L398 82L398 71L368 71L368 59L388 59L388 47L398 47L398 35L419 35L419 24L419 24L419 12L378 12L378 0L492 0L492 12L522 12L522 24L522 24L522 35L522 35L522 47L543 47L543 59L481 59L481 71L522 71L522 82L481 82L481 94L573 94L573 106L502 106L502 118L553 118L553 129L502 129L502 141L553 141L553 153L553 153L553 165L543 165L543 176L532 176L532 188L532 188L532 200L522 200Z" fill="#c2c2c2"></path><path d="M306 200L327 200L327 188L337 188L337 176L327 176L327 165L337 165L337 153L357 153L357 141L296 141L296 129L357 129L357 118L316 118L316 106L388 106L388 94L306 94L306 82L337 82L337 71L306 71L306 59L327 59L327 47L327 47L327 35L357 35L357 24L357 24L357 12L316 12L316 0L379 0L379 12L420 12L420 24L420 24L420 35L399 35L399 47L389 47L389 59L369 59L369 71L399 71L399 82L379 82L379 94L451 94L451 106L389 106L389 118L430 118L430 129L369 129L369 141L440 141L440 153L410 153L410 165L410 165L410 176L420 176L420 188L399 188L399 200L389 200Z" fill="#d1d1d1"></path><path d="M132 200L122 200L122 188L112 188L112 176L112 176L112 165L132 165L132 153L122 153L122 141L122 141L122 129L132 129L132 118L112 118L112 106L112 106L112 94L122 94L122 82L122 82L122 71L112 71L112 59L101 59L101 47L112 47L112 35L122 35L122 24L132 24L132 12L122 12L122 0L317 0L317 12L358 12L358 24L358 24L358 35L328 35L328 47L328 47L328 59L307 59L307 71L338 71L338 82L307 82L307 94L389 94L389 106L317 106L317 118L358 118L358 129L297 129L297 141L358 141L358 153L338 153L338 165L328 165L328 176L338 176L338 188L328 188L328 200L307 200Z" fill="#e0e0e0"></path><path d="M71 200L60 200L60 188L50 188L50 176L50 176L50 165L71 165L71 153L71 153L71 141L71 141L71 129L71 129L71 118L60 118L60 106L50 106L50 94L60 94L60 82L60 82L60 71L50 71L50 59L50 59L50 47L60 47L60 35L71 35L71 24L71 24L71 12L71 12L71 0L123 0L123 12L133 12L133 24L123 24L123 35L113 35L113 47L102 47L102 59L113 59L113 71L123 71L123 82L123 82L123 94L113 94L113 106L113 106L113 118L133 118L133 129L123 129L123 141L123 141L123 153L133 153L133 165L113 165L113 176L113 176L113 188L123 188L123 200L133 200Z" fill="#f0f0f0"></path><path d="M0 200L0 200L0 188L0 188L0 176L0 176L0 165L0 165L0 153L0 153L0 141L0 141L0 129L0 129L0 118L0 118L0 106L0 106L0 94L0 94L0 82L0 82L0 71L0 71L0 59L0 59L0 47L0 47L0 35L0 35L0 24L0 24L0 12L0 12L0 0L72 0L72 12L72 12L72 24L72 24L72 35L61 35L61 47L51 47L51 59L51 59L51 71L61 71L61 82L61 82L61 94L51 94L51 106L61 106L61 118L72 118L72 129L72 129L72 141L72 141L72 153L72 153L72 165L51 165L51 176L51 176L51 188L61 188L61 200L72 200Z" fill="#ffffff"></path></svg>