<svg id="visual" viewBox="0 0 1310 200" width="1310" height="200" xmlns="http://www.w3.org/2000/svg" xmlns:xlink="http://www.w3.org/1999/xlink" version="1.1"><path d="M1217 200L1217 200L1217 188L1217 188L1217 176L1217 176L1217 165L1217 165L1217 153L1217 153L1217 141L1191 141L1191 129L1191 129L1191 118L1204 118L1204 106L1191 106L1191 94L1204 94L1204 82L1217 82L1217 71L1191 71L1191 59L1191 59L1191 47L1204 47L1204 35L1204 35L1204 24L1217 24L1217 12L1204 12L1204 0L1310 0L1310 12L1310 12L1310 24L1310 24L1310 35L1310 35L1310 47L1310 47L1310 59L1310 59L1310 71L1310 71L1310 82L1310 82L1310 94L1310 94L1310 106L1310 106L1310 118L1310 118L1310 129L1310 129L1310 141L1310 141L1310 153L1310 153L1310 165L1310 165L1310 176L1310 176L1310 188L1310 188L1310 200L1310 200Z" fill="#d3d3d3"></path><path d="M916 200L942 200L942 188L942 188L942 176L916 176L916 165L916 165L916 153L968 153L968 141L903 141L903 129L955 129L955 118L916 118L916 106L968 106L968 94L903 94L903 82L929 82L929 71L877 71L877 59L916 59L916 47L903 47L903 35L942 35L942 24L929 24L929 12L877 12L877 0L1205 0L1205 12L1218 12L1218 24L1205 24L1205 35L1205 35L1205 47L1192 47L1192 59L1192 59L1192 71L1218 71L1218 82L1205 82L1205 94L1192 94L1192 106L1205 106L1205 118L1192 118L1192 129L1192 129L1192 141L1218 141L1218 153L1218 153L1218 165L1218 165L1218 176L1218 176L1218 188L1218 188L1218 200L1218 200Z" fill="#d8d8d8"></path><path d="M798 200L785 200L785 188L811 188L811 176L811 176L811 165L811 165L811 153L837 153L837 141L772 141L772 129L824 129L824 118L772 118L772 106L837 106L837 94L759 94L759 82L785 82L785 71L746 71L746 59L811 59L811 47L772 47L772 35L798 35L798 24L785 24L785 12L746 12L746 0L878 0L878 12L930 12L930 24L943 24L943 35L904 35L904 47L917 47L917 59L878 59L878 71L930 71L930 82L904 82L904 94L969 94L969 106L917 106L917 118L956 118L956 129L904 129L904 141L969 141L969 153L917 153L917 165L917 165L917 176L943 176L943 188L943 188L943 200L917 200Z" fill="#dddddd"></path><path d="M733 200L733 200L733 188L746 188L746 176L746 176L746 165L759 165L759 153L772 153L772 141L693 141L693 129L759 129L759 118L706 118L706 106L785 106L785 94L680 94L680 82L733 82L733 71L680 71L680 59L746 59L746 47L720 47L720 35L720 35L720 24L733 24L733 12L693 12L693 0L747 0L747 12L786 12L786 24L799 24L799 35L773 35L773 47L812 47L812 59L747 59L747 71L786 71L786 82L760 82L760 94L838 94L838 106L773 106L773 118L825 118L825 129L773 129L773 141L838 141L838 153L812 153L812 165L812 165L812 176L812 176L812 188L786 188L786 200L799 200Z" fill="#e2e2e2"></path><path d="M667 200L680 200L680 188L680 188L680 176L693 176L693 165L706 165L706 153L706 153L706 141L641 141L641 129L706 129L706 118L641 118L641 106L733 106L733 94L615 94L615 82L667 82L667 71L615 71L615 59L693 59L693 47L667 47L667 35L667 35L667 24L667 24L667 12L628 12L628 0L694 0L694 12L734 12L734 24L721 24L721 35L721 35L721 47L747 47L747 59L681 59L681 71L734 71L734 82L681 82L681 94L786 94L786 106L707 106L707 118L760 118L760 129L694 129L694 141L773 141L773 153L760 153L760 165L747 165L747 176L747 176L747 188L734 188L734 200L734 200Z" fill="#e7e7e7"></path><path d="M497 200L510 200L510 188L536 188L536 176L523 176L523 165L523 165L523 153L562 153L562 141L471 141L471 129L549 129L549 118L497 118L497 106L575 106L575 94L484 94L484 82L510 82L510 71L471 71L471 59L497 59L497 47L510 47L510 35L536 35L536 24L536 24L536 12L484 12L484 0L629 0L629 12L668 12L668 24L668 24L668 35L668 35L668 47L694 47L694 59L616 59L616 71L668 71L668 82L616 82L616 94L734 94L734 106L642 106L642 118L707 118L707 129L642 129L642 141L707 141L707 153L707 153L707 165L694 165L694 176L681 176L681 188L681 188L681 200L668 200Z" fill="#ebebeb"></path><path d="M392 200L418 200L418 188L431 188L431 176L418 176L418 165L431 165L431 153L457 153L457 141L379 141L379 129L457 129L457 118L405 118L405 106L497 106L497 94L392 94L392 82L431 82L431 71L392 71L392 59L418 59L418 47L418 47L418 35L457 35L457 24L457 24L457 12L405 12L405 0L485 0L485 12L537 12L537 24L537 24L537 35L511 35L511 47L498 47L498 59L472 59L472 71L511 71L511 82L485 82L485 94L576 94L576 106L498 106L498 118L550 118L550 129L472 129L472 141L563 141L563 153L524 153L524 165L524 165L524 176L537 176L537 188L511 188L511 200L498 200Z" fill="#f0f0f0"></path><path d="M169 200L156 200L156 188L143 188L143 176L143 176L143 165L169 165L169 153L156 153L156 141L156 141L156 129L169 129L169 118L143 118L143 106L143 106L143 94L156 94L156 82L156 82L156 71L143 71L143 59L130 59L130 47L143 47L143 35L156 35L156 24L169 24L169 12L156 12L156 0L406 0L406 12L458 12L458 24L458 24L458 35L419 35L419 47L419 47L419 59L393 59L393 71L432 71L432 82L393 82L393 94L498 94L498 106L406 106L406 118L458 118L458 129L380 129L380 141L458 141L458 153L432 153L432 165L419 165L419 176L432 176L432 188L419 188L419 200L393 200Z" fill="#f5f5f5"></path><path d="M91 200L78 200L78 188L65 188L65 176L65 176L65 165L91 165L91 153L91 153L91 141L91 141L91 129L91 129L91 118L78 118L78 106L65 106L65 94L78 94L78 82L78 82L78 71L65 71L65 59L65 59L65 47L78 47L78 35L91 35L91 24L91 24L91 12L91 12L91 0L157 0L157 12L170 12L170 24L157 24L157 35L144 35L144 47L131 47L131 59L144 59L144 71L157 71L157 82L157 82L157 94L144 94L144 106L144 106L144 118L170 118L170 129L157 129L157 141L157 141L157 153L170 153L170 165L144 165L144 176L144 176L144 188L157 188L157 200L170 200Z" fill="#fafafa"></path><path d="M0 200L0 200L0 188L0 188L0 176L0 176L0 165L0 165L0 153L0 153L0 141L0 141L0 129L0 129L0 118L0 118L0 106L0 106L0 94L0 94L0 82L0 82L0 71L0 71L0 59L0 59L0 47L0 47L0 35L0 35L0 24L0 24L0 12L0 12L0 0L92 0L92 12L92 12L92 24L92 24L92 35L79 35L79 47L66 47L66 59L66 59L66 71L79 71L79 82L79 82L79 94L66 94L66 106L79 106L79 118L92 118L92 129L92 129L92 141L92 141L92 153L92 153L92 165L66 165L66 176L66 176L66 188L79 188L79 200L92 200Z" fill="#ffffff"></path></svg>