<svg id="visual" viewBox="0 0 1250 200" width="1250" height="200" xmlns="http://www.w3.org/2000/svg" xmlns:xlink="http://www.w3.org/1999/xlink" version="1.1"><path d="M1162 200L1162 200L1162 188L1162 188L1162 176L1162 176L1162 165L1162 165L1162 153L1162 153L1162 141L1137 141L1137 129L1137 129L1137 118L1149 118L1149 106L1137 106L1137 94L1149 94L1149 82L1162 82L1162 71L1137 71L1137 59L1137 59L1137 47L1149 47L1149 35L1149 35L1149 24L1162 24L1162 12L1149 12L1149 0L1250 0L1250 12L1250 12L1250 24L1250 24L1250 35L1250 35L1250 47L1250 47L1250 59L1250 59L1250 71L1250 71L1250 82L1250 82L1250 94L1250 94L1250 106L1250 106L1250 118L1250 118L1250 129L1250 129L1250 141L1250 141L1250 153L1250 153L1250 165L1250 165L1250 176L1250 176L1250 188L1250 188L1250 200L1250 200Z" fill="#7b7b7b"></path><path d="M874 200L899 200L899 188L899 188L899 176L874 176L874 165L874 165L874 153L924 153L924 141L861 141L861 129L912 129L912 118L874 118L874 106L924 106L924 94L861 94L861 82L887 82L887 71L836 71L836 59L874 59L874 47L861 47L861 35L899 35L899 24L887 24L887 12L836 12L836 0L1150 0L1150 12L1163 12L1163 24L1150 24L1150 35L1150 35L1150 47L1138 47L1138 59L1138 59L1138 71L1163 71L1163 82L1150 82L1150 94L1138 94L1138 106L1150 106L1150 118L1138 118L1138 129L1138 129L1138 141L1163 141L1163 153L1163 153L1163 165L1163 165L1163 176L1163 176L1163 188L1163 188L1163 200L1163 200Z" fill="#898989"></path><path d="M762 200L749 200L749 188L774 188L774 176L774 176L774 165L774 165L774 153L799 153L799 141L737 141L737 129L787 129L787 118L737 118L737 106L799 106L799 94L724 94L724 82L749 82L749 71L712 71L712 59L774 59L774 47L737 47L737 35L762 35L762 24L749 24L749 12L712 12L712 0L837 0L837 12L888 12L888 24L900 24L900 35L862 35L862 47L875 47L875 59L837 59L837 71L888 71L888 82L862 82L862 94L925 94L925 106L875 106L875 118L913 118L913 129L862 129L862 141L925 141L925 153L875 153L875 165L875 165L875 176L900 176L900 188L900 188L900 200L875 200Z" fill="#979797"></path><path d="M699 200L699 200L699 188L712 188L712 176L712 176L712 165L724 165L724 153L737 153L737 141L662 141L662 129L724 129L724 118L674 118L674 106L749 106L749 94L649 94L649 82L699 82L699 71L649 71L649 59L712 59L712 47L687 47L687 35L687 35L687 24L699 24L699 12L662 12L662 0L713 0L713 12L750 12L750 24L763 24L763 35L738 35L738 47L775 47L775 59L713 59L713 71L750 71L750 82L725 82L725 94L800 94L800 106L738 106L738 118L788 118L788 129L738 129L738 141L800 141L800 153L775 153L775 165L775 165L775 176L775 176L775 188L750 188L750 200L763 200Z" fill="#a5a5a5"></path><path d="M637 200L649 200L649 188L649 188L649 176L662 176L662 165L674 165L674 153L674 153L674 141L612 141L612 129L674 129L674 118L612 118L612 106L699 106L699 94L587 94L587 82L637 82L637 71L587 71L587 59L662 59L662 47L637 47L637 35L637 35L637 24L637 24L637 12L599 12L599 0L663 0L663 12L700 12L700 24L688 24L688 35L688 35L688 47L713 47L713 59L650 59L650 71L700 71L700 82L650 82L650 94L750 94L750 106L675 106L675 118L725 118L725 129L663 129L663 141L738 141L738 153L725 153L725 165L713 165L713 176L713 176L713 188L700 188L700 200L700 200Z" fill="#b4b4b4"></path><path d="M474 200L487 200L487 188L512 188L512 176L499 176L499 165L499 165L499 153L537 153L537 141L449 141L449 129L524 129L524 118L474 118L474 106L549 106L549 94L462 94L462 82L487 82L487 71L449 71L449 59L474 59L474 47L487 47L487 35L512 35L512 24L512 24L512 12L462 12L462 0L600 0L600 12L638 12L638 24L638 24L638 35L638 35L638 47L663 47L663 59L588 59L588 71L638 71L638 82L588 82L588 94L700 94L700 106L613 106L613 118L675 118L675 129L613 129L613 141L675 141L675 153L675 153L675 165L663 165L663 176L650 176L650 188L650 188L650 200L638 200Z" fill="#c2c2c2"></path><path d="M374 200L399 200L399 188L411 188L411 176L399 176L399 165L411 165L411 153L437 153L437 141L362 141L362 129L437 129L437 118L387 118L387 106L474 106L474 94L374 94L374 82L411 82L411 71L374 71L374 59L399 59L399 47L399 47L399 35L437 35L437 24L437 24L437 12L387 12L387 0L463 0L463 12L513 12L513 24L513 24L513 35L488 35L488 47L475 47L475 59L450 59L450 71L488 71L488 82L463 82L463 94L550 94L550 106L475 106L475 118L525 118L525 129L450 129L450 141L538 141L538 153L500 153L500 165L500 165L500 176L513 176L513 188L488 188L488 200L475 200Z" fill="#d1d1d1"></path><path d="M162 200L149 200L149 188L136 188L136 176L136 176L136 165L162 165L162 153L149 153L149 141L149 141L149 129L162 129L162 118L136 118L136 106L136 106L136 94L149 94L149 82L149 82L149 71L136 71L136 59L124 59L124 47L136 47L136 35L149 35L149 24L162 24L162 12L149 12L149 0L388 0L388 12L438 12L438 24L438 24L438 35L400 35L400 47L400 47L400 59L375 59L375 71L412 71L412 82L375 82L375 94L475 94L475 106L388 106L388 118L438 118L438 129L363 129L363 141L438 141L438 153L412 153L412 165L400 165L400 176L412 176L412 188L400 188L400 200L375 200Z" fill="#e0e0e0"></path><path d="M86 200L74 200L74 188L62 188L62 176L62 176L62 165L86 165L86 153L86 153L86 141L86 141L86 129L86 129L86 118L74 118L74 106L62 106L62 94L74 94L74 82L74 82L74 71L62 71L62 59L62 59L62 47L74 47L74 35L86 35L86 24L86 24L86 12L86 12L86 0L150 0L150 12L163 12L163 24L150 24L150 35L137 35L137 47L125 47L125 59L137 59L137 71L150 71L150 82L150 82L150 94L137 94L137 106L137 106L137 118L163 118L163 129L150 129L150 141L150 141L150 153L163 153L163 165L137 165L137 176L137 176L137 188L150 188L150 200L163 200Z" fill="#f0f0f0"></path><path d="M0 200L0 200L0 188L0 188L0 176L0 176L0 165L0 165L0 153L0 153L0 141L0 141L0 129L0 129L0 118L0 118L0 106L0 106L0 94L0 94L0 82L0 82L0 71L0 71L0 59L0 59L0 47L0 47L0 35L0 35L0 24L0 24L0 12L0 12L0 0L87 0L87 12L87 12L87 24L87 24L87 35L75 35L75 47L63 47L63 59L63 59L63 71L75 71L75 82L75 82L75 94L63 94L63 106L75 106L75 118L87 118L87 129L87 129L87 141L87 141L87 153L87 153L87 165L63 165L63 176L63 176L63 188L75 188L75 200L87 200Z" fill="#ffffff"></path></svg>