<svg id="visual" viewBox="0 0 1014 293" width="1014" height="293" xmlns="http://www.w3.org/2000/svg" xmlns:xlink="http://www.w3.org/1999/xlink" version="1.1"><rect x="0" y="0" width="1014" height="293" fill="#4a4a4a"></rect><path d="M676 0L849 0L849 9L442 9L442 19L288 19L288 28L485 28L485 38L78 38L78 47L539 47L539 57L240 57L240 66L854 66L854 76L604 76L604 85L866 85L866 95L928 95L928 104L59 104L59 113L705 113L705 123L678 123L678 132L142 132L142 142L902 142L902 151L464 151L464 161L398 161L398 170L106 170L106 180L592 180L592 189L149 189L149 198L256 198L256 208L556 208L556 217L58 217L58 227L846 227L846 236L92 236L92 246L113 246L113 255L947 255L947 265L221 265L221 274L405 274L405 284L218 284L218 293L0 293L0 284L0 284L0 274L0 274L0 265L0 265L0 255L0 255L0 246L0 246L0 236L0 236L0 227L0 227L0 217L0 217L0 208L0 208L0 198L0 198L0 189L0 189L0 180L0 180L0 170L0 170L0 161L0 161L0 151L0 151L0 142L0 142L0 132L0 132L0 123L0 123L0 113L0 113L0 104L0 104L0 95L0 95L0 85L0 85L0 76L0 76L0 66L0 66L0 57L0 57L0 47L0 47L0 38L0 38L0 28L0 28L0 19L0 19L0 9L0 9L0 0L0 0Z" fill="#2c2b2b" stroke-linecap="square" stroke-linejoin="miter"></path></svg>