<svg xmlns="http://www.w3.org/2000/svg" xmlns:xlink="http://www.w3.org/1999/xlink" width="1000" zoomAndPan="magnify" viewBox="0 0 750 749.999995" height="1000" preserveAspectRatio="xMidYMid meet" version="1.0"><defs><clipPath id="464793bee4"><path d="M 8.601562 0 L 624 0 L 624 750 L 8.601562 750 Z M 8.601562 0 " clip-rule="nonzero"/></clipPath><clipPath id="f7bc1ec0a9"><path d="M 626 0 L 741.351562 0 L 741.351562 750 L 626 750 Z M 626 0 " clip-rule="nonzero"/></clipPath></defs><g clip-path="url(#464793bee4)"><path fill="#ffffff" d="M 30.707031 644.023438 L 227.617188 641.378906 L 227.617188 700.472656 L 30.707031 701.664062 Z M 30.707031 607.867188 L 67.71875 607.21875 L 67.71875 628.8125 L 30.707031 629.375 Z M 79.546875 607.003906 L 116.554688 606.332031 L 116.554688 628.046875 L 79.546875 628.640625 Z M 141.761719 605.867188 L 178.769531 605.191406 L 178.769531 627.101562 L 141.761719 627.664062 Z M 190.605469 604.984375 L 227.617188 604.316406 L 227.617188 626.351562 L 190.605469 626.929688 Z M 30.707031 571.726562 L 67.71875 570.890625 L 67.71875 592.496094 L 30.707031 593.222656 Z M 79.546875 570.640625 L 116.554688 569.785156 L 116.554688 591.511719 L 79.546875 592.257812 Z M 141.761719 569.222656 L 178.769531 568.367188 L 178.769531 590.277344 L 141.761719 591.011719 Z M 190.605469 568.121094 L 227.617188 567.273438 L 227.617188 589.3125 L 190.605469 590.023438 Z M 30.707031 535.582031 L 67.71875 534.585938 L 67.71875 556.15625 L 30.707031 557.078125 Z M 79.546875 534.261719 L 116.554688 533.25 L 116.554688 554.964844 L 79.546875 555.863281 Z M 141.761719 532.570312 L 178.769531 531.550781 L 178.769531 553.425781 L 141.761719 554.335938 Z M 190.605469 531.226562 L 227.617188 530.222656 L 227.617188 552.234375 L 190.605469 553.15625 Z M 30.707031 499.4375 L 67.71875 498.246094 L 67.71875 519.839844 L 30.707031 520.921875 Z M 79.546875 497.890625 L 116.554688 496.683594 L 116.554688 518.410156 L 79.546875 519.492188 Z M 141.761719 495.882812 L 178.769531 494.703125 L 178.769531 516.597656 L 141.761719 517.671875 Z M 190.605469 494.335938 L 227.617188 493.144531 L 227.617188 515.167969 L 190.605469 516.242188 Z M 30.707031 463.28125 L 67.71875 461.917969 L 67.71875 483.511719 L 30.707031 484.78125 Z M 79.546875 461.496094 L 116.554688 460.140625 L 116.554688 481.863281 L 79.546875 483.121094 Z M 141.761719 459.21875 L 178.769531 457.863281 L 178.769531 479.773438 L 141.761719 481.019531 Z M 190.605469 457.441406 L 227.617188 456.089844 L 227.617188 478.125 L 190.605469 479.371094 Z M 30.707031 427.128906 L 67.71875 425.601562 L 67.71875 447.207031 L 30.707031 448.636719 Z M 79.546875 425.132812 L 116.554688 423.597656 L 116.554688 445.328125 L 79.546875 446.75 Z M 141.761719 422.566406 L 178.769531 421.039062 L 178.769531 442.9375 L 141.761719 444.355469 Z M 190.605469 420.5625 L 227.617188 419.035156 L 227.617188 441.058594 L 190.605469 442.472656 Z M 30.707031 390.984375 L 67.71875 389.292969 L 67.71875 410.867188 L 30.707031 412.457031 Z M 79.546875 388.753906 L 116.554688 387.0625 L 116.554688 408.777344 L 79.546875 410.359375 Z M 141.761719 385.90625 L 178.769531 384.210938 L 178.769531 406.101562 L 141.761719 407.699219 Z M 190.605469 383.667969 L 227.617188 381.980469 L 227.617188 404 L 190.605469 405.597656 Z M 30.707031 354.816406 L 67.71875 352.96875 L 67.71875 374.550781 L 30.707031 376.304688 Z M 79.546875 352.371094 L 116.554688 350.503906 L 116.554688 372.21875 L 79.546875 373.984375 Z M 141.761719 349.242188 L 178.769531 347.375 L 178.769531 369.261719 L 141.761719 371.027344 Z M 190.605469 346.777344 L 227.617188 344.917969 L 227.617188 366.933594 L 190.605469 368.707031 Z M 30.707031 318.664062 L 67.71875 316.648438 L 67.71875 338.226562 L 30.707031 340.160156 Z M 79.546875 315.988281 L 116.554688 313.964844 L 116.554688 335.675781 L 79.546875 337.613281 Z M 141.761719 312.578125 L 178.769531 310.527344 L 178.769531 332.433594 L 141.761719 334.371094 Z M 190.605469 309.875 L 227.617188 307.863281 L 227.617188 329.886719 L 190.605469 331.816406 Z M 30.707031 282.519531 L 67.71875 280.320312 L 67.71875 301.910156 L 30.707031 304.011719 Z M 79.546875 279.613281 L 116.554688 277.414062 L 116.554688 299.132812 L 79.546875 301.238281 Z M 141.761719 275.917969 L 178.769531 273.699219 L 178.769531 295.605469 L 141.761719 297.714844 Z M 190.605469 273.003906 L 227.617188 270.804688 L 227.617188 292.820312 L 190.605469 294.9375 Z M 271.816406 640.796875 L 601.886719 636.332031 L 601.886719 698.164062 L 271.816406 700.199219 Z M 271.816406 603.527344 L 308.824219 602.867188 L 308.824219 625.105469 L 271.816406 625.671875 Z M 320.660156 602.648438 L 357.671875 601.976562 L 357.671875 624.359375 L 320.660156 624.921875 Z M 369.511719 601.769531 L 406.515625 601.074219 L 406.515625 623.609375 L 369.511719 624.175781 Z M 467.195312 599.984375 L 504.203125 599.320312 L 504.203125 622.105469 L 467.195312 622.671875 Z M 516.039062 599.117188 L 553.046875 598.433594 L 553.046875 621.359375 L 516.039062 621.933594 Z M 564.882812 598.230469 L 601.886719 597.558594 L 601.886719 620.609375 L 564.882812 621.164062 Z M 271.816406 566.265625 L 308.824219 565.433594 L 308.824219 587.671875 L 271.816406 588.421875 Z M 320.660156 565.160156 L 357.671875 564.316406 L 357.671875 586.691406 L 320.660156 587.449219 Z M 369.511719 564.046875 L 406.515625 563.207031 L 406.515625 585.734375 L 369.511719 586.472656 Z M 467.195312 561.832031 L 504.203125 561 L 504.203125 583.773438 L 467.195312 584.519531 Z M 516.039062 560.726562 L 553.046875 559.894531 L 553.046875 582.808594 L 516.039062 583.546875 Z M 564.882812 559.625 L 601.886719 558.777344 L 601.886719 581.835938 L 564.882812 582.5625 Z M 271.816406 529.015625 L 308.824219 528.007812 L 308.824219 550.238281 L 271.816406 551.140625 Z M 320.660156 527.683594 L 357.671875 526.664062 L 357.671875 549.050781 L 320.660156 549.960938 Z M 369.511719 526.351562 L 406.515625 525.332031 L 406.515625 547.847656 L 369.511719 548.746094 Z M 467.195312 523.675781 L 504.203125 522.667969 L 504.203125 545.441406 L 467.195312 546.351562 Z M 516.039062 522.34375 L 553.046875 521.347656 L 553.046875 544.25 L 516.039062 545.160156 Z M 564.882812 521.019531 L 601.886719 520 L 601.886719 543.046875 L 564.882812 543.945312 Z M 271.816406 491.742188 L 308.824219 490.5625 L 308.824219 512.808594 L 271.816406 513.882812 Z M 320.660156 490.195312 L 357.671875 489.003906 L 357.671875 511.386719 L 320.660156 512.472656 Z M 369.511719 488.613281 L 406.515625 487.457031 L 406.515625 509.960938 L 369.511719 511.03125 Z M 467.195312 485.515625 L 504.203125 484.324219 L 504.203125 507.097656 L 467.195312 508.195312 Z M 516.039062 483.964844 L 553.046875 482.773438 L 553.046875 505.679688 L 516.039062 506.761719 Z M 564.882812 482.40625 L 601.886719 481.226562 L 601.886719 504.269531 L 564.882812 505.332031 Z M 271.816406 454.488281 L 308.824219 453.117188 L 308.824219 475.375 L 271.816406 476.632812 Z M 320.660156 452.699219 L 357.671875 451.339844 L 357.671875 473.738281 L 320.660156 474.984375 Z M 369.511719 450.921875 L 406.515625 449.554688 L 406.515625 472.089844 L 369.511719 473.328125 Z M 467.195312 447.355469 L 504.203125 445.992188 L 504.203125 468.789062 L 467.195312 470.042969 Z M 516.039062 445.558594 L 553.046875 444.214844 L 553.046875 467.140625 L 516.039062 468.386719 Z M 564.882812 443.792969 L 601.886719 442.425781 L 601.886719 465.496094 L 564.882812 466.742188 Z M 271.816406 417.226562 L 308.824219 415.699219 L 308.824219 437.964844 L 271.816406 439.371094 Z M 320.660156 415.210938 L 357.671875 413.695312 L 357.671875 436.078125 L 320.660156 437.496094 Z M 369.511719 413.207031 L 406.515625 411.675781 L 406.515625 434.203125 L 369.511719 435.632812 Z M 467.195312 409.183594 L 504.203125 407.671875 L 504.203125 430.453125 L 467.195312 431.871094 Z M 516.039062 407.179688 L 553.046875 405.652344 L 553.046875 428.582031 L 516.039062 430.011719 Z M 564.882812 405.179688 L 601.886719 403.664062 L 601.886719 426.714844 L 564.882812 428.125 Z M 271.816406 379.964844 L 308.824219 378.265625 L 308.824219 400.519531 L 271.816406 402.101562 Z M 320.660156 377.734375 L 357.671875 376.042969 L 357.671875 398.417969 L 320.660156 400.007812 Z M 369.511719 375.5 L 406.515625 373.800781 L 406.515625 396.316406 L 369.511719 397.90625 Z M 467.195312 371.035156 L 504.203125 369.347656 L 504.203125 392.128906 L 467.195312 393.714844 Z M 516.039062 368.816406 L 553.046875 367.117188 L 553.046875 390.03125 L 516.039062 391.609375 Z M 564.882812 366.574219 L 601.886719 364.894531 L 601.886719 387.9375 L 564.882812 389.511719 Z M 271.816406 342.695312 L 308.824219 340.832031 L 308.824219 363.0625 L 271.816406 364.84375 Z M 320.660156 340.222656 L 357.671875 338.371094 L 357.671875 360.753906 L 320.660156 362.5 Z M 369.511719 337.773438 L 406.515625 335.925781 L 406.515625 358.421875 L 369.511719 360.183594 Z M 467.195312 332.878906 L 504.203125 331.003906 L 504.203125 353.777344 L 467.195312 355.546875 Z M 516.039062 330.421875 L 553.046875 328.542969 L 553.046875 351.460938 L 516.039062 353.214844 Z M 564.882812 327.949219 L 601.886719 326.085938 L 601.886719 349.128906 L 564.882812 350.894531 Z M 271.816406 305.425781 L 308.824219 303.40625 L 308.824219 325.652344 L 271.816406 327.582031 Z M 320.660156 302.75 L 357.671875 300.710938 L 357.671875 323.105469 L 320.660156 325.035156 Z M 369.511719 300.074219 L 406.515625 298.023438 L 406.515625 320.558594 L 369.511719 322.488281 Z M 467.195312 294.707031 L 504.203125 292.671875 L 504.203125 315.453125 L 467.195312 317.382812 Z M 516.039062 292.011719 L 553.046875 289.980469 L 553.046875 312.898438 L 516.039062 314.839844 Z M 564.882812 289.332031 L 601.886719 287.308594 L 601.886719 310.355469 L 564.882812 312.300781 Z M 271.816406 268.175781 L 308.824219 265.976562 L 308.824219 288.230469 L 271.816406 290.304688 Z M 320.660156 265.261719 L 357.671875 263.074219 L 357.671875 285.457031 L 320.660156 287.558594 Z M 369.511719 262.359375 L 406.515625 260.160156 L 406.515625 282.671875 L 369.511719 284.785156 Z M 467.195312 256.535156 L 504.203125 254.351562 L 504.203125 277.136719 L 467.195312 279.226562 Z M 516.039062 253.644531 L 553.046875 251.433594 L 553.046875 274.363281 L 516.039062 276.460938 Z M 564.882812 250.738281 L 601.886719 248.539062 L 601.886719 271.585938 L 564.882812 273.6875 Z M 271.816406 230.917969 L 308.824219 228.542969 L 308.824219 250.785156 L 271.816406 253.058594 Z M 320.660156 227.78125 L 357.671875 225.402344 L 357.671875 247.796875 L 320.660156 250.0625 Z M 369.511719 224.648438 L 406.515625 222.289062 L 406.515625 244.792969 L 369.511719 247.058594 Z M 467.195312 218.386719 L 504.203125 216.015625 L 504.203125 238.789062 L 467.195312 241.066406 Z M 516.039062 215.265625 L 553.046875 212.894531 L 553.046875 235.800781 L 516.039062 238.0625 Z M 564.882812 212.125 L 601.886719 209.753906 L 601.886719 232.800781 L 564.882812 235.074219 Z M 271.816406 193.644531 L 308.824219 191.105469 L 308.824219 213.351562 L 271.816406 215.789062 Z M 320.660156 190.304688 L 357.671875 187.738281 L 357.671875 210.121094 L 320.660156 212.582031 Z M 369.511719 186.925781 L 406.515625 184.390625 L 406.515625 206.902344 L 369.511719 209.339844 Z M 467.195312 180.21875 L 504.203125 177.671875 L 504.203125 200.449219 L 467.195312 202.898438 Z M 516.039062 176.859375 L 553.046875 174.339844 L 553.046875 197.230469 L 516.039062 199.6875 Z M 564.882812 173.507812 L 601.886719 170.980469 L 601.886719 194 L 564.882812 196.457031 Z M 271.816406 156.382812 L 308.824219 153.667969 L 308.824219 175.925781 L 271.816406 178.519531 Z M 320.660156 152.796875 L 357.671875 150.089844 L 357.671875 172.476562 L 320.660156 175.09375 Z M 369.511719 149.222656 L 406.515625 146.503906 L 406.515625 169.027344 L 369.511719 171.625 Z M 467.195312 142.058594 L 504.203125 139.339844 L 504.203125 162.125 L 467.195312 164.746094 Z M 516.039062 138.488281 L 553.046875 135.753906 L 553.046875 158.683594 L 516.039062 161.289062 Z M 564.882812 134.890625 L 601.886719 132.1875 L 601.886719 155.234375 L 564.882812 157.84375 Z M 271.816406 119.125 L 308.824219 116.234375 L 308.824219 138.496094 L 271.816406 141.28125 Z M 320.660156 115.320312 L 357.671875 112.4375 L 357.671875 134.8125 L 320.660156 137.609375 Z M 369.511719 111.519531 L 406.515625 108.636719 L 406.515625 131.136719 L 369.511719 133.941406 Z M 418.347656 107.703125 L 455.363281 104.820312 L 455.363281 127.480469 L 418.347656 130.265625 Z M 467.195312 103.898438 L 504.203125 101.019531 L 504.203125 123.804688 L 467.195312 126.589844 Z M 516.039062 100.101562 L 553.046875 97.214844 L 553.046875 120.128906 L 516.039062 122.914062 Z M 564.882812 96.285156 L 601.886719 93.402344 L 601.886719 116.449219 L 564.882812 119.234375 Z M 271.816406 81.863281 L 308.824219 78.808594 L 308.824219 101.0625 L 271.816406 104.007812 Z M 320.660156 77.835938 L 357.671875 74.785156 L 357.671875 97.148438 L 320.660156 100.109375 Z M 369.511719 73.800781 L 406.515625 70.757812 L 406.515625 93.273438 L 369.511719 96.207031 Z M 418.347656 69.769531 L 455.363281 66.71875 L 455.363281 89.359375 L 418.347656 92.304688 Z M 467.195312 65.738281 L 504.203125 62.695312 L 504.203125 85.457031 L 467.195312 88.429688 Z M 516.039062 61.710938 L 553.046875 58.664062 L 553.046875 81.570312 L 516.039062 84.527344 Z M 564.882812 57.691406 L 601.886719 54.628906 L 601.886719 77.667969 L 564.882812 80.628906 Z M 8.601562 269.953125 L 8.601562 749.921875 L 623.992188 749.921875 L 623.992188 22.75 L 616.566406 0.0390625 L 286.496094 29.410156 L 249.71875 54.972656 L 249.71875 255.175781 L 242.285156 232.992188 L 45.378906 245.636719 L 8.601562 269.953125 " fill-opacity="1" fill-rule="nonzero"/></g><g clip-path="url(#f7bc1ec0a9)"><path fill="#ffffff" d="M 647.5625 637.070312 L 728.097656 643.300781 L 728.097656 701.351562 L 647.5625 698.5 Z M 647.070312 598.484375 L 669.328125 600.792969 L 669.328125 623.351562 L 647.070312 621.390625 Z M 676.449219 601.53125 L 698.722656 603.851562 L 698.722656 625.953125 L 676.449219 623.992188 Z M 705.832031 604.597656 L 728.097656 606.894531 L 728.097656 628.542969 L 705.832031 626.582031 Z M 647.070312 559.949219 L 669.328125 562.839844 L 669.328125 585.410156 L 647.070312 582.863281 Z M 676.449219 563.785156 L 698.722656 566.679688 L 698.722656 588.78125 L 676.449219 586.234375 Z M 705.832031 567.597656 L 728.097656 570.492188 L 728.097656 592.136719 L 705.832031 589.59375 Z M 647.070312 521.398438 L 669.328125 524.910156 L 669.328125 547.445312 L 647.070312 544.304688 Z M 676.449219 526.015625 L 698.722656 529.503906 L 698.722656 551.597656 L 676.449219 548.457031 Z M 705.832031 530.617188 L 728.097656 534.105469 L 728.097656 555.734375 L 705.832031 552.589844 Z M 647.070312 482.851562 L 669.328125 486.9375 L 669.328125 509.492188 L 647.070312 505.765625 Z M 676.449219 488.246094 L 698.722656 492.308594 L 698.722656 514.402344 L 676.449219 510.675781 Z M 705.832031 493.621094 L 728.097656 497.703125 L 728.097656 519.332031 L 705.832031 515.601562 Z M 647.070312 444.300781 L 669.328125 448.972656 L 669.328125 471.539062 L 647.070312 467.214844 Z M 676.449219 450.464844 L 698.722656 455.136719 L 698.722656 477.226562 L 676.449219 472.917969 Z M 705.832031 456.621094 L 728.097656 461.289062 L 728.097656 482.9375 L 705.832031 478.617188 Z M 647.070312 405.761719 L 669.328125 411.027344 L 669.328125 433.585938 L 647.070312 428.6875 Z M 676.449219 412.707031 L 698.722656 417.960938 L 698.722656 440.054688 L 676.449219 435.15625 Z M 705.832031 419.652344 L 728.097656 424.898438 L 728.097656 446.535156 L 705.832031 441.625 Z M 647.070312 367.222656 L 669.328125 373.0625 L 669.328125 395.632812 L 647.070312 390.128906 Z M 676.449219 374.949219 L 698.722656 380.789062 L 698.722656 402.882812 L 676.449219 397.378906 Z M 705.832031 382.652344 L 728.097656 388.503906 L 728.097656 410.128906 L 705.832031 404.625 Z M 647.070312 328.695312 L 669.328125 335.109375 L 669.328125 357.667969 L 647.070312 351.589844 Z M 676.449219 337.167969 L 698.722656 343.605469 L 698.722656 365.699219 L 676.449219 359.609375 Z M 705.832031 345.664062 L 728.097656 352.085938 L 728.097656 373.722656 L 705.832031 367.636719 Z M 647.070312 290.125 L 669.328125 297.160156 L 669.328125 319.703125 L 647.070312 313.042969 Z M 676.449219 299.390625 L 698.722656 306.421875 L 698.722656 328.519531 L 676.449219 321.847656 Z M 705.832031 308.660156 L 728.097656 315.671875 L 728.097656 337.320312 L 705.832031 330.644531 Z M 647.070312 251.597656 L 669.328125 259.203125 L 669.328125 281.78125 L 647.070312 274.511719 Z M 676.449219 261.628906 L 698.722656 269.25 L 698.722656 291.339844 L 676.449219 284.089844 Z M 705.832031 271.683594 L 728.097656 279.289062 L 728.097656 300.925781 L 705.832031 293.679688 Z M 647.070312 213.046875 L 669.328125 221.25 L 669.328125 243.800781 L 647.070312 235.953125 Z M 676.449219 223.875 L 698.722656 232.074219 L 698.722656 254.15625 L 676.449219 246.308594 Z M 705.832031 234.695312 L 728.097656 242.898438 L 728.097656 264.523438 L 705.832031 256.671875 Z M 647.070312 174.507812 L 669.328125 183.285156 L 669.328125 205.839844 L 647.070312 197.40625 Z M 676.449219 186.101562 L 698.722656 194.902344 L 698.722656 216.96875 L 676.449219 208.542969 Z M 705.832031 197.695312 L 728.097656 206.492188 L 728.097656 228.117188 L 705.832031 219.671875 Z M 647.070312 135.941406 L 669.328125 145.320312 L 669.328125 167.898438 L 647.070312 158.863281 Z M 676.449219 148.332031 L 698.722656 157.703125 L 698.722656 179.808594 L 676.449219 170.785156 Z M 705.832031 160.707031 L 728.097656 170.089844 L 728.097656 191.71875 L 705.832031 182.691406 Z M 647.070312 97.417969 L 669.328125 107.367188 L 669.328125 129.9375 L 647.070312 120.328125 Z M 676.449219 110.554688 L 698.722656 120.53125 L 698.722656 142.632812 L 676.449219 133.019531 Z M 705.832031 123.707031 L 728.097656 133.683594 L 728.097656 155.324219 L 705.832031 145.710938 Z M 647.070312 58.871094 L 669.328125 69.433594 L 669.328125 91.984375 L 647.070312 81.777344 Z M 676.449219 72.804688 L 698.722656 83.355469 L 698.722656 105.453125 L 676.449219 95.246094 Z M 705.832031 86.742188 L 728.097656 97.28125 L 728.097656 118.917969 L 705.832031 108.703125 Z M 634.269531 749.921875 L 741.398438 749.921875 L 741.398438 75.734375 L 707.382812 41.210938 L 626.84375 0.0390625 L 634.269531 22.75 L 634.269531 749.921875 " fill-opacity="1" fill-rule="nonzero"/></g></svg>