<svg xmlns="http://www.w3.org/2000/svg" xmlns:xlink="http://www.w3.org/1999/xlink" width="1000" zoomAndPan="magnify" viewBox="0 0 750 749.999995" height="1000" preserveAspectRatio="xMidYMid meet" version="1.0"><defs><clipPath id="30458cc4db"><path d="M 16 8.183594 L 733 8.183594 L 733 725 L 16 725 Z M 16 8.183594 " clip-rule="nonzero"/></clipPath></defs><g clip-path="url(#30458cc4db)"><path fill="#ffffff" d="M 524.765625 8.183594 C 482.058594 7.996094 439.351562 24.15625 406.839844 56.667969 L 268.898438 194.734375 C 257.398438 206.171875 247.949219 218.976562 240.554688 232.53125 C 226.875 239.988281 214.257812 249.4375 202.695312 261 L 64.628906 398.878906 C -0.394531 463.902344 0.105469 569.519531 65.5 634.976562 L 105.472656 674.949219 C 170.929688 740.34375 276.484375 740.839844 341.507812 675.816406 L 479.445312 537.753906 C 491.007812 526.253906 500.457031 513.570312 507.855469 499.957031 C 521.53125 492.496094 534.214844 483.050781 545.714844 471.488281 L 683.777344 333.546875 C 748.800781 268.523438 748.304688 162.96875 682.910156 97.511719 L 642.9375 57.539062 C 610.238281 24.839844 567.410156 8.367188 524.765625 8.183594 Z M 524.703125 32.050781 C 561.191406 32.175781 597.746094 46.226562 625.964844 74.449219 L 666 114.417969 C 722.445312 170.863281 722.507812 261 666.871094 316.636719 L 528.804688 454.703125 C 526.941406 456.566406 525.324219 458.058594 523.398438 459.800781 C 529.863281 433.257812 529.613281 405.46875 522.835938 378.863281 L 609.929688 291.773438 C 651.828125 249.9375 652.011719 182.238281 609.929688 140.15625 L 600.292969 130.457031 C 579.34375 109.507812 551.867188 99.003906 524.453125 99.003906 C 496.976562 99.003906 469.5625 109.507812 448.613281 130.457031 L 342.75 236.382812 C 300.914062 278.21875 300.601562 345.917969 342.75 388.0625 L 352.386719 397.699219 C 369.417969 414.792969 390.675781 424.925781 412.871094 428.097656 C 411.128906 446.683594 403.234375 464.773438 388.8125 479.195312 L 380.109375 487.835938 C 360.589844 480.875 342.375 469.558594 326.648438 453.832031 L 286.617188 413.796875 C 230.421875 357.601562 229.859375 267.402344 285.746094 211.519531 L 423.8125 73.578125 C 451.722656 45.605469 488.148438 31.867188 524.703125 32.050781 Z M 524.453125 122.875 C 545.714844 122.875 567.035156 131.015625 583.445312 147.367188 L 593.082031 157 C 625.65625 189.636719 625.84375 242.164062 593.082031 274.988281 L 514.132812 353.8125 C 505.929688 334.914062 494.179688 317.257812 478.699219 301.84375 L 438.605469 261.746094 C 423.128906 246.332031 405.472656 234.457031 386.636719 226.25 L 465.460938 147.367188 C 481.871094 131.015625 503.132812 122.875 524.453125 122.875 Z M 368.238281 244.652344 C 387.757812 251.613281 405.96875 262.867188 421.757812 278.65625 L 461.792969 318.625 C 518.175781 375.070312 518.238281 465.269531 462.664062 520.84375 L 324.597656 658.910156 C 268.960938 714.546875 178.824219 714.484375 122.378906 658.039062 L 82.410156 618.007812 C 25.964844 561.625 25.777344 471.546875 81.539062 415.851562 L 219.480469 277.785156 C 221.40625 275.921875 223.085938 274.367188 225.011719 272.5625 C 218.546875 299.167969 218.796875 326.894531 225.570312 353.5 L 138.417969 440.652344 C 96.394531 482.675781 96.582031 550.433594 138.417969 592.332031 L 148.117188 601.96875 C 190.015625 643.867188 257.648438 644.113281 299.792969 601.96875 L 405.660156 495.980469 C 447.679688 453.894531 447.742188 386.507812 405.660156 344.363281 L 396.023438 334.789062 C 378.992188 317.695312 356.738281 307.0625 335.476562 304.390625 C 337.21875 285.804688 345.175781 267.714844 359.597656 253.292969 Z M 336.71875 328.757812 C 352.261719 331.867188 366.992188 339.453125 379.113281 351.636719 L 388.8125 361.207031 C 400.933594 373.332031 408.457031 388.1875 411.625 403.667969 C 396.085938 400.558594 381.042969 392.726562 369.167969 380.851562 L 359.597656 371.15625 C 347.410156 359.03125 339.890625 344.238281 336.71875 328.757812 Z M 234.273438 378.675781 C 242.417969 397.574219 254.230469 415.167969 269.707031 430.644531 L 309.679688 470.800781 C 325.15625 486.21875 342.875 497.96875 361.773438 506.171875 L 282.949219 585.121094 C 250.5 617.570312 197.785156 617.882812 164.960938 585.121094 L 155.328125 575.484375 C 122.566406 542.664062 122.816406 490.074219 155.328125 457.5 L 234.273438 378.675781 " fill-opacity="1" fill-rule="nonzero"/></g></svg>