<?xml version="1.0" encoding="UTF-8"?><svg xmlns="http://www.w3.org/2000/svg" xmlns:xlink="http://www.w3.org/1999/xlink" height="1685.4" preserveAspectRatio="xMidYMid meet" version="1.0" viewBox="0.0 114.6 2880.0 1685.4" width="2880.0" zoomAndPan="magnify"><g><defs><g id="change1_1"><path d="M0 0H2880V1800H0z" id="a"/></g></defs><clipPath id="b"><use overflow="visible" xlink:actuate="onLoad" xlink:href="#a" xlink:show="embed" xlink:type="simple" xmlns:xlink="http://www.w3.org/1999/xlink"/></clipPath><g clip-path="url(#b)" fill="none" stroke="#ccc" stroke-miterlimit="10"><path d="M2737.15,1899.48c-120.65-6.07-230.55-103.58-250.94-222.65c-13.6-79.41,8.78-162.85-12.24-240.62 c-16.37-60.56-57.57-111.36-102.76-154.87c-162.76-156.73-393.23-240.58-618.65-225.07c-182.31,12.54-355.33,86.02-536.65,108.74 c-278.12,34.85-584.01-68.93-738.32-302.92c-93.79-142.21-141.44-335.07-297.37-403.67c-73.96-32.54-158.3-28.8-238.74-21.16 c-80.44,7.65-162.79,18.48-241.09-1.49c-78.3-19.97-152.88-79.53-162.78-159.72"/><path d="M-453.28,271.06c11.35,76.3,85.16,133.79,162.26,153.86c39.61,10.31,80.18,12.96,120.86,12.33 c38.48-0.57,77.07-4.08,115.14-6.81c78.33-5.59,159.99-7.18,231.45,26.11c150.63,70.03,197.17,259.1,287.24,400.45 c39.66,62.25,89.5,116.62,148.23,160.12c50.26,37.23,106.24,66.37,165.01,88.52c137.13,51.62,290.16,65.55,436.28,44.56 c79.4-11.4,157.39-31.65,235.52-51.46c75.84-19.24,151.88-38,228.35-47.42c27.18-3.34,54.36-5.53,81.61-6.27 c74.67-2.05,148.89,7.45,220.35,26.51c77.21,20.61,151.67,52.98,223.44,92.83c63.03,35.01,122.99,74.76,176.03,120.88 c46.9,40.99,89.9,88.73,109.05,145.93c20.22,60.38,12.26,124.53,18.6,187.7c1.37,13.69,3.41,27.33,6.55,40.88 c11.72,50.46,40.28,97.41,78.64,135.66c48.43,48.28,112.09,83.17,175.36,89.96"/><path d="M-444.19,266.09c12.79,72.41,85.83,127.82,161.74,147.99c38.98,10.35,78.8,13.52,118.58,13.67 c37.65,0.18,75.29-2.37,112.32-4.11c76.21-3.54,155.2-2.97,224.16,31.06c145.33,71.46,190.68,256.82,277.11,397.23 c39.24,63.75,88.63,120.48,148.7,164.43c51.41,37.61,109.11,65.6,169.16,86.22c140.21,48.05,294.71,56.74,442.87,32.83 c80.5-12.99,159.73-34.21,239.38-54.09c77.3-19.3,155.12-37.2,232.62-44.22c27.56-2.48,54.97-3.64,82.31-3.24 c74.87,1.02,148.29,14.3,218.26,36.81c75.61,24.36,148.15,60.68,221.02,101.65c64.13,36.08,126.64,73.54,181.71,116.91 c48.7,38.36,93.42,83.15,115.34,136.99c23.16,56.83,19.29,117.39,29.25,177.53c2.14,13.03,4.95,26.04,8.81,39.02 c14.42,48.29,45.05,93.77,84.58,132.09c49.92,48.38,113.27,86.3,172.48,96.51"/><path d="M-435.09,261.11c14.23,68.52,86.51,121.86,161.22,142.13c38.35,10.39,77.43,14.08,116.31,15.01 c36.82,0.93,73.5-0.66,109.5-1.41c74.1-1.49,150.42,1.23,216.87,36c140.03,72.89,184.11,254.61,266.98,394.01 c38.81,65.28,87.76,124.35,149.18,168.74c52.57,38,111.97,64.83,173.3,83.93c143.29,44.48,299.27,47.94,449.46,21.09 c81.6-14.58,162.07-36.77,243.24-56.72c78.76-19.36,158.35-36.41,236.89-41.03c27.94-1.62,55.58-1.75,83-0.21 c75.07,4.09,147.69,21.15,216.18,47.11c74.01,28.1,144.62,68.39,218.6,110.46c65.23,37.14,130.22,72.39,187.39,112.94 c50.44,35.78,96.93,77.56,121.63,128.05c26.1,53.29,26.32,110.25,39.9,167.36c2.92,12.37,6.49,24.76,11.08,37.15 c17.13,46.12,49.82,90.12,90.52,128.52c51.4,48.48,114.45,89.44,169.61,103.05"/><path d="M-426,256.14c15.67,64.63,87.18,115.89,160.7,136.26c37.72,10.43,76.05,14.65,114.04,16.35 c35.99,1.68,71.71,1.04,106.68,1.28c71.98,0.56,145.63,5.44,209.58,40.95c134.73,74.32,177.47,252.48,256.86,390.79 c38.36,66.84,86.89,128.21,149.65,173.05c53.73,38.38,114.84,64.06,177.44,81.63c146.36,40.91,303.82,39.14,456.05,9.36 c82.7-16.17,164.41-39.33,247.1-59.35c80.22-19.43,161.59-35.62,241.16-37.83c28.32-0.76,56.19,0.15,83.7,2.81 c75.27,7.16,147.09,28,214.09,57.41c72.41,31.85,141.1,76.1,216.18,119.28c66.33,38.21,133.79,71.24,193.06,108.96 c52.18,33.2,100.45,71.98,127.92,119.11c29.04,49.74,33.34,103.1,50.55,157.18c3.7,11.72,8.03,23.48,13.34,35.29 c19.83,43.95,54.59,86.48,96.45,124.95c52.89,48.58,115.62,92.57,166.73,109.59"/><path d="M-416.9,251.17c17.12,60.74,87.85,109.93,160.18,130.39c37.09,10.48,74.68,15.21,111.76,17.68 c35.15,2.43,69.92,2.75,103.86,3.98c69.87,2.61,140.84,9.64,202.29,45.9c129.43,75.75,170.75,250.41,246.73,387.57 c37.9,68.42,86.02,132.08,150.13,177.36c54.89,38.77,117.7,63.29,181.58,79.34c149.44,37.34,308.38,30.33,462.64-2.37 c83.81-17.76,166.76-41.89,250.95-61.98c81.67-19.49,164.82-34.83,245.42-34.63c28.7,0.1,56.8,2.04,84.4,5.84 c75.47,10.22,146.48,34.85,212.01,67.71c70.82,35.59,137.57,83.81,213.76,128.1c67.43,39.27,137.35,70.1,198.74,104.99 c53.9,30.63,103.96,66.39,134.21,110.17c31.98,46.19,40.37,95.96,61.2,147.01c4.48,11.06,9.57,22.2,15.6,33.43 c22.53,41.78,59.36,82.84,102.39,121.38c54.38,48.68,116.8,95.7,163.86,116.13"/><path d="M-407.81,246.2c18.56,56.85,88.53,103.96,159.66,124.53c36.45,10.52,73.3,15.77,109.49,19.02 c34.32,3.18,68.14,4.46,101.04,6.68c67.75,4.66,135.97,13.97,195,50.85c123.96,77.45,163.95,248.4,236.6,384.35 c37.41,70.02,85.15,135.94,150.6,181.67c56.05,39.16,120.57,62.51,185.72,77.04c152.52,33.77,312.93,21.53,469.22-14.11 c84.91-19.36,169.1-44.45,254.81-64.61c83.13-19.55,168.06-34.03,249.69-31.44c29.08,0.96,57.42,3.93,85.1,8.86 c75.67,13.29,145.88,41.7,209.92,78.01c69.22,39.34,134.05,91.52,211.34,136.92c68.53,40.33,140.9,68.97,204.42,101.02 c55.62,28.07,107.48,60.8,140.5,101.22c34.92,42.65,47.39,88.81,71.85,136.83c5.25,10.41,11.11,20.92,17.86,31.56 c25.24,39.61,64.13,79.19,108.33,117.81c55.87,48.78,117.97,98.84,160.98,122.67"/><path d="M-398.71,241.22c20,52.95,89.2,98,159.14,118.66c35.82,10.56,71.93,16.34,107.22,20.36 c33.49,3.93,66.35,6.17,98.22,9.37c65.64,6.71,131.17,18.19,187.71,55.8c118.63,78.91,157.08,246.44,226.47,381.13 c36.91,71.64,84.28,139.81,151.07,185.98c57.21,39.54,123.43,61.74,189.86,74.75c155.59,30.2,317.49,12.73,475.81-25.84 c86.01-20.95,171.44-47.01,258.67-67.24c84.59-19.62,171.29-33.24,253.96-28.24c29.47,1.82,58.03,5.82,85.8,11.89 c75.87,16.36,145.28,48.55,207.83,88.31c67.62,43.08,130.53,99.23,208.91,145.74c69.64,41.4,144.44,67.83,210.1,97.05 c57.33,25.51,110.99,55.22,146.79,92.28c37.86,39.1,54.51,81.61,82.5,126.66c6.05,9.74,12.65,19.64,20.13,29.7 c27.94,37.44,68.9,75.55,114.27,114.24c57.35,48.88,119.15,101.97,158.11,129.21"/><path d="M-389.62,236.25c21.44,49.06,89.88,92.03,158.62,112.79c35.19,10.6,70.55,16.9,104.94,21.7 c32.66,4.67,64.56,7.88,95.4,12.07c63.52,8.76,126.37,22.41,180.42,60.75C263.05,523.92,299.9,688.1,366.11,821.47 c36.38,73.29,83.41,143.67,151.55,190.3c58.37,39.93,126.3,60.97,194,72.45c158.67,26.63,322.04,3.92,482.4-37.58 c87.11-22.54,173.78-49.57,262.53-69.86c86.05-19.68,174.53-32.45,258.23-25.04c29.85,2.68,58.64,7.72,86.5,14.92 c76.07,19.43,144.68,55.39,205.75,98.61c66.02,46.83,127,106.93,206.49,154.55c70.74,42.46,147.98,66.71,215.77,93.07 c59.03,22.95,114.51,49.63,153.08,83.34c40.8,35.55,61.54,74.45,93.15,116.49c6.83,9.08,14.19,18.36,22.39,27.84 c30.65,35.27,73.67,71.9,120.21,110.66c58.84,48.98,120.33,105.1,155.23,135.75"/><path d="M-380.52,231.28c22.89,45.17,90.55,86.06,158.1,106.93c34.56,10.65,69.18,17.46,102.67,23.04 c31.82,5.42,62.77,9.58,92.58,14.76c61.4,10.81,121.56,26.62,173.13,65.69c107.96,81.81,143.12,242.68,206.22,374.69 C388,891.34,434.71,963.93,504.19,1011c59.53,40.32,129.16,60.2,198.14,70.16c161.75,23.06,326.6-4.88,488.99-49.31 c88.21-24.13,176.13-52.13,266.39-72.49c87.5-19.74,177.76-31.66,262.5-21.84c30.23,3.54,59.25,9.61,87.2,17.94 c76.27,22.5,144.08,62.24,203.66,108.91c64.42,50.58,123.48,114.64,204.07,163.37c71.84,43.53,151.51,65.6,221.45,89.1 c60.73,20.41,118.03,44.05,159.37,74.4c43.74,32.01,68.57,67.29,103.81,106.31c7.61,8.43,15.74,17.08,24.65,25.97 c33.35,33.1,78.44,68.26,126.14,107.09c60.33,49.08,121.5,108.24,152.36,142.29"/><path d="M-371.43,226.3c24.33,41.28,91.22,80.1,157.58,101.06c33.93,10.69,67.81,17.96,100.4,24.37 c31.01,6.11,60.99,11.29,89.76,17.46c59.29,12.86,116.76,30.83,165.83,70.64c102.63,83.26,136.04,240.87,196.09,371.47 c35.24,76.64,81.67,151.4,152.49,198.92c60.69,40.7,132.03,59.43,202.28,67.86c164.82,19.48,331.15-13.69,495.58-61.04 c89.32-25.72,178.47-54.7,270.24-75.12c88.96-19.81,181-30.87,266.77-18.65c30.61,4.4,59.86,11.5,87.89,20.97 c76.47,25.57,143.48,69.09,201.58,119.21c62.82,54.32,119.95,122.35,201.65,172.19c72.94,44.59,155.03,64.49,227.13,85.13 c62.43,17.87,121.54,38.46,165.66,65.46c46.68,28.46,75.59,60.13,114.46,96.14c8.38,7.77,17.28,15.8,26.91,24.11 c36.06,30.93,83.21,64.62,132.08,103.52c61.81,49.18,122.68,111.37,149.48,148.83"/><path d="M-362.33,221.33c25.77,37.39,91.9,74.13,157.06,95.2c33.3,10.73,66.44,18.52,98.12,25.71 c30.18,6.85,59.2,13,86.94,20.16c57.17,14.91,111.96,35.04,158.54,75.59c97.3,84.7,128.88,239.1,185.96,368.25 c34.62,78.34,80.79,155.27,152.97,203.23c61.84,41.09,134.89,58.66,206.42,65.57c167.9,15.91,335.71-22.49,502.17-72.78 c90.42-27.31,180.81-57.26,274.1-77.75c90.42-19.87,184.23-30.07,271.04-15.45c30.99,5.27,60.47,13.39,88.59,23.99 c76.67,28.64,142.88,75.94,199.49,129.51c61.22,58.07,116.43,130.06,199.23,181.01c74.04,45.65,158.56,63.39,232.81,81.16 c64.12,15.34,125.06,32.88,171.95,56.51c49.62,24.92,82.6,52.98,125.11,85.97c9.16,7.11,18.82,14.52,29.18,22.24 c38.76,28.76,87.98,60.97,138.02,99.95c63.3,49.28,123.86,114.5,146.6,155.37"/><path d="M-353.24,216.36c27.22,33.5,92.57,68.17,156.54,89.33c32.67,10.77,65.07,19.08,95.85,27.05 c29.35,7.6,57.41,14.71,84.12,22.85c55.06,16.96,107.16,39.25,151.25,80.54c91.97,86.13,121.66,237.36,175.84,365.03 c33.97,80.06,79.92,159.13,153.44,207.54c63,41.48,137.76,57.89,210.56,63.27c170.98,12.34,340.26-31.29,508.76-84.51 c91.52-28.9,183.15-59.82,277.96-80.38c91.88-19.93,187.47-29.28,275.31-12.25c31.37,6.13,61.08,15.28,89.29,27.02 c76.87,31.71,142.28,82.79,197.41,139.81c59.62,61.81,112.9,137.77,196.81,189.83c75.14,46.72,162.08,62.3,238.49,77.18 c65.81,12.81,128.57,27.29,178.24,47.57c52.56,21.37,89.62,45.82,135.76,75.79c9.94,6.45,20.36,13.23,31.44,20.38 c41.47,26.59,92.75,57.33,143.96,96.38c64.79,49.38,125.03,117.64,143.73,161.92"/><path d="M-344.14,211.39c28.66,29.61,93.25,62.2,156.02,83.46c32.04,10.82,63.7,19.64,93.58,28.39 c28.52,8.35,55.62,16.42,81.3,25.55c52.94,19.01,102.36,43.45,143.96,85.49c86.65,87.55,114.38,235.65,165.71,361.81 c33.28,81.8,79.05,163,153.92,211.85c64.16,41.86,140.62,57.12,214.7,60.98c174.05,8.77,344.82-40.1,515.35-96.25 c92.62-30.49,185.5-62.38,281.82-83.01c93.33-20,190.7-28.49,279.58-9.06c31.75,6.99,61.69,17.18,89.99,30.05 c77.07,34.78,141.68,89.64,195.32,150.11c58.03,65.56,109.38,145.47,194.39,198.64c76.25,47.78,165.6,61.22,244.16,73.21 c67.5,10.3,132.09,21.7,184.53,38.63c55.5,17.82,96.63,38.68,146.41,65.62c10.71,5.8,21.9,11.95,33.7,18.52 c44.17,24.42,97.52,53.69,149.89,92.81c66.28,49.48,126.21,120.77,140.85,168.46"/><path d="M-335.05,206.41c30.1,25.71,93.92,56.24,155.51,77.6c31.4,10.86,62.32,20.2,91.31,29.72 c27.69,9.09,53.84,18.12,78.48,28.25c50.83,21.06,97.56,47.65,136.67,90.44c81.33,88.97,107.03,233.97,155.58,358.59 c32.56,83.56,78.18,166.86,154.39,216.16c65.32,42.25,143.49,56.34,218.84,58.68c177.13,5.2,349.37-48.9,521.94-107.98 c93.72-32.08,187.84-64.94,285.68-85.64c94.79-20.06,193.94-27.7,283.85-5.86c32.13,7.85,62.3,19.07,90.69,33.07 c77.27,37.85,141.08,96.49,193.23,160.41c56.43,69.31,105.85,153.18,191.97,207.46c77.35,48.85,169.12,60.15,249.84,69.24 c69.19,7.79,135.6,16.12,190.82,29.69c58.44,14.28,103.65,31.53,157.06,55.45c11.49,5.14,23.44,10.67,35.96,16.65 c46.88,22.25,102.29,50.04,155.83,89.24c67.76,49.58,127.38,123.9,137.98,175"/><path d="M-325.95,201.44c31.54,21.82,94.6,50.27,154.99,71.73c30.77,10.9,60.95,20.77,89.03,31.06 c26.86,9.84,52.05,19.83,75.66,30.94c48.71,23.11,92.77,51.85,129.38,95.39c76.01,90.39,99.62,232.31,145.45,355.37 c31.78,85.34,77.31,170.73,154.86,220.47c66.48,42.63,146.35,55.57,222.98,56.39c180.21,1.63,353.93-57.7,528.52-119.72 c94.82-33.67,190.18-67.5,289.53-88.27c96.25-20.12,197.17-26.9,288.12-2.66c32.51,8.71,62.91,20.96,91.39,36.1 c77.47,40.92,140.48,103.34,191.15,170.71c54.83,73.05,102.33,160.89,189.55,216.28c78.45,49.91,172.65,59.09,255.52,65.26 c70.89,5.28,139.12,10.53,197.11,20.75c61.38,10.73,110.66,24.39,167.71,45.27c12.26,4.49,24.98,9.39,38.23,14.79 c49.58,20.08,107.06,46.4,161.77,85.67c69.25,49.68,128.56,127.04,135.1,181.54"/><path d="M-316.86,196.47c32.99,17.93,95.27,44.31,154.47,65.86c30.14,10.95,59.58,21.33,86.76,32.4 c26.03,10.6,50.26,21.54,72.84,33.64c46.6,25.16,87.97,56.04,122.09,100.33c70.7,91.79,92.15,230.67,135.33,352.15 c30.96,87.12,76.44,174.59,155.34,224.78c67.64,43.02,149.21,54.8,227.12,54.09c183.28-1.94,358.49-66.51,535.11-131.45 c95.93-35.26,192.52-70.06,293.39-90.9c97.71-20.19,200.41-26.11,292.39,0.53c32.89,9.57,63.52,22.85,92.09,39.12 c77.67,43.99,139.88,110.19,189.06,181.01c53.23,76.8,98.8,168.6,187.13,225.1c79.55,50.97,176.17,58.03,261.2,61.29 c72.58,2.79,142.64,4.95,203.4,11.8c64.32,7.19,117.65,17.36,178.36,35.1c13.03,3.86,26.52,8.11,40.49,12.92 c52.28,17.91,111.83,42.75,167.71,82.1c70.74,49.78,129.74,130.17,132.23,188.08"/><path d="M-307.76,191.49c34.43,14.04,95.94,38.34,153.95,60c29.51,10.99,58.2,21.9,84.49,33.74 c25.2,11.35,48.47,23.25,70.02,36.34c44.48,27.22,83.19,60.23,114.8,105.28c65.4,93.2,84.62,229.04,125.2,348.93 c30.1,88.93,75.57,178.46,155.81,229.09c68.8,43.41,152.08,54.03,231.27,51.8c186.36-5.51,363.04-75.31,541.7-143.18 c97.03-36.86,194.87-72.62,297.25-93.52c99.16-20.25,203.64-25.32,296.66,3.73c33.27,10.43,64.13,24.75,92.78,42.15 c77.87,47.06,139.28,117.04,186.98,191.31c51.63,80.54,95.28,176.31,184.7,233.91c80.65,52.04,179.71,56.08,266.88,57.32 c74.27,1.05,146.15-0.64,209.69,2.86c67.26,3.64,124.67,10.22,189.01,24.93c13.81,3.2,28.06,6.83,42.75,11.06 c54.99,15.74,116.6,39.11,173.65,78.53c72.22,49.88,130.91,133.3,129.35,194.62"/><path d="M-298.67,186.52c35.87,10.15,96.62,32.37,153.43,54.13c28.88,11.03,56.83,22.47,82.21,35.07 c24.37,12.1,46.69,24.95,67.2,39.03c42.37,29.27,78.4,64.42,107.51,110.23c60.1,94.59,77.04,227.42,115.07,345.71 c29.17,90.74,74.7,182.32,156.28,233.41c69.96,43.79,154.94,53.26,235.41,49.5c189.44-9.08,367.6-84.11,548.29-154.92 c98.13-38.45,197.21-75.18,301.11-96.15c100.62-20.31,206.88-24.53,300.93,6.93c33.65,11.29,64.74,26.64,93.48,45.17 c78.07,50.13,138.68,123.89,184.89,201.61c50.03,84.29,91.75,184.02,182.28,242.73c81.75,53.1,183.23,55.93,272.55,53.35 c75.98-2.2,149.67-6.22,215.98-6.08c70.2,0.09,131.7,3.07,199.66,14.75c14.58,2.55,29.6,5.55,45.01,9.2 c57.69,13.57,121.36,35.47,179.58,74.96c73.71,49.98,132.09,136.44,126.48,201.16"/><path d="M-289.57,181.55c37.31,6.26,97.29,26.41,152.91,48.27c28.25,11.07,55.45,23.04,79.94,36.41 c23.54,12.86,44.9,26.66,64.38,41.73c40.25,31.32,73.62,68.61,100.22,115.18c54.82,95.99,69.4,225.81,104.94,342.49 c28.2,92.57,73.83,186.19,156.76,237.72c71.12,44.18,157.81,52.49,239.55,47.21c192.51-12.66,372.15-92.92,554.88-166.65 c99.23-40.04,199.55-77.74,304.97-98.78c102.08-20.38,210.11-23.74,305.2,10.13c34.03,12.15,65.35,28.53,94.18,48.2 c78.27,53.2,138.07,130.74,182.8,211.91c48.43,88.03,88.23,191.72,179.86,251.55c82.86,54.17,186.76,54.88,278.23,49.37 c77.68-4.68,153.18-11.81,222.28-15.02c73.14-3.45,138.72-4.07,210.31,4.58c15.36,1.89,31.14,4.27,47.28,7.33 c60.4,11.39,126.13,31.82,185.52,71.39c75.2,50.08,133.27,139.57,123.6,207.7"/><path d="M-280.48,176.58c38.76,2.37,97.97,20.44,152.39,42.4c27.62,11.12,54.08,23.61,77.67,37.75 c22.7,13.61,43.11,28.37,61.56,44.42c38.14,33.37,68.84,72.79,92.93,120.13c49.54,97.38,61.71,224.21,94.82,339.27 c27.16,94.4,72.95,190.05,157.23,242.03c72.27,44.57,160.67,51.72,243.69,44.91c195.59-16.23,376.71-101.72,561.47-178.39 c100.33-41.63,201.89-80.3,308.83-101.41c103.54-20.44,213.35-22.94,309.47,13.32c34.41,13.01,65.96,30.42,94.88,51.23 c78.47,56.27,137.47,137.59,180.72,222.21c46.84,91.78,84.7,199.43,177.44,260.37c83.96,55.23,190.3,53.84,283.91,45.4 c79.39-7.16,156.7-17.4,228.57-23.96c76.08-7,145.75-11.22,220.96-5.59c16.14,1.24,32.68,2.99,49.54,5.47 c63.1,9.22,130.9,28.18,191.46,67.82c76.68,50.18,134.44,142.7,120.72,214.24"/><path d="M-271.38,171.6c40.2-1.53,98.64,14.48,151.87,36.53c26.98,11.16,52.7,24.18,75.39,39.09 c21.87,14.37,41.32,30.08,58.74,47.12c36.02,35.42,64.07,76.98,85.64,125.08c44.28,98.77,53.97,222.6,84.69,336.05 c26.06,96.24,72.08,193.92,157.71,246.34c73.43,44.95,163.54,50.95,247.83,42.62c198.66-19.8,381.26-110.53,568.06-190.12 c101.44-43.22,204.24-82.87,312.68-104.04c104.99-20.5,216.58-22.15,313.74,16.52c34.79,13.87,66.57,32.32,95.58,54.25 c78.67,59.33,136.87,144.44,178.63,232.51c45.24,95.53,81.18,207.14,175.02,269.19c85.06,56.29,193.84,52.81,289.59,41.43 c81.09-9.64,160.21-22.98,234.86-32.9c79.02-10.54,152.77-18.36,231.61-15.77c16.92,0.58,34.23,1.71,51.8,3.61 c65.81,7.05,135.67,24.53,197.4,64.25c78.17,50.28,135.62,145.84,117.85,220.78"/><path d="M-262.29,166.63c41.64-5.42,99.31,8.51,151.35,30.67c26.35,11.2,51.29,24.79,73.12,40.42 c21.01,15.16,39.54,31.79,55.92,49.82c33.91,37.47,59.31,81.16,78.35,130.02c39.02,100.16,46.18,220.99,74.56,332.83 c24.89,98.09,71.21,197.78,158.18,250.65c74.59,45.34,166.4,50.17,251.97,40.32c201.74-23.37,385.82-119.33,574.65-201.85 c102.54-44.81,206.58-85.43,316.54-106.67c106.45-20.57,219.82-21.36,318.01,19.72c35.17,14.73,67.18,34.21,96.28,57.28 c78.87,62.4,136.27,151.29,176.55,242.81c43.64,99.27,77.66,214.85,172.6,278c86.16,57.36,197.39,51.78,295.26,37.45 c82.8-12.12,163.73-28.57,241.15-41.85c81.96-14.09,159.8-25.51,242.26-25.94c17.7-0.07,35.77,0.42,54.06,1.74 c68.51,4.88,140.44,20.89,203.33,60.68c79.66,50.39,136.8,148.97,114.97,227.33"/><path d="M-253.19,161.66c43.08-9.31,99.99,2.55,150.83,24.8c25.72,11.24,49.92,25.35,70.85,41.76 c20.18,15.91,37.75,33.49,53.1,52.51c31.79,39.52,54.55,85.35,71.05,134.97c33.78,101.55,38.34,219.37,64.43,329.61 c23.66,99.95,70.34,201.65,158.65,254.96c75.75,45.73,169.27,49.4,256.11,38.03c204.82-26.94,390.37-128.13,581.24-213.59 c103.64-46.4,208.92-87.99,320.4-109.3c107.91-20.63,223.05-20.57,322.28,22.91c35.55,15.6,67.79,36.1,96.98,60.3 c79.07,65.47,135.67,158.14,174.46,253.11c42.04,103.02,74.13,222.56,170.18,286.82c87.26,58.42,200.96,50.92,300.94,33.48 c84.54-14.45,167.24-34.15,247.44-50.79c84.9-17.64,166.82-32.65,252.91-36.12c18.47-0.73,37.31-0.86,56.33-0.12 c71.22,2.71,145.21,17.25,209.27,57.11c81.15,50.48,137.97,152.1,112.1,233.87"/><path d="M-244.1,156.68c44.53-13.2,100.66-3.42,150.31,18.94c25.09,11.29,48.54,25.92,68.57,43.1 c19.34,16.66,35.96,35.2,50.28,55.21c29.68,41.57,49.87,89.52,63.76,139.92c28.71,102.91,30.46,217.74,54.31,326.39 c22.35,101.81,69.47,205.51,159.13,259.27c76.91,46.11,172.13,48.63,260.25,35.73c207.89-30.51,394.93-136.94,587.83-225.32 c104.74-47.99,211.26-90.55,324.26-111.93c109.37-20.69,226.29-19.77,326.54,26.11c35.93,16.46,68.4,37.99,97.67,63.33 c79.27,68.54,135.07,164.99,172.37,263.41c40.44,106.76,70.61,230.27,167.76,295.64c88.36,59.48,204.51,49.84,306.62,29.51 c86.25-16.97,170.76-39.74,253.73-59.73c87.84-21.18,173.85-39.8,263.56-46.29c19.25-1.38,38.85-2.14,58.59-1.99 c73.92,0.54,149.98,13.6,215.21,53.54c82.63,50.58,139.15,155.24,109.22,240.41"/><path d="M-235,151.71c45.97-17.09,101.34-9.38,149.79,13.07c24.46,11.33,47.17,26.48,66.3,44.44 c18.51,17.41,34.17,36.91,47.46,57.91c27.56,43.62,45.09,93.72,56.47,144.87c23.41,104.34,22.53,216.09,44.18,323.17 c20.96,103.66,68.6,209.38,159.6,263.58c78.07,46.5,175,47.86,264.39,33.43c210.97-34.08,399.48-145.74,594.41-237.06 c105.84-49.58,213.6-93.11,328.12-114.55c110.83-20.76,229.52-18.98,330.81,29.31c36.31,17.32,69.01,39.88,98.37,66.36 c79.47,71.61,134.47,171.84,170.29,273.71c38.84,110.51,67.08,237.97,165.34,304.46c89.47,60.55,208.05,48.75,312.3,25.54 c87.97-19.49,174.28-45.32,260.02-68.67c90.78-24.73,180.88-46.94,274.21-56.46c20.03-2.04,40.39-3.42,60.85-3.85 c76.63-1.63,154.75,9.96,221.15,49.97c84.12,50.69,140.32,158.37,106.35,246.95"/><path d="M-225.91,146.74c71.32-31.56,158.89-2.9,213.3,52.98c54.41,55.88,80.66,133.55,93.82,210.42 c18.11,105.77,14.56,214.43,34.05,319.95c19.49,105.52,67.73,213.24,160.08,267.89c79.23,46.88,177.86,47.09,268.53,31.14 c330.27-58.1,603.26-304.84,932.98-365.97c112.28-20.82,232.76-18.19,335.08,32.5c135.96,67.35,220.25,209.14,267.27,353.39 c37.24,114.25,63.56,245.68,162.92,313.28c90.57,61.61,211.59,47.67,317.98,21.56c184.63-45.31,362.64-119.85,551.17-144.25 c98.71-12.78,204.59-10.1,290.2,40.68c85.61,50.79,141.5,161.5,103.47,253.49"/><path d="M-222.83,179.44c69.97-30.57,155.54-3.35,209.21,49.97c53.66,53.32,80.24,127.54,94.24,200.99 c19.26,101.06,17.7,204.92,38.32,305.94c14.87,72.78,44.11,146.76,93.25,202.12c19.05,21.48,41.1,40.16,66.45,54.88 c77.85,45.18,174.34,45.71,263.09,30.94c219.6-36.56,413.34-155.49,614.7-244.48c95.08-42.03,191.87-77.44,294.22-94.45 c74.07-12.31,151.77-14.14,225.18,1.99c34.27,7.52,67.61,18.96,99.2,35.08c131.85,67.28,214.32,206.02,261.31,346.79 c37.23,111.52,64.18,239.32,161.63,305.41c91.48,61.75,213.09,48.73,320.46,22.99c26.77-6.42,53.41-13.48,79.93-20.94 c132.84-37.37,263.36-84.67,398.25-111.08c25.62-5.02,51.41-9.28,77.39-12.57c99.57-12.61,206.12-9.37,292.32,41.84 c9.72,5.78,19.07,12.31,27.96,19.49c69.85,56.45,110.65,152.67,80.26,234.63"/><path d="M-219.74,212.15c68.62-29.57,152.19-3.81,205.12,46.96C38.3,309.88,65.2,380.64,80.03,450.68 c20.41,96.36,20.84,195.4,42.59,291.92c15.7,69.53,45.21,140.32,93.86,193.41c18.85,20.6,40.57,38.54,65.47,52.7 c76.46,43.47,170.81,44.34,257.65,30.73c214.87-33.67,404.44-145.03,599.95-226.76c92.32-38.61,185.97-70.72,284.9-85.14 c71.6-10.44,146.66-10.79,217.65,6.06c33.15,7.85,65.41,19.47,96.02,35.56c127.74,67.21,208.39,202.9,255.34,340.19 c37.22,108.78,64.68,233.16,160.34,297.54c92.26,62.09,214.59,49.79,322.95,24.42c27.01-6.33,53.87-13.33,80.61-20.77 c133.94-37.27,265.4-85.17,401.37-111.64c25.81-5.03,51.81-9.27,78-12.51c100.42-12.44,207.66-8.64,294.44,43 c9.79,5.83,19.22,12.4,28.18,19.62c70.41,56.73,111.81,152.82,84.79,235.12"/><path d="M-216.66,244.85c67.27-28.57,148.84-4.26,201.03,43.95c52.18,48.21,79.42,115.52,95.07,182.14 c21.57,91.65,23.98,185.89,46.85,277.91c16.53,66.29,46.31,133.88,94.47,184.7c18.64,19.72,40.04,36.92,64.48,50.52 c75.08,41.76,167.28,42.97,252.21,30.53c210.14-30.77,395.54-134.56,585.2-209.03c89.55-35.19,180.07-64,275.59-75.83 c69.13-8.56,141.55-7.43,210.13,10.14c32.02,8.19,63.21,19.97,92.83,36.05c123.63,67.13,202.46,199.79,249.38,333.6 c37.21,106.04,65.25,226.89,159.05,289.67c93.12,62.32,216.08,50.86,325.44,25.85c27.25-6.23,54.34-13.19,81.29-20.61 c135.05-37.16,267.44-85.67,404.48-112.21c26-5.04,52.21-9.26,78.61-12.46c101.28-12.27,209.19-7.9,296.56,44.16 c9.86,5.88,19.36,12.5,28.4,19.76c70.98,57.01,112.98,152.96,89.32,235.61"/><path d="M-213.58,277.56c65.92-27.58,145.49-4.71,196.94,40.95c51.44,45.66,79,109.51,95.48,172.72 c22.72,86.94,27.11,176.38,51.12,263.9c17.36,63.04,47.42,127.45,95.07,175.99c18.44,18.84,39.51,35.29,63.5,48.34 c73.7,40.05,163.75,41.59,246.77,30.32c205.41-27.87,386.64-124.09,570.46-191.3c86.78-31.77,174.17-57.28,266.28-66.52 c66.66-6.68,136.44-4.08,202.61,14.21c30.89,8.52,61.01,20.48,89.64,36.53c119.53,67.06,196.53,196.67,243.41,327 c37.2,103.3,65.82,220.61,157.76,281.8c93.98,62.55,217.58,51.92,327.93,27.28c27.48-6.14,54.81-13.04,81.97-20.44 c136.15-37.06,269.48-86.17,407.6-112.77c26.2-5.05,52.61-9.26,79.23-12.41c102.13-12.1,210.72-7.17,298.69,45.32 c9.94,5.93,19.51,12.59,28.63,19.89c71.54,57.29,114.14,153.11,93.84,236.1"/><path d="M-210.5,310.26c64.57-26.58,142.14-5.16,192.85,37.94c50.7,43.11,78.59,103.51,95.9,163.29 c23.87,82.24,30.25,166.87,55.39,249.89c18.19,59.8,48.52,121.01,95.68,167.28c18.24,17.96,38.99,33.67,62.51,46.16 c72.32,38.34,160.23,40.22,241.33,30.12c200.68-24.97,377.74-113.62,555.71-173.58c84.02-28.35,168.27-50.56,256.96-57.21 c64.2-4.8,131.32-0.73,195.09,18.29c29.76,8.85,58.81,20.98,86.46,37.01c115.42,66.98,190.6,193.56,237.44,320.4 c37.19,100.57,66.41,214.32,156.47,273.93c94.84,62.77,219.07,52.98,330.42,28.71c27.72-6.05,55.28-12.89,82.65-20.27 c137.26-36.96,271.52-86.67,410.72-113.33c26.39-5.05,53.02-9.25,79.84-12.36c102.99-11.93,212.26-6.43,300.81,46.47 c10.01,5.98,19.65,12.68,28.85,20.03c72.1,57.57,115.31,153.26,98.37,236.59"/><path d="M-207.42,342.96c63.22-25.58,138.78-5.61,188.76,34.93c49.95,40.55,78.17,97.5,96.32,153.86 c25.03,77.53,33.39,157.36,59.66,235.88c19.02,56.55,49.62,114.57,96.29,158.57c18.03,17.07,38.46,32.05,61.53,43.98 c70.94,36.64,156.7,38.84,235.89,29.92c195.95-22.07,368.84-103.16,540.96-155.85c81.25-24.93,162.37-43.84,247.65-47.9 c61.73-2.92,126.21,2.62,187.57,22.37c28.64,9.18,56.61,21.49,83.27,37.5c111.31,66.91,184.67,190.44,231.48,313.8 c37.18,97.83,67,208.02,155.18,266.06c95.7,62.99,220.57,54.04,332.91,30.14c27.95-5.95,55.75-12.75,83.33-20.1 c138.36-36.86,273.56-87.18,413.83-113.89c26.58-5.06,53.42-9.24,80.45-12.31c103.84-11.76,213.79-5.7,302.93,47.63 c10.08,6.03,19.79,12.78,29.08,20.17c72.67,57.86,116.48,153.4,102.9,237.08"/><path d="M-204.34,375.67c61.87-24.59,135.43-6.06,184.67,31.92c49.21,38,77.76,91.49,96.73,144.44 c26.18,72.83,36.53,147.84,63.93,221.86c19.85,53.3,50.72,108.14,96.9,149.86c17.83,16.19,37.93,30.42,60.54,41.8 c69.56,34.93,153.17,37.47,230.45,29.71c191.22-19.17,359.95-92.69,526.21-138.12c78.48-21.51,156.46-37.12,238.33-38.59 c59.26-1.04,121.1,5.97,180.05,26.44c27.51,9.52,54.41,21.99,80.09,37.98c107.2,66.84,178.74,187.33,225.51,307.2 c37.17,95.09,67.59,201.71,153.89,258.19c96.57,63.21,222.06,55.1,335.4,31.57c28.19-5.86,56.21-12.6,84-19.93 c139.47-36.76,275.6-87.68,416.95-114.46c26.77-5.07,53.82-9.24,81.06-12.26c104.7-11.59,215.32-4.97,305.05,48.79 c10.15,6.08,19.94,12.87,29.3,20.3c73.23,58.14,117.64,153.55,107.42,237.57"/><path d="M-201.26,408.37c60.52-23.59,132.08-6.52,180.58,28.92c48.47,35.44,77.34,85.48,97.15,135.01 c27.33,68.12,39.66,138.33,68.19,207.85c20.68,50.06,51.82,101.7,97.51,141.15c17.62,15.31,37.4,28.8,59.56,39.62 c68.17,33.22,149.65,36.09,225.01,29.51c186.49-16.28,351.05-82.22,511.46-120.4c75.71-18.09,150.56-30.4,229.02-29.27 c56.79,0.83,115.98,9.32,172.53,30.52c26.38,9.85,52.21,22.49,76.9,38.47c103.1,66.76,172.81,184.21,219.55,300.61 c37.16,92.35,68.19,195.39,152.6,250.32c97.44,63.41,223.56,56.17,337.88,33c28.43-5.77,56.68-12.45,84.68-19.76 c140.57-36.66,277.64-88.18,420.06-115.02c26.97-5.08,54.22-9.23,81.67-12.2c105.55-11.42,216.86-4.23,307.18,49.95 c10.22,6.13,20.08,12.97,29.52,20.44c73.79,58.42,118.81,153.7,111.95,238.06"/><path d="M-198.18,441.08c59.17-22.59,128.73-6.97,176.49,25.91c47.73,32.89,76.93,79.47,97.57,125.59 c28.49,63.42,42.8,128.82,72.46,193.84c21.51,46.81,52.93,95.26,98.12,132.44c17.42,14.43,36.88,27.17,58.57,37.44 c66.79,31.51,146.12,34.72,219.57,29.31c181.76-13.38,342.15-71.76,496.72-102.67c72.95-14.67,144.66-23.68,219.71-19.96 c54.32,2.71,110.87,12.67,165,34.59c25.26,10.18,50.01,23,73.72,38.95c98.99,66.69,166.88,181.1,213.58,294.01 c37.15,89.62,68.8,189.07,151.31,242.45c98.32,63.62,225.06,57.23,340.37,34.43c28.66-5.68,57.15-12.31,85.36-19.59 c141.67-36.56,279.68-88.68,423.18-115.58c27.16-5.09,54.62-9.22,82.28-12.15c106.41-11.25,218.39-3.5,309.3,51.11 c10.29,6.18,20.23,13.06,29.75,20.57c74.36,58.7,119.98,153.84,116.48,238.56"/><path d="M-195.1,473.78c57.82-21.6,125.38-7.42,172.41,22.9c46.98,30.33,76.52,73.46,97.98,116.16 c29.64,58.71,45.94,119.31,76.73,179.83c22.34,43.57,54.03,88.83,98.73,123.73c17.22,13.55,36.35,25.55,57.58,35.26 c65.41,29.8,142.59,33.34,214.13,29.1c177.03-10.48,333.25-61.29,481.97-84.95c70.18-11.25,138.76-16.96,210.39-10.65 c51.85,4.59,105.76,16.02,157.48,38.67c24.13,10.51,47.81,23.5,70.53,39.43c94.88,66.62,160.95,177.98,207.62,287.41 c37.14,86.88,69.41,182.73,150.02,234.58c99.2,63.81,226.55,58.29,342.86,35.86c28.9-5.58,57.62-12.16,86.04-19.42 c142.78-36.46,281.72-89.18,426.3-116.14c27.35-5.1,55.03-9.22,82.89-12.1c107.26-11.08,219.92-2.77,311.42,52.27 c10.36,6.23,20.37,13.15,29.97,20.71c74.92,58.99,121.14,153.99,121,239.05"/><path d="M-192.01,506.49c56.46-20.6,122.03-7.87,168.32,19.89c46.24,27.78,76.1,67.46,98.4,106.73 c30.79,54.01,49.08,109.8,81,165.82c23.17,40.32,55.2,82.3,99.34,115.02c17.04,12.63,35.82,23.93,56.6,33.08 c64.03,28.09,139.06,31.97,208.68,28.9c172.3-7.58,324.35-50.82,467.22-67.22c67.41-7.83,132.86-10.24,201.08-1.34 c49.38,6.47,100.65,19.37,149.96,42.75c23,10.84,45.61,24.01,67.34,39.92c90.78,66.54,155.02,174.86,201.65,280.81 c37.13,84.14,70.03,176.39,148.73,226.71c100.09,64,228.05,59.35,345.35,37.29c29.13-5.49,58.09-12.01,86.72-19.25 c143.88-36.35,283.76-89.69,429.41-116.71c27.54-5.11,55.43-9.21,83.5-12.05c108.12-10.91,221.46-2.03,313.54,53.43 c10.43,6.28,20.52,13.25,30.19,20.84c75.48,59.27,122.31,154.14,125.53,239.54"/><path d="M-188.93,539.19c55.11-19.61,118.68-8.32,164.23,16.89c45.5,25.22,75.69,61.45,98.82,97.31 c31.94,49.3,52.11,100.35,85.27,151.81c23.92,37.13,56.3,75.86,99.95,106.31c16.84,11.75,35.29,22.3,55.61,30.9 c62.65,26.39,135.54,30.6,203.24,28.69c167.57-4.68,315.45-40.36,452.47-49.49c64.65-4.41,126.96-3.52,191.77,7.97 c46.91,8.35,95.53,22.73,142.44,46.82c21.87,11.18,43.41,24.51,64.16,40.4c86.67,66.47,149.09,171.75,195.68,274.21 c37.12,81.4,70.65,170.04,147.44,218.85c100.98,64.18,229.54,60.42,347.84,38.72c29.37-5.4,58.55-11.87,87.4-19.08 c144.99-36.25,285.8-90.19,432.53-117.27c27.74-5.12,55.83-9.21,84.11-12c108.97-10.74,222.99-1.3,315.66,54.59 c10.5,6.33,20.66,13.34,30.42,20.98c76.05,59.55,123.48,154.28,130.06,240.03"/><path d="M-185.85,571.9c53.76-18.61,115.33-8.77,160.14,13.88c44.76,22.67,75.27,55.44,99.23,87.88 c33.1,44.59,55.25,90.85,89.53,137.79c24.75,33.89,57.4,69.41,100.56,97.6c16.63,10.86,34.77,20.68,54.63,28.72 c61.26,24.68,132.01,29.22,197.8,28.49c162.84-1.79,306.55-29.89,437.72-31.77c61.88-0.99,121.06,3.2,182.45,17.28 c44.44,10.22,90.42,26.08,134.92,50.9c20.75,11.51,41.21,25.02,60.97,40.89c82.56,66.39,143.16,168.63,189.72,267.62 c37.11,78.67,71.28,163.69,146.15,210.98c101.88,64.35,231.04,61.48,350.33,40.14c29.61-5.3,59.02-11.72,88.08-18.91 c146.09-36.15,287.84-90.69,435.64-117.83c27.93-5.13,56.23-9.2,84.72-11.95c109.83-10.57,224.52-0.57,317.79,55.74 c10.57,6.38,20.81,13.43,30.64,21.11c76.61,59.83,124.64,154.43,134.58,240.52"/><path d="M-182.77,604.6c52.41-17.61,111.98-9.23,156.05,10.87c44.02,20.11,74.86,49.43,99.65,78.46 c34.25,39.89,58.38,81.35,93.8,123.78c25.58,30.65,58.5,62.97,101.17,88.89c16.43,9.98,34.24,19.06,53.64,26.54 c59.88,22.97,128.48,27.85,192.36,28.29c158.11,1.11,297.65-19.42,422.98-14.04c59.11,2.43,115.16,9.92,173.14,26.59 c41.97,12.1,85.31,29.43,127.4,54.97c19.62,11.84,39.01,25.52,57.79,41.37c78.45,66.32,137.23,165.52,183.75,261.02 c37.1,75.93,71.92,157.32,144.86,203.11c102.78,64.52,232.54,62.54,352.82,41.57c29.84-5.21,59.49-11.57,88.76-18.74 c147.2-36.05,289.88-91.19,438.76-118.39c28.12-5.14,56.64-9.19,85.33-11.89c110.68-10.4,226.06,0.17,319.91,56.9 c10.64,6.43,20.95,13.53,30.86,21.25c77.18,60.11,125.81,154.58,139.11,241.01"/><path d="M-179.69,637.3c51.06-16.62,108.62-9.68,151.96,7.86c43.27,17.56,74.44,43.42,100.07,69.03 c35.4,35.18,61.53,71.85,98.07,109.77c26.41,27.41,59.6,56.53,101.78,80.18c16.22,9.1,33.71,17.43,52.66,24.35 c58.5,21.26,124.95,26.47,186.92,28.08c153.39,4.01,288.75-8.95,408.23,3.69c56.35,5.85,109.26,16.64,163.83,35.91 c39.51,13.98,80.2,32.78,119.88,59.05c18.49,12.17,36.81,26.03,54.6,41.85c74.35,66.25,131.3,162.4,177.79,254.42 c37.08,73.19,72.56,150.95,143.57,195.24c103.69,64.67,234.03,63.6,355.31,43c30.08-5.12,59.96-11.43,89.44-18.57 c148.3-35.95,291.92-91.69,441.88-118.95c28.31-5.15,57.04-9.19,85.94-11.84c111.54-10.23,227.59,0.9,322.03,58.06 c10.71,6.48,21.09,13.62,31.09,21.38c77.74,60.4,126.97,154.72,143.64,241.5"/><path d="M-176.61,670.01c49.71-15.62,105.27-10.13,147.87,4.85c42.53,15,74.03,37.41,100.48,59.61 c36.56,30.48,64.67,62.34,102.34,95.76c27.25,24.17,60.7,50.09,102.38,71.47c16.02,8.22,33.18,15.81,51.67,22.17 c57.12,19.55,121.43,25.1,181.48,27.88c148.66,6.91,279.85,1.51,393.48,21.41c53.58,9.27,103.36,23.36,154.51,45.22 c37.04,15.86,75.08,36.13,112.35,63.13c17.37,12.5,34.61,26.53,51.42,42.34c70.24,66.17,125.37,159.29,171.82,247.82 c37.07,70.45,73.2,144.57,142.28,187.37c104.61,64.81,235.53,64.67,357.79,44.43c30.31-5.02,60.43-11.28,90.11-18.41 c149.41-35.85,293.96-92.19,444.99-119.52c28.5-5.16,57.44-9.18,86.56-11.79c112.39-10.06,229.12,1.64,324.15,59.22 c10.78,6.53,21.24,13.72,31.31,21.52c78.3,60.68,128.14,154.87,148.16,241.99"/><path d="M-173.53,702.71c48.36-14.62,101.92-10.58,143.78,1.85c41.79,12.45,73.61,31.41,100.9,50.18 c37.71,25.77,67.82,52.84,106.61,81.75c28.09,20.93,61.8,43.65,102.99,62.76c15.81,7.33,32.66,14.19,50.69,19.99 c55.74,17.84,117.9,23.72,176.04,27.68c143.93,9.81,270.95,11.98,378.73,39.14c50.81,12.69,97.46,30.08,145.2,54.53 c34.57,17.74,69.97,39.48,104.83,67.2c16.24,12.84,32.41,27.04,48.23,42.82c66.13,66.1,119.44,156.17,165.86,241.22 c37.06,67.72,73.85,138.18,140.99,179.5c105.53,64.94,237.02,65.73,360.28,45.86c30.55-4.93,60.89-11.13,90.79-18.24 c150.51-35.75,296-92.7,448.11-120.08c28.7-5.17,57.84-9.17,87.17-11.74c113.25-9.89,230.66,2.37,326.27,60.38 c10.85,6.58,21.38,13.81,31.54,21.66c78.87,60.96,129.31,155.01,152.69,242.48"/><path d="M-170.45,735.42c47.01-13.63,98.57-11.03,139.69-1.16c41.05,9.89,73.2,25.4,101.31,40.75 c38.86,21.07,70.97,43.33,110.87,67.73c28.93,17.69,62.89,37.22,103.6,54.05c15.6,6.45,32.13,12.56,49.7,17.81 c54.36,16.14,114.37,22.35,170.6,27.47c139.2,12.7,262.06,22.45,363.98,56.86c48.05,16.11,91.55,36.8,135.88,63.84 c32.1,19.61,64.86,42.83,97.31,71.28c15.11,13.17,30.21,27.54,45.04,43.31c62.02,66.02,113.51,153.05,159.89,234.63 c37.05,64.98,74.5,131.78,139.7,171.63c106.47,65.06,238.52,66.79,362.77,47.29c30.79-4.84,61.36-10.98,91.47-18.07 c151.61-35.65,298.04-93.2,451.22-120.64c28.89-5.18,58.24-9.17,87.78-11.69c114.1-9.72,232.19,3.1,328.4,61.54 c10.92,6.63,21.53,13.9,31.76,21.79c79.43,61.24,130.47,155.16,157.22,242.97"/><path d="M-167.37,768.12c45.66-12.63,95.22-11.48,135.6-4.17c40.31,7.34,72.79,19.39,101.73,31.33 c40.02,16.36,74.12,33.82,115.14,53.72c29.77,14.44,63.99,30.79,104.21,45.34c15.4,5.57,31.6,10.94,48.72,15.63 c52.97,14.43,110.85,20.97,165.16,27.27c134.47,15.6,253.16,32.91,349.24,74.59c45.28,19.53,85.65,43.52,126.57,73.15 c29.63,21.49,59.74,46.18,89.79,75.35c13.98,13.5,28.01,28.05,41.86,43.79c57.92,65.95,107.58,149.94,153.92,228.03 c37.04,62.24,75.15,125.38,138.41,163.76c107.41,65.16,240.01,67.85,365.26,48.72c31.02-4.74,61.83-10.84,92.15-17.9 c152.72-35.54,300.08-93.7,454.34-121.2c29.08-5.19,58.65-9.16,88.39-11.64c114.96-9.55,233.72,3.84,330.52,62.7 c10.99,6.69,21.67,14,31.98,21.93c79.99,61.53,131.64,155.31,161.74,243.46"/><path d="M-164.28,800.83c44.31-11.64,91.87-11.93,131.51-7.18c39.56,4.78,72.37,13.38,102.15,21.9 c41.17,11.66,77.28,24.3,119.41,39.71c30.61,11.19,65.08,24.36,104.82,36.63c15.19,4.69,31.07,9.32,47.73,13.45 c51.59,12.72,107.32,19.6,159.72,27.06c129.74,18.5,244.26,43.38,334.49,92.32c42.51,22.95,79.75,50.24,117.26,82.46 c27.16,23.37,54.63,49.53,82.27,79.43c12.86,13.83,25.81,28.55,38.67,44.27c53.81,65.88,101.65,146.82,147.96,221.43 c37.03,59.5,75.81,118.97,137.12,155.89c108.36,65.25,241.51,68.92,367.75,50.15c31.26-4.65,62.3-10.69,92.83-17.73 c153.82-35.44,302.12-94.2,457.46-121.77c29.27-5.2,59.05-9.16,89-11.58c115.81-9.38,235.26,4.57,332.64,63.85 c11.06,6.74,21.82,14.09,32.21,22.06c80.56,61.81,132.81,155.45,166.27,243.95"/><path d="M-161.2,833.53c42.96-10.64,88.52-12.39,127.42-10.18c38.82,2.23,71.96,7.37,102.56,12.48 c42.32,6.95,80.43,14.78,123.68,25.7c31.45,7.94,66.18,17.93,105.43,27.92c14.98,3.82,30.55,7.69,46.75,11.27 c50.21,11.01,103.79,18.22,154.28,26.86c125.01,21.4,235.36,53.85,319.74,110.04c39.75,26.37,73.85,56.96,107.94,91.77 c24.69,25.25,49.52,52.89,74.75,83.51c11.73,14.16,23.61,29.06,35.49,44.76c49.7,65.8,95.72,143.71,141.99,214.83 c37.02,56.77,76.48,112.56,135.83,148.02c109.32,65.32,243.01,69.98,370.24,51.58c31.49-4.56,62.76-10.54,93.51-17.56 c154.93-35.34,304.16-94.7,460.57-122.33c29.47-5.2,59.45-9.15,89.61-11.53c116.67-9.21,236.79,5.3,334.76,65.01 c11.14,6.79,21.96,14.18,32.43,22.2c81.12,62.09,133.97,155.6,170.8,244.45"/><path d="M-158.12,866.24c41.61-9.64,85.17-12.84,123.33-13.19c38.08-0.33,71.54,1.36,102.98,3.05 c43.48,2.24,83.59,5.16,127.95,11.69c32.3,4.62,67.27,11.5,106.04,19.21c14.78,2.94,30.02,6.07,45.76,9.09 c48.83,9.3,100.26,16.85,148.84,26.66c120.28,24.3,226.46,64.31,304.99,127.77c36.98,29.79,67.95,63.68,98.63,101.09 c22.22,27.13,44.41,56.24,67.23,87.58c10.6,14.5,21.41,29.56,32.3,45.24c45.6,65.73,89.79,140.59,136.03,208.24 c37.01,54.03,77.14,106.14,134.54,140.15c110.29,65.36,244.5,71.04,372.73,53.01c31.73-4.47,63.23-10.4,94.19-17.39 c156.03-35.24,306.2-95.21,463.69-122.89c29.66-5.21,59.85-9.14,90.22-11.48c117.52-9.04,238.32,6.04,336.89,66.17 c11.21,6.84,22.1,14.28,32.65,22.33c81.68,62.37,135.14,155.75,175.33,244.94"/><path d="M-155.04,898.94c40.26-8.65,81.82-13.29,119.25-16.2c37.34-2.88,71.13-4.64,103.4-6.38 c44.63-2.46,86.73-4.35,132.21-2.32c33.13,1.37,68.36,5.15,106.65,10.5c14.57,2.09,29.49,4.45,44.78,6.91 c47.45,7.6,96.74,15.48,143.4,26.45c115.55,27.2,217.56,74.78,290.24,145.5c34.21,33.21,62.05,70.4,89.32,110.4 c19.75,29.01,39.29,59.59,59.7,91.66c9.47,14.83,19.21,30.06,29.12,45.73c41.49,65.66,83.86,137.48,130.06,201.64 c37,51.29,77.82,99.71,133.25,132.28c111.27,65.39,246,72.1,375.21,54.44c31.97-4.37,63.7-10.25,94.87-17.22 c157.14-35.14,308.24-95.71,466.8-123.45c29.85-5.22,60.25-9.14,90.83-11.43c118.38-8.87,239.86,6.77,339.01,67.33 c11.28,6.89,22.25,14.37,32.88,22.47c82.25,62.66,136.31,155.89,179.85,245.43"/><path d="M-151.96,931.64c38.91-7.65,78.46-13.74,115.16-19.21c36.59-5.44,70.71-10.65,103.81-15.8 c45.78-7.17,89.87-13.86,136.48-16.34c33.96-1.87,69.46-1.29,107.26,1.79c14.36,1.21,28.96,2.82,43.79,4.73 c46.07,5.89,93.21,14.1,137.96,26.25c110.82,30.09,208.66,85.25,275.5,163.22c31.45,36.63,56.15,77.12,80,119.71 c17.28,30.88,34.18,62.94,52.18,95.74c8.35,15.16,17.01,30.57,25.93,46.21c37.38,65.58,77.93,134.36,124.1,195.04 c36.99,48.55,78.49,93.27,131.96,124.41c112.27,65.39,247.49,73.17,377.7,55.87c32.2-4.28,64.17-10.1,95.54-17.05 c158.24-35.04,310.28-96.21,469.92-124.02c30.04-5.23,60.66-9.13,91.44-11.38c119.23-8.7,241.39,7.51,341.13,68.49 c11.35,6.94,22.39,14.47,33.1,22.6c82.81,62.94,137.47,156.04,184.38,245.92"/><path d="M-148.88,964.35c37.56-6.65,75.11-14.19,111.07-22.21c35.85-7.99,70.3-16.66,104.23-25.23 c46.93-11.87,93.01-23.37,140.75-30.35c34.79-5.12,70.56-7.72,107.87-6.92c14.16,0.33,28.44,1.2,42.8,2.55 c44.68,4.18,89.68,12.73,132.52,26.05c106.09,32.99,199.76,95.72,260.75,180.95c28.68,40.05,50.25,83.84,70.69,129.02 c14.82,32.76,29.07,66.29,44.66,99.81c7.22,15.49,14.81,31.07,22.74,46.69c33.27,65.51,72,131.25,118.13,188.44 c36.98,45.82,79.22,86.74,130.67,116.55c113.4,65.16,248.99,74.23,380.19,57.3c32.44-4.19,64.64-9.96,96.22-16.88 c159.35-34.94,312.32-96.71,473.04-124.58c30.24-5.24,61.06-9.12,92.05-11.33c120.09-8.53,242.92,8.24,343.25,69.65 c11.42,6.99,22.54,14.56,33.32,22.74c83.38,63.22,138.64,156.19,188.91,246.41"/><path d="M-145.8,997.05c158.65-24.79,304.67-113.47,465.12-119.86c164.98-6.57,330.35,83.06,414.89,224.89 c44.7,74.99,67.15,160.74,98.51,242.22c52.15,135.45,135.08,265.7,261.1,337.7c142.57,81.44,319.13,76.85,479.58,42.01 c160.45-34.84,314.36-97.21,476.15-125.14s340.65-16.65,471.58,82.41c83.94,63.5,139.8,156.33,193.43,246.9"/></g></g></svg>